<?xml version="1.0" encoding="UTF-8" standalone="no"?>
<!DOCTYPE svg PUBLIC "-//W3C//DTD SVG 1.1//EN" "http://www.w3.org/Graphics/SVG/1.1/DTD/svg11.dtd">
<svg width="100%" height="100%" viewBox="0 0 988 326" version="1.1" xmlns="http://www.w3.org/2000/svg" xmlns:xlink="http://www.w3.org/1999/xlink" xml:space="preserve" xmlns:serif="http://www.serif.com/" style="fill-rule:evenodd;clip-rule:evenodd;stroke-linejoin:round;stroke-miterlimit:1.41421;">
    <g transform="matrix(1,0,0,1,-1435.41,-920.28)">
        <g id="Ebene-1" serif:id="Ebene 1" transform="matrix(4.16667,0,0,4.16667,0,0)">
            <g transform="matrix(1,0,0,1,581.392,236.492)">
                <path d="M0,-0.002C0,8.629 -6.994,15.623 -15.623,15.623C-24.252,15.623 -31.248,8.629 -31.248,-0.002C-31.248,-8.629 -24.252,-15.625 -15.623,-15.625C-6.994,-15.625 0,-8.629 0,-0.002" style="fill:rgb(231,63,151);fill-rule:nonzero;"/>
            </g>
            <g transform="matrix(1,0,0,1,565.768,246.707)">
                <path d="M0,-20.433C-5.633,-20.433 -10.216,-15.85 -10.216,-10.215C-10.216,-4.583 -5.633,0 0,0C3.598,0 6.863,-1.838 8.735,-4.917C9.052,-5.437 8.886,-6.115 8.366,-6.431C7.847,-6.747 7.17,-6.583 6.853,-6.062C5.384,-3.646 2.821,-2.204 0,-2.204C-4.418,-2.204 -8.013,-5.798 -8.013,-10.215C-8.013,-14.635 -4.418,-18.23 0,-18.23C4.045,-18.23 7.4,-15.217 7.938,-11.317L2.914,-11.317C2.469,-12.497 1.338,-13.34 0.002,-13.34C-1.729,-13.34 -3.122,-11.944 -3.122,-10.217C-3.122,-8.491 -1.729,-7.094 0.002,-7.094C1.337,-7.094 2.467,-7.935 2.913,-9.114L9.115,-9.114C9.724,-9.114 10.217,-9.607 10.217,-10.215C10.217,-15.85 5.634,-20.433 0,-20.433" style="fill:white;fill-rule:nonzero;"/>
            </g>
            <g transform="matrix(1,0,0,1,367.733,259.628)">
                <path d="M0,10.463C0,15.887 -4.962,19.234 -11.617,19.234C-18.311,19.234 -23.234,15.887 -23.234,10.463L-23.234,-0.038C-23.234,-5.386 -18.388,-8.771 -11.617,-8.771C-4.809,-8.771 0,-5.77 0,-1.154L0,0.654L-4.847,0.654L-4.847,-0.654C-4.847,-3.078 -7.578,-4.424 -11.617,-4.424C-15.58,-4.424 -18.311,-2.693 -18.311,0.462L-18.311,10.001C-18.311,13.194 -15.541,14.848 -11.617,14.848C-7.693,14.848 -4.962,13.194 -4.962,10.001L-4.962,8.232L-11.886,8.232L-11.886,4.001L0,4.001L0,10.463Z" style="fill:rgb(35,31,32);fill-rule:nonzero;"/>
            </g>
            <g transform="matrix(1,0,0,1,389.393,269.359)">
                <path d="M0,-3.615L0,-4.615C0,-7.462 -1.923,-8.924 -5.578,-8.924C-9.194,-8.924 -11.232,-7.539 -11.232,-4.615L-11.232,-3.615L0,-3.615ZM-15.887,-4.846C-15.887,-9.886 -11.925,-12.963 -5.578,-12.963C0.77,-12.963 4.731,-9.886 4.731,-4.846L4.731,-0.345L-11.194,-0.345L-11.194,1.078C-11.194,4.001 -9.194,5.309 -5.578,5.309C-1.616,5.309 -0.039,3.771 -0.039,2.039L-0.039,1.732L4.578,1.732L4.578,2.347C4.578,5.925 0.885,9.348 -5.578,9.348C-11.925,9.348 -15.887,6.271 -15.887,1.27L-15.887,-4.846Z" style="fill:rgb(35,31,32);fill-rule:nonzero;"/>
            </g>
            <g transform="matrix(1,0,0,1,420.362,270.245)">
                <path d="M0,-5.77L0,8.078L-4.693,8.078L-4.693,-5.309C-4.693,-8.232 -6.693,-9.771 -9.963,-9.771C-13.463,-9.771 -15.271,-8.232 -15.271,-5.309L-15.271,8.078L-19.964,8.078L-19.964,-5.77C-19.964,-10.771 -16.002,-13.848 -9.963,-13.848C-3.923,-13.848 0,-10.771 0,-5.77" style="fill:rgb(35,31,32);fill-rule:nonzero;"/>
            </g>
            <g transform="matrix(1,0,0,1,442.677,269.359)">
                <path d="M0,-3.615L0,-4.615C0,-7.462 -1.924,-8.924 -5.578,-8.924C-9.194,-8.924 -11.232,-7.539 -11.232,-4.615L-11.232,-3.615L0,-3.615ZM-15.888,-4.846C-15.888,-9.886 -11.926,-12.963 -5.578,-12.963C0.769,-12.963 4.731,-9.886 4.731,-4.846L4.731,-0.345L-11.194,-0.345L-11.194,1.078C-11.194,4.001 -9.194,5.309 -5.578,5.309C-1.616,5.309 -0.039,3.771 -0.039,2.039L-0.039,1.732L4.577,1.732L4.577,2.347C4.577,5.925 0.885,9.348 -5.578,9.348C-11.926,9.348 -15.888,6.271 -15.888,1.27L-15.888,-4.846Z" style="fill:rgb(35,31,32);fill-rule:nonzero;"/>
            </g>
            <g transform="matrix(1,0,0,1,465.452,274.169)">
                <path d="M0,-13.618C-0.577,-13.657 -1.577,-13.695 -2.271,-13.695C-5.771,-13.695 -7.078,-12.81 -7.078,-10.04L-7.078,4.154L-11.771,4.154L-11.771,-10.502C-11.771,-15.503 -8.964,-17.772 -2.886,-17.772C-1.886,-17.772 -0.885,-17.734 0,-17.657L0,-13.618Z" style="fill:rgb(35,31,32);fill-rule:nonzero;"/>
            </g>
            <g transform="matrix(1,0,0,1,477.109,260.127)">
                <path d="M0,14.849C3.577,14.849 6.078,13.888 6.078,11.156L6.078,10.079C4.231,9.694 2.154,9.464 -0.077,9.464C-3.27,9.464 -4.847,10.194 -4.847,12.195C-4.886,14.118 -2.962,14.849 0,14.849M0.038,18.58C-6.348,18.58 -9.617,16.541 -9.617,12.349C-9.617,7.732 -6.001,6.232 -0.27,6.232C1.923,6.232 4.501,6.54 6.078,6.848L6.078,4.232C6.078,1.578 4.462,0.347 0.923,0.347C-2.885,0.347 -4.309,1.924 -4.309,3.809L-4.309,4.424L-8.925,4.424L-8.925,3.386C-8.925,-0.269 -5.655,-3.731 0.923,-3.731C7.309,-3.731 10.81,-1 10.81,3.77L10.81,11.349C10.81,16.388 6.501,18.58 0.038,18.58" style="fill:rgb(35,31,32);fill-rule:nonzero;"/>
            </g>
            <g transform="matrix(1,0,0,1,494.538,269.514)">
                <path d="M0,-8.886L-2.77,-8.886L-2.77,-12.733L0.115,-12.733L0.653,-18.118L4.692,-18.118L4.692,-12.733L12.348,-12.733L12.348,-8.886L4.692,-8.886L4.692,1.5C4.692,4.039 6.231,5.193 9.501,5.193C10.655,5.193 11.925,5.116 13.079,4.885L13.079,8.886C11.925,9.078 10.309,9.232 9.001,9.232C3,9.232 0,6.578 0,1.538L0,-8.886Z" style="fill:rgb(35,31,32);fill-rule:nonzero;"/>
            </g>
            <g transform="matrix(1,0,0,1,516.082,264.936)">
                <path d="M0,5.231C0,8.155 2,9.693 5.616,9.693C9.193,9.693 11.194,8.155 11.194,5.231L11.194,0C11.194,-2.924 9.193,-4.463 5.616,-4.463C2,-4.463 0,-2.924 0,0L0,5.231ZM-4.693,-0.462C-4.693,-5.463 -0.731,-8.54 5.616,-8.54C11.963,-8.54 15.926,-5.463 15.926,-0.462L15.926,5.693C15.926,10.693 11.963,13.771 5.616,13.771C-0.731,13.771 -4.693,10.693 -4.693,5.693L-4.693,-0.462Z" style="fill:rgb(35,31,32);fill-rule:nonzero;"/>
            </g>
            <g transform="matrix(1,0,0,1,550.167,274.169)">
                <path d="M0,-13.618C-0.577,-13.657 -1.577,-13.695 -2.271,-13.695C-5.771,-13.695 -7.078,-12.81 -7.078,-10.04L-7.078,4.154L-11.771,4.154L-11.771,-10.502C-11.771,-15.503 -8.964,-17.772 -2.886,-17.772C-1.886,-17.772 -0.885,-17.734 0,-17.657L0,-13.618Z" style="fill:rgb(35,31,32);fill-rule:nonzero;"/>
            </g>
            <g transform="matrix(1,0,0,1,349.325,290.471)">
                <path d="M0,8.425L0,4.605L-3.731,4.605L-3.731,8.425L-4.819,8.425L-4.819,0L-3.731,0L-3.731,3.631L0,3.631L0,0L1.088,0L1.088,8.425L0,8.425Z" style="fill:rgb(35,31,32);fill-rule:nonzero;"/>
            </g>
            <g transform="matrix(1,0,0,1,358.099,291.446)">
                <path d="M0,6.477L1.821,6.477C3.099,6.477 3.479,5.946 3.479,4.958L3.479,1.518C3.479,0.532 3.099,0 1.821,0L0,0L0,6.477ZM1.859,-0.974C3.921,-0.974 4.566,0.101 4.566,1.442L4.566,5.035C4.566,6.375 3.921,7.451 1.859,7.451L-1.088,7.451L-1.088,-0.974L1.859,-0.974Z" style="fill:rgb(35,31,32);fill-rule:nonzero;"/>
            </g>
            <g transform="matrix(1,0,0,1,370.098,297.302)">
                <path d="M0,-5.237L-0.165,1.594L-1.214,1.594L-0.923,-6.831L0.456,-6.831L2.884,-0.316L5.313,-6.831L6.691,-6.831L6.982,1.594L5.933,1.594L5.768,-5.237L3.618,0.506L2.15,0.506L0,-5.237Z" style="fill:rgb(35,31,32);fill-rule:nonzero;"/>
            </g>
            <g transform="matrix(1,0,0,1,392.909,290.345)">
                <path d="M0,8.678C-0.81,8.678 -1.784,8.526 -2.505,8.235L-2.328,7.349C-1.556,7.59 -0.747,7.716 0.025,7.716C1.379,7.716 1.657,7.362 1.657,6.401C1.657,5.262 1.645,5.161 -0.089,4.769C-2.125,4.314 -2.366,3.921 -2.366,2.176C-2.366,0.708 -1.758,0 0.329,0C1.062,0 1.935,0.101 2.605,0.279L2.517,1.201C1.847,1.05 1.05,0.961 0.354,0.961C-1.025,0.961 -1.278,1.24 -1.278,2.213C-1.278,3.377 -1.278,3.428 0.392,3.845C2.631,4.402 2.745,4.731 2.745,6.375C2.745,7.843 2.315,8.678 0,8.678" style="fill:rgb(35,31,32);fill-rule:nonzero;"/>
            </g>
            <g transform="matrix(1,0,0,1,403.694,297.921)">
                <path d="M0,-6.475L-2.517,-6.475L-2.517,-7.45L3.605,-7.45L3.605,-6.475L1.088,-6.475L1.088,0.975L0,0.975L0,-6.475Z" style="fill:rgb(35,31,32);fill-rule:nonzero;"/>
            </g>
            <g transform="matrix(1,0,0,1,415.935,298.113)">
                <path d="M0,-6.857L-1.505,-2.189L1.505,-2.189L0,-6.857ZM3.58,0.784L2.479,0.784L1.784,-1.24L-1.796,-1.24L-2.479,0.784L-3.58,0.784L-0.734,-7.641L0.733,-7.641L3.58,0.784Z" style="fill:rgb(35,31,32);fill-rule:nonzero;"/>
            </g>
            <g transform="matrix(1,0,0,1,428.566,297.921)">
                <path d="M0,-6.475L-2.087,-6.475L-2.087,-3.035L0,-3.035C1.037,-3.035 1.392,-3.326 1.392,-4.148L1.392,-5.363C1.392,-6.197 1.037,-6.475 0,-6.475M-0.025,-2.074L-2.087,-2.074L-2.087,0.975L-3.175,0.975L-3.175,-7.45L0.038,-7.45C1.847,-7.45 2.479,-6.665 2.479,-5.374L2.479,-4.161C2.479,-3.162 2.112,-2.478 1.139,-2.2L3.327,0.975L2.074,0.975L-0.025,-2.074Z" style="fill:rgb(35,31,32);fill-rule:nonzero;"/>
            </g>
            <g transform="matrix(1,0,0,1,439.528,297.921)">
                <path d="M0,-6.475L-2.518,-6.475L-2.518,-7.45L3.605,-7.45L3.605,-6.475L1.088,-6.475L1.088,0.975L0,0.975L0,-6.475Z" style="fill:rgb(35,31,32);fill-rule:nonzero;"/>
            </g>
            <g transform="matrix(1,0,0,1,454.816,299.024)">
                <path d="M0,-8.552L0,-2.492C0,-1.114 -0.797,0 -2.985,0C-5.173,0 -5.97,-1.114 -5.97,-2.492L-5.97,-8.552L-4.883,-8.552L-4.883,-2.556C-4.883,-1.519 -4.313,-0.975 -2.985,-0.975C-1.656,-0.975 -1.088,-1.519 -1.088,-2.556L-1.088,-8.552L0,-8.552Z" style="fill:rgb(35,31,32);fill-rule:nonzero;"/>
            </g>
            <g transform="matrix(1,0,0,1,464.362,297.921)">
                <path d="M0,-6.475L-1.923,-6.475L-1.923,-3.009L0,-3.009C1.037,-3.009 1.391,-3.3 1.391,-4.122L1.391,-5.363C1.391,-6.197 1.037,-6.475 0,-6.475M-3.011,-7.45L0.037,-7.45C1.847,-7.45 2.479,-6.665 2.479,-5.374L2.479,-4.122C2.479,-2.82 1.847,-2.036 0.037,-2.036L-1.923,-2.036L-1.923,0.975L-3.011,0.975L-3.011,-7.45Z" style="fill:rgb(35,31,32);fill-rule:nonzero;"/>
            </g>
            <g transform="matrix(1,0,0,1,480.912,292.888)">
                <path d="M0,3.592C0,4.769 0.456,5.148 1.835,5.148C2.341,5.148 3.163,5.084 3.808,4.971L3.922,5.906C3.314,6.046 2.429,6.135 1.797,6.135C-0.266,6.135 -1.088,5.249 -1.088,3.655L-1.088,-0.064C-1.088,-1.658 -0.266,-2.543 1.797,-2.543C2.429,-2.543 3.314,-2.455 3.922,-2.315L3.808,-1.38C3.163,-1.493 2.341,-1.556 1.835,-1.556C0.456,-1.556 0,-1.177 0,-0.001L0,3.592Z" style="fill:rgb(35,31,32);fill-rule:nonzero;"/>
            </g>
            <g transform="matrix(1,0,0,1,490.989,298.897)">
                <path d="M0,-8.425L4.959,-8.425L4.959,-7.45L1.088,-7.45L1.088,-4.807L4.681,-4.807L4.681,-3.833L1.088,-3.833L1.088,-0.974L4.972,-0.974L4.972,0L0,0L0,-8.425Z" style="fill:rgb(35,31,32);fill-rule:nonzero;"/>
            </g>
            <g transform="matrix(1,0,0,1,503.306,297.644)">
                <path d="M0,-5.919L0,1.253L-1.037,1.253L-1.037,-7.172L0.455,-7.172L4.124,0.038L4.124,-7.172L5.161,-7.172L5.161,1.253L3.668,1.253L0,-5.919Z" style="fill:rgb(35,31,32);fill-rule:nonzero;"/>
            </g>
            <g transform="matrix(1,0,0,1,516.759,297.921)">
                <path d="M0,-6.475L-2.517,-6.475L-2.517,-7.45L3.605,-7.45L3.605,-6.475L1.088,-6.475L1.088,0.975L0,0.975L0,-6.475Z" style="fill:rgb(35,31,32);fill-rule:nonzero;"/>
            </g>
            <g transform="matrix(1,0,0,1,526.141,298.897)">
                <path d="M0,-8.425L4.959,-8.425L4.959,-7.45L1.088,-7.45L1.088,-4.807L4.681,-4.807L4.681,-3.833L1.088,-3.833L1.088,-0.974L4.972,-0.974L4.972,0L0,0L0,-8.425Z" style="fill:rgb(35,31,32);fill-rule:nonzero;"/>
            </g>
            <g transform="matrix(1,0,0,1,540.595,297.921)">
                <path d="M0,-6.475L-2.087,-6.475L-2.087,-3.035L0,-3.035C1.037,-3.035 1.392,-3.326 1.392,-4.148L1.392,-5.363C1.392,-6.197 1.037,-6.475 0,-6.475M-0.025,-2.074L-2.087,-2.074L-2.087,0.975L-3.175,0.975L-3.175,-7.45L0.038,-7.45C1.847,-7.45 2.479,-6.665 2.479,-5.374L2.479,-4.161C2.479,-3.162 2.112,-2.478 1.139,-2.2L3.327,0.975L2.074,0.975L-0.025,-2.074Z" style="fill:rgb(35,31,32);fill-rule:nonzero;"/>
            </g>
        </g>
    </g>
</svg>
