<?xml version="1.0" encoding="UTF-8" standalone="no"?>
<!DOCTYPE svg PUBLIC "-//W3C//DTD SVG 1.1//EN" "http://www.w3.org/Graphics/SVG/1.1/DTD/svg11.dtd">
<svg width="100%" height="100%" viewBox="0 0 1118 692" version="1.1" xmlns="http://www.w3.org/2000/svg" xmlns:xlink="http://www.w3.org/1999/xlink" xml:space="preserve" xmlns:serif="http://www.serif.com/" style="fill-rule:evenodd;clip-rule:evenodd;stroke-linejoin:round;stroke-miterlimit:1.41421;">
    <g id="Artboard1" transform="matrix(0.997191,0,0,1,-20.7748,-20.8333)">
        <rect x="20.833" y="20.833" width="1120.84" height="691.217" style="fill:none;"/>
        <clipPath id="_clip1">
            <rect x="20.833" y="20.833" width="1120.84" height="691.217"/>
        </clipPath>
        <g clip-path="url(#_clip1)">
            <g id="Logo" transform="matrix(4.17841,0,0,4.16667,-42.9074,-73.6871)">
                <g>
                    <g opacity="0.699997">
                        <g transform="matrix(1,0,0,1,83.0044,105.489)">
                            <path d="M0,0.684C0,-40.838 44.627,-82.604 98.022,-82.604L80.499,-82.515C79.959,-82.52 79.43,-82.553 78.891,-82.553C30.053,-82.553 -9.537,-45.43 -9.537,0.369C-9.537,46.166 30.053,83.288 78.891,83.288C79.43,83.288 79.959,83.256 80.499,83.247L97.965,83.288C44.627,83.288 0,42.211 0,0.684" style="fill:rgb(25,162,165);fill-rule:nonzero;"/>
                        </g>
                    </g>
                </g>
                <g>
                    <g opacity="0.699997">
                        <g transform="matrix(1,0,0,1,113.466,105.489)">
                            <path d="M0,0.684C0,-40.838 -44.618,-82.604 -98.011,-82.604L-80.489,-82.515C-79.95,-82.52 -79.42,-82.553 -78.881,-82.553C-30.042,-82.553 9.547,-45.43 9.547,0.369C9.547,46.166 -30.042,83.288 -78.881,83.288C-79.42,83.288 -79.95,83.256 -80.489,83.247L-97.96,83.288C-44.618,83.288 0,42.211 0,0.684" style="fill:rgb(0,151,71);fill-rule:nonzero;"/>
                        </g>
                    </g>
                </g>
                <g>
                    <g transform="matrix(1,0,0,1,-7.10543e-15,-57.021)">
                        <rect x="155.274" y="97.859" width="6.459" height="71.803" style="fill:rgb(88,89,91);"/>
                    </g>
                    <g transform="matrix(1,0,0,1,186.062,46.6511)">
                        <path d="M0,60.176L6.029,60.176C27.127,60.176 40.477,51.349 40.477,29.066C40.477,10.011 29.282,-0.001 10.334,-0.001L0,-0.001L0,60.176ZM-6.459,65.989L-6.459,-5.813L10.119,-5.813C33.049,-5.813 47.258,5.92 47.258,29.066C47.258,54.902 30.143,65.989 6.136,65.989L-6.459,65.989Z" style="fill:rgb(88,89,91);fill-rule:nonzero;"/>
                    </g>
                    <g transform="matrix(1,0,0,1,247.102,40.8376)">
                        <path d="M0,71.803L0,0L34.34,0L34.34,5.813L6.459,5.813L6.459,32.08L32.832,32.08L32.832,37.678L6.459,37.678L6.459,65.99L35.523,65.99L35.523,71.803L0,71.803Z" style="fill:rgb(88,89,91);fill-rule:nonzero;"/>
                    </g>
                </g>
                <g>
                    <g transform="matrix(1,0,0,1,-7.10543e-15,65.057)">
                        <rect x="155.271" y="65.516" width="1.273" height="14.411" style="fill:rgb(88,89,91);"/>
                    </g>
                    <g transform="matrix(1,0,0,1,161.428,130.573)">
                        <path d="M0,14.411L0,0L1.74,0L8.999,12.877L8.999,0L10.23,0L10.23,14.411L8.489,14.411L1.23,1.534L1.23,14.411L0,14.411Z" style="fill:rgb(88,89,91);fill-rule:nonzero;"/>
                    </g>
                    <g transform="matrix(1,0,0,1,175.928,132.323)">
                        <path d="M0,10.933C0.935,11.516 2.017,11.689 2.865,11.689C4.712,11.689 6.07,10.825 6.07,8.837C6.07,7.476 5.03,6.676 3.672,5.899L2.398,5.164C1.083,4.408 0.128,3.5 0.128,1.836C0.128,-0.756 2.293,-1.966 4.5,-1.966C5.349,-1.966 6.155,-1.837 6.983,-1.512L6.856,-0.215C6.113,-0.584 5.285,-0.756 4.458,-0.756C2.887,-0.756 1.443,-0.044 1.443,1.772C1.443,2.96 2.165,3.587 3.354,4.256L4.627,4.992C6.113,5.856 7.408,6.893 7.408,8.859C7.408,11.43 5.349,12.899 2.802,12.899C1.72,12.899 0.786,12.726 -0.212,12.273L0,10.933Z" style="fill:rgb(88,89,91);fill-rule:nonzero;"/>
                    </g>
                    <g transform="matrix(1,0,0,1,189.791,130.573)">
                        <path d="M0,14.411L0,1.166L-4.14,1.166L-4.14,0L5.434,0L5.434,1.166L1.273,1.166L1.273,14.411L0,14.411Z" style="fill:rgb(88,89,91);fill-rule:nonzero;"/>
                    </g>
                    <g transform="matrix(1,0,0,1,-7.10543e-15,65.057)">
                        <rect x="198.454" y="65.516" width="1.273" height="14.411" style="fill:rgb(88,89,91);"/>
                    </g>
                    <g transform="matrix(1,0,0,1,207.095,130.573)">
                        <path d="M0,14.411L0,1.166L-4.14,1.166L-4.14,0L5.434,0L5.434,1.166L1.273,1.166L1.273,14.411L0,14.411Z" style="fill:rgb(88,89,91);fill-rule:nonzero;"/>
                    </g>
                    <g transform="matrix(1,0,0,1,216.861,135.824)">
                        <path d="M0,4.148C0,6.568 1.337,8.188 3.799,8.188C6.261,8.188 7.599,6.568 7.599,4.148L7.599,-5.25L8.872,-5.25L8.872,4.148C8.872,7.324 6.94,9.398 3.799,9.398C0.615,9.398 -1.273,7.346 -1.273,4.148L-1.273,-5.25L0,-5.25L0,4.148Z" style="fill:rgb(88,89,91);fill-rule:nonzero;"/>
                    </g>
                    <g transform="matrix(1,0,0,1,232.933,130.573)">
                        <path d="M0,14.411L0,1.166L-4.14,1.166L-4.14,0L5.434,0L5.434,1.166L1.273,1.166L1.273,14.411L0,14.411Z" style="fill:rgb(88,89,91);fill-rule:nonzero;"/>
                    </g>
                    <g transform="matrix(1,0,0,1,248.368,130.573)">
                        <path d="M0,14.411L0,0L6.559,0L6.559,1.166L1.273,1.166L1.273,6.438L6.324,6.438L6.324,7.561L1.273,7.561L1.273,14.411L0,14.411Z" style="fill:rgb(88,89,91);fill-rule:nonzero;"/>
                    </g>
                    <g transform="matrix(1,0,0,1,-7.10543e-15,61.73)">
                        <path d="M264.607,65.278L265.753,65.278L265.753,67.007L264.607,67.007L264.607,65.278ZM261.552,65.278L262.698,65.278L262.698,67.007L261.552,67.007L261.552,65.278ZM259.854,78.242C259.854,80.662 261.19,82.282 263.652,82.282C266.114,82.282 267.452,80.662 267.452,78.242L267.452,68.843L268.726,68.843L268.726,78.242C268.726,81.417 266.794,83.492 263.652,83.492C260.469,83.492 258.58,81.44 258.58,78.242L258.58,68.843L259.854,68.843L259.854,78.242Z" style="fill:rgb(88,89,91);fill-rule:nonzero;"/>
                    </g>
                    <g transform="matrix(1,0,0,1,274.715,138.589)">
                        <path d="M0,-1.62L1.485,-1.62C3.184,-1.62 5.051,-2.311 5.051,-4.321C5.051,-6.395 3.48,-6.849 1.57,-6.849L0,-6.849L0,-1.62ZM-1.273,6.396L-1.273,-8.016L2.122,-8.016C4.436,-8.016 6.389,-6.914 6.389,-4.278C6.389,-2.463 4.882,-1.21 3.205,-0.973C4.202,-0.778 4.627,-0.087 5.03,0.778L7.492,6.396L6.027,6.396L3.927,1.47C3.247,-0.064 2.865,-0.454 1.146,-0.454L0,-0.454L0,6.396L-1.273,6.396Z" style="fill:rgb(88,89,91);fill-rule:nonzero;"/>
                    </g>
                    <g transform="matrix(1,0,0,1,156.544,156.74)">
                        <path d="M0,12.077L1.188,12.077C5.349,12.077 7.98,10.306 7.98,5.833C7.98,2.009 5.772,-0.001 2.037,-0.001L0,-0.001L0,12.077ZM-1.273,13.244L-1.273,-1.167L1.995,-1.167C6.516,-1.167 9.317,1.187 9.317,5.833C9.317,11.018 5.942,13.244 1.21,13.244L-1.273,13.244Z" style="fill:rgb(88,89,91);fill-rule:nonzero;"/>
                    </g>
                    <g transform="matrix(1,0,0,1,-7.10543e-15,115.057)">
                        <rect x="168.434" y="40.516" width="1.273" height="14.411" style="fill:rgb(88,89,91);"/>
                    </g>
                    <g transform="matrix(1,0,0,1,183.866,156.22)">
                        <path d="M0,13.137C-1.423,13.721 -2.611,14.001 -4.14,14.001C-8.554,14.001 -11.504,10.998 -11.504,6.569C-11.504,2.27 -8.342,-0.864 -3.927,-0.864C-2.802,-0.864 -1.146,-0.626 -0.128,-0.107L-0.255,1.167C-1.358,0.563 -2.738,0.346 -3.99,0.346C-7.747,0.346 -10.167,3.026 -10.167,6.569C-10.167,10.264 -7.854,12.791 -4.118,12.791C-3.015,12.791 -2.208,12.662 -1.273,12.317L-1.273,7.11L-4.733,7.11L-4.733,5.964L0,5.964L0,13.137Z" style="fill:rgb(88,89,91);fill-rule:nonzero;"/>
                    </g>
                    <g transform="matrix(1,0,0,1,-7.10543e-15,115.057)">
                        <rect x="186.777" y="40.516" width="1.273" height="14.411" style="fill:rgb(88,89,91);"/>
                    </g>
                    <g transform="matrix(1,0,0,1,193.911,155.573)">
                        <path d="M0,14.411L0,1.166L-4.14,1.166L-4.14,0L5.434,0L5.434,1.166L1.273,1.166L1.273,14.411L0,14.411Z" style="fill:rgb(88,89,91);fill-rule:nonzero;"/>
                    </g>
                    <g transform="matrix(1,0,0,1,201.533,160.716)">
                        <path d="M0,4.126L6.304,4.126L3.162,-3.933L0,4.126ZM-3.227,9.269L2.483,-5.143L3.863,-5.143L9.594,9.269L8.277,9.269L6.75,5.272L-0.445,5.272L-2.017,9.269L-3.227,9.269Z" style="fill:rgb(88,89,91);fill-rule:nonzero;"/>
                    </g>
                    <g transform="matrix(1,0,0,1,212.765,155.573)">
                        <path d="M0,14.411L0,0L1.273,0L1.273,13.244L6.897,13.244L6.897,14.411L0,14.411Z" style="fill:rgb(88,89,91);fill-rule:nonzero;"/>
                    </g>
                    <g transform="matrix(1,0,0,1,221.555,155.573)">
                        <path d="M0,14.411L0,0L6.771,0L6.771,1.166L1.273,1.166L1.273,6.438L6.474,6.438L6.474,7.561L1.273,7.561L1.273,13.244L7.004,13.244L7.004,14.411L0,14.411Z" style="fill:rgb(88,89,91);fill-rule:nonzero;"/>
                    </g>
                    <g transform="matrix(1,0,0,1,236.352,155.573)">
                        <path d="M0,14.411L0,0L6.771,0L6.771,1.166L1.273,1.166L1.273,6.438L6.474,6.438L6.474,7.561L1.273,7.561L1.273,13.244L7.004,13.244L7.004,14.411L0,14.411Z" style="fill:rgb(88,89,91);fill-rule:nonzero;"/>
                    </g>
                    <g transform="matrix(1,0,0,1,248.368,155.573)">
                        <path d="M0,14.411L0,1.166L-4.14,1.166L-4.14,0L5.434,0L5.434,1.166L1.273,1.166L1.273,14.411L0,14.411Z" style="fill:rgb(88,89,91);fill-rule:nonzero;"/>
                    </g>
                    <g transform="matrix(1,0,0,1,255.523,155.573)">
                        <path d="M0,14.411L0,0L1.273,0L1.273,6.395L8.532,6.395L8.532,0L9.806,0L9.806,14.411L8.532,14.411L8.532,7.561L1.273,7.561L1.273,14.411L0,14.411Z" style="fill:rgb(88,89,91);fill-rule:nonzero;"/>
                    </g>
                    <g transform="matrix(1,0,0,1,-7.10543e-15,115.057)">
                        <rect x="268.708" y="40.516" width="1.273" height="14.411" style="fill:rgb(88,89,91);"/>
                    </g>
                    <g transform="matrix(1,0,0,1,273.357,155.573)">
                        <path d="M0,14.411L0,0L1.273,0L1.273,6.568L7.768,0L9.402,0L2.504,6.763L9.997,14.411L8.235,14.411L1.273,7.13L1.273,14.411L0,14.411Z" style="fill:rgb(88,89,91);fill-rule:nonzero;"/>
                    </g>
                </g>
            </g>
        </g>
    </g>
</svg>
