<?xml version="1.0" encoding="UTF-8" standalone="no"?><!DOCTYPE svg PUBLIC "-//W3C//DTD SVG 1.1//EN" "http://www.w3.org/Graphics/SVG/1.1/DTD/svg11.dtd"><svg width="100%" height="100%" viewBox="0 0 398 282" version="1.1" xmlns="http://www.w3.org/2000/svg" xmlns:xlink="http://www.w3.org/1999/xlink" xml:space="preserve" xmlns:serif="http://www.serif.com/" style="fill-rule:evenodd;clip-rule:evenodd;stroke-miterlimit:1;"><g id="IAAI-Logo-white" serif:id="IAAI Logo white"><g><g><path d="M219.435,154.316l17.121,-42.801l78.43,0l16.658,42.801l14.345,0l-62.467,-154.316l-15.039,0l-62.235,154.316l13.187,0Zm56.452,-141.36l34.241,86.297l-68.714,0l34.473,-86.297Z" style="fill:#fff;fill-rule:nonzero;"/><rect x="382.533" y="0" width="13.882" height="154.316" style="fill:#fff;fill-rule:nonzero;"/></g><g><path d="M178.393,154.316l-17.121,-42.801l-78.43,0l-16.658,42.801l-14.344,0l62.467,-154.316l15.038,0l62.235,154.316l-13.187,0Zm-56.451,-141.36l-34.242,86.297l68.714,0l-34.472,-86.297Z" style="fill:#fff;fill-rule:nonzero;"/><rect x="1.414" y="0" width="13.882" height="154.316" style="fill:#fff;fill-rule:nonzero;"/></g></g><g id="AI"><path d="M8.014,256.804l2.431,-6.444l11.378,0l2.357,6.444l4.198,0l-9.648,-24.562l-5.045,0l-9.574,24.562l3.903,0Zm8.139,-21.726l4.676,12.336l-9.39,0l4.714,-12.336Z" style="fill:#fff;fill-rule:nonzero;"/><path d="M37.584,256.804l0,-8.764c0,-2.836 0.921,-6.592 4.566,-6.592c0.553,0 1.031,0.037 1.51,0.221l0.184,-3.498c-0.552,-0.147 -0.994,-0.147 -1.546,-0.147c-2.394,0 -4.235,1.951 -5.009,3.903l-0.11,-3.535l-3.461,0c0.147,1.436 0.184,2.799 0.184,4.235l0,14.177l3.682,0Z" style="fill:#fff;fill-rule:nonzero;"/><path d="M59.237,253.858c-0.663,0.295 -1.326,0.442 -2.026,0.442c-1.878,0 -2.283,-1.363 -2.283,-2.946l0,-10.311l4.124,0l0,-2.651l-4.124,0l0,-5.192l-3.719,1.215l0,3.977l-3.388,0l0,2.651l3.388,0l0,9.869c0,3.572 0.736,6.297 4.677,6.297c1.141,0 2.393,-0.221 3.535,-0.626l-0.184,-2.725Z" style="fill:#fff;fill-rule:nonzero;"/><path d="M69.326,234.599l0,-3.572l-3.682,0l0,3.572l3.682,0Zm0,22.205l0,-18.412l-3.682,0l0,18.412l3.682,0Z" style="fill:#fff;fill-rule:nonzero;"/><path d="M82.73,256.804l0,-15.761l4.014,0l0,-2.651l-4.051,0l0,-2.209c0,-1.032 0.074,-3.572 2.578,-3.572c0.626,0 1.252,0.11 1.805,0.331l0.22,-2.651c-0.846,-0.332 -1.988,-0.405 -2.909,-0.405c-4.603,0 -5.413,3.351 -5.413,6.37l0,2.136l-3.498,0l0,2.651l3.498,0l0,15.761l3.756,0Z" style="fill:#fff;fill-rule:nonzero;"/><path d="M97.239,234.599l0,-3.572l-3.682,0l0,3.572l3.682,0Zm0,22.205l0,-18.412l-3.682,0l0,18.412l3.682,0Z" style="fill:#fff;fill-rule:nonzero;"/><path d="M118.192,253.6c-1.215,0.553 -2.283,0.81 -3.646,0.81c-4.345,0 -6.444,-3.203 -6.444,-6.886c0,-3.829 2.209,-6.738 6.223,-6.738c1.436,0 2.725,0.257 3.867,0.81l0.221,-2.946c-1.584,-0.553 -2.983,-0.626 -4.603,-0.626c-5.782,0 -9.685,3.793 -9.685,9.5c0,5.634 3.277,9.685 9.611,9.685c1.731,0 3.167,-0.147 4.64,-0.7l-0.184,-2.909Z" style="fill:#fff;fill-rule:nonzero;"/><path d="M128.687,234.599l0,-3.572l-3.683,0l0,3.572l3.683,0Zm0,22.205l0,-18.412l-3.683,0l0,18.412l3.683,0Z" style="fill:#fff;fill-rule:nonzero;"/><path d="M147.099,247.782l0,0.994c0,3.094 -1.436,5.745 -4.787,5.745c-1.952,0 -3.351,-0.884 -3.351,-2.983c0,-3.24 3.498,-3.756 7.143,-3.756l0.995,0Zm3.829,9.022c-0.147,-1.289 -0.221,-2.504 -0.221,-4.087l0,-7.697c0,-4.971 -2.725,-6.996 -7.475,-6.996c-1.878,0 -4.235,0.515 -5.965,1.215l0.221,2.835c1.657,-1.031 3.535,-1.473 5.413,-1.473c2.909,0 4.198,1.473 4.198,4.162l0,0.773c-0.553,-0.037 -1.584,-0.037 -2.063,-0.037c-5.413,0 -9.721,1.473 -9.721,6.26c0,3.83 2.799,5.45 6.113,5.45c2.651,0 4.64,-1.252 5.781,-3.314l0.111,2.909l3.608,0Z" style="fill:#fff;fill-rule:nonzero;"/><rect x="158.661" y="230.254" width="3.682" height="26.55" style="fill:#fff;fill-rule:nonzero;"/><rect x="184.033" y="232.242" width="4.014" height="24.562" style="fill:#fff;fill-rule:nonzero;"/><path d="M200.125,256.804l0,-10.016c0,-2.909 1.068,-5.892 4.493,-5.892c3.13,0 3.645,2.467 3.645,5.045l0,10.863l3.72,0l0,-11.636c0,-4.272 -1.621,-7.144 -6.187,-7.144c-2.688,0 -4.677,1.178 -5.965,3.535l-0.111,-3.167l-3.461,0c0.147,1.436 0.184,2.799 0.184,4.235l0,14.177l3.682,0Z" style="fill:#fff;fill-rule:nonzero;"/><path d="M229.4,253.858c-0.663,0.295 -1.325,0.442 -2.025,0.442c-1.878,0 -2.283,-1.363 -2.283,-2.946l0,-10.311l4.124,0l0,-2.651l-4.124,0l0,-5.192l-3.719,1.215l0,3.977l-3.388,0l0,2.651l3.388,0l0,9.869c0,3.572 0.736,6.297 4.676,6.297c1.142,0 2.394,-0.221 3.535,-0.626l-0.184,-2.725Z" style="fill:#fff;fill-rule:nonzero;"/><path d="M238.459,246.125c0.11,-2.651 1.583,-5.56 4.713,-5.56c3.315,0 4.125,2.761 4.125,5.56l-8.838,0Zm12.373,2.283l0,-1.105c0,-5.192 -1.915,-9.279 -7.696,-9.279c-5.303,0 -8.433,4.455 -8.433,9.5c0,5.745 3.204,9.685 9.427,9.685c2.025,0 3.977,-0.295 5.708,-0.994l-0.221,-2.725c-1.473,0.773 -3.315,1.141 -4.972,1.141c-4.05,0 -6.149,-2.835 -6.149,-6.223l12.336,0Z" style="fill:#fff;fill-rule:nonzero;"/><rect x="257.534" y="230.254" width="3.682" height="26.55" style="fill:#fff;fill-rule:nonzero;"/><rect x="269.244" y="230.254" width="3.682" height="26.55" style="fill:#fff;fill-rule:nonzero;"/><path d="M284.599,234.599l0,-3.572l-3.682,0l0,3.572l3.682,0Zm0,22.205l0,-18.412l-3.682,0l0,18.412l3.682,0Z" style="fill:#fff;fill-rule:nonzero;"/><path d="M292.958,264.169c2.063,0.626 4.162,0.994 6.261,0.994c6.149,0 9.132,-3.388 9.132,-9.39l0,-17.381l-3.535,0l0,3.056c-1.179,-2.356 -3.241,-3.424 -5.782,-3.424c-5.45,0 -7.548,4.603 -7.548,9.5c0,4.567 2.062,9.28 7.475,9.28c2.357,0 4.529,-1.178 5.708,-3.204l0,2.173c0,3.94 -1.731,6.591 -6.003,6.591c-1.915,0 -3.866,-0.478 -5.487,-1.325l-0.221,3.13Zm3.425,-12.299c-0.7,-1.289 -0.92,-2.873 -0.92,-4.309c0,-3.093 0.81,-6.702 4.639,-6.702c3.572,0 4.677,3.756 4.677,6.702c0,2.799 -1.178,6.408 -4.713,6.408c-1.879,0 -2.983,-0.884 -3.683,-2.099Z" style="fill:#fff;fill-rule:nonzero;"/><path d="M318.993,246.125c0.111,-2.651 1.583,-5.56 4.714,-5.56c3.314,0 4.124,2.761 4.124,5.56l-8.838,0Zm12.373,2.283l0,-1.105c0,-5.192 -1.915,-9.279 -7.696,-9.279c-5.303,0 -8.433,4.455 -8.433,9.5c0,5.745 3.204,9.685 9.427,9.685c2.025,0 3.977,-0.295 5.708,-0.994l-0.221,-2.725c-1.473,0.773 -3.314,1.141 -4.972,1.141c-4.05,0 -6.149,-2.835 -6.149,-6.223l12.336,0Z" style="fill:#fff;fill-rule:nonzero;"/><path d="M341.75,256.804l0,-10.016c0,-2.909 1.068,-5.892 4.493,-5.892c3.13,0 3.645,2.467 3.645,5.045l0,10.863l3.72,0l0,-11.636c0,-4.272 -1.621,-7.144 -6.187,-7.144c-2.688,0 -4.676,1.178 -5.965,3.535l-0.111,-3.167l-3.461,0c0.147,1.436 0.184,2.799 0.184,4.235l0,14.177l3.682,0Z" style="fill:#fff;fill-rule:nonzero;"/><path d="M374.56,253.6c-1.215,0.553 -2.283,0.81 -3.645,0.81c-4.345,0 -6.444,-3.203 -6.444,-6.886c0,-3.829 2.209,-6.738 6.223,-6.738c1.436,0 2.725,0.257 3.866,0.81l0.221,-2.946c-1.583,-0.553 -2.982,-0.626 -4.603,-0.626c-5.781,0 -9.684,3.793 -9.684,9.5c0,5.634 3.277,9.685 9.611,9.685c1.73,0 3.167,-0.147 4.64,-0.7l-0.185,-2.909Z" style="fill:#fff;fill-rule:nonzero;"/><path d="M384.024,246.125c0.111,-2.651 1.584,-5.56 4.714,-5.56c3.314,0 4.124,2.761 4.124,5.56l-8.838,0Zm12.373,2.283l0,-1.105c0,-5.192 -1.915,-9.279 -7.696,-9.279c-5.303,0 -8.433,4.455 -8.433,9.5c0,5.745 3.204,9.685 9.427,9.685c2.025,0 3.977,-0.295 5.708,-0.994l-0.221,-2.725c-1.473,0.773 -3.314,1.141 -4.971,1.141c-4.051,0 -6.15,-2.835 -6.15,-6.223l12.336,0Z" style="fill:#fff;fill-rule:nonzero;"/></g><g id="IA"><rect x="4.111" y="191.036" width="4.188" height="25.625" style="fill:#fff;fill-rule:nonzero;"/><path d="M20.9,216.661l0,-10.45c0,-3.035 1.114,-6.147 4.687,-6.147c3.265,0 3.803,2.574 3.803,5.263l0,11.334l3.88,0l0,-12.141c0,-4.456 -1.69,-7.453 -6.454,-7.453c-2.804,0 -4.879,1.23 -6.224,3.689l-0.115,-3.304l-3.611,0c0.154,1.498 0.192,2.919 0.192,4.418l0,14.791l3.842,0Z" style="fill:#fff;fill-rule:nonzero;"/><path d="M40.531,216.276c1.883,0.615 3.42,0.807 5.302,0.807c3.534,0 7.338,-1.652 7.338,-5.839c0,-6.531 -8.683,-5.34 -8.683,-9.029c0,-1.997 1.768,-2.42 3.458,-2.42c1.46,0 2.881,0.307 4.303,0.884l0.23,-2.805c-1.498,-0.576 -2.996,-0.807 -4.725,-0.807c-3.381,0 -6.992,1.268 -6.992,5.34c0,6.032 8.605,4.726 8.605,9.067c0,2.113 -1.613,2.881 -3.649,2.881c-1.806,0 -3.304,-0.345 -4.956,-1.152l-0.231,3.073Z" style="fill:#fff;fill-rule:nonzero;"/><path d="M70.382,213.587c-0.691,0.307 -1.383,0.461 -2.113,0.461c-1.959,0 -2.382,-1.421 -2.382,-3.073l0,-10.757l4.303,0l0,-2.766l-4.303,0l0,-5.417l-3.88,1.267l0,4.15l-3.534,0l0,2.766l3.534,0l0,10.296c0,3.726 0.768,6.569 4.879,6.569c1.191,0 2.497,-0.23 3.688,-0.653l-0.192,-2.843Z" style="fill:#fff;fill-rule:nonzero;"/><path d="M80.909,193.495l0,-3.727l-3.842,0l0,3.727l3.842,0Zm0,23.166l0,-19.209l-3.842,0l0,19.209l3.842,0Z" style="fill:#fff;fill-rule:nonzero;"/><path d="M99.08,213.587c-0.691,0.307 -1.383,0.461 -2.113,0.461c-1.959,0 -2.382,-1.421 -2.382,-3.073l0,-10.757l4.303,0l0,-2.766l-4.303,0l0,-5.417l-3.88,1.267l0,4.15l-3.534,0l0,2.766l3.534,0l0,10.296c0,3.726 0.769,6.569 4.879,6.569c1.191,0 2.497,-0.23 3.688,-0.653l-0.192,-2.843Z" style="fill:#fff;fill-rule:nonzero;"/><path d="M109.53,197.452l-3.842,0l0,12.101c0,4.418 1.652,7.53 6.416,7.53c2.805,0 4.841,-1.229 6.185,-3.688l0.116,3.266l3.611,0c-0.154,-1.499 -0.192,-2.92 -0.192,-4.419l0,-14.79l-3.842,0l0,10.449c0,3.035 -1.114,6.147 -4.649,6.147c-3.265,0 -3.803,-2.612 -3.803,-5.302l0,-11.294Z" style="fill:#fff;fill-rule:nonzero;"/><path d="M139.995,213.587c-0.691,0.307 -1.383,0.461 -2.113,0.461c-1.959,0 -2.381,-1.421 -2.381,-3.073l0,-10.757l4.302,0l0,-2.766l-4.302,0l0,-5.417l-3.881,1.267l0,4.15l-3.534,0l0,2.766l3.534,0l0,10.296c0,3.726 0.769,6.569 4.879,6.569c1.191,0 2.498,-0.23 3.689,-0.653l-0.193,-2.843Z" style="fill:#fff;fill-rule:nonzero;"/><path d="M149.446,205.519c0.116,-2.766 1.652,-5.801 4.918,-5.801c3.457,0 4.303,2.882 4.303,5.801l-9.221,0Zm12.909,2.382l0,-1.152c0,-5.417 -1.998,-9.682 -8.03,-9.682c-5.532,0 -8.797,4.649 -8.797,9.912c0,5.993 3.342,10.104 9.835,10.104c2.113,0 4.149,-0.307 5.954,-1.037l-0.23,-2.843c-1.537,0.807 -3.458,1.191 -5.186,1.191c-4.226,0 -6.416,-2.958 -6.416,-6.493l12.87,0Z" style="fill:#fff;fill-rule:nonzero;"/><path d="M188.863,216.661l0,-16.443l4.188,0l0,-2.766l-4.226,0l0,-2.306c0,-1.075 0.077,-3.726 2.689,-3.726c0.653,0 1.306,0.115 1.882,0.346l0.231,-2.766c-0.884,-0.346 -2.075,-0.423 -3.035,-0.423c-4.802,0 -5.647,3.496 -5.647,6.646l0,2.229l-3.65,0l0,2.766l3.65,0l0,16.443l3.918,0Z" style="fill:#fff;fill-rule:nonzero;"/><path d="M203.462,216.353c1.191,0.5 2.536,0.73 4.072,0.73c6.07,0 9.451,-4.264 9.451,-10.104c0,-5.993 -3.381,-9.912 -9.451,-9.912c-5.724,0 -9.451,4.073 -9.451,9.912c0,4.38 1.883,7.837 5.379,9.374Zm-0.038,-4.456c-0.807,-1.383 -1.191,-3.189 -1.191,-4.918c0,-3.381 1.459,-7.03 5.301,-7.03c3.957,0 5.302,3.611 5.302,7.03c0,3.535 -1.46,7.184 -5.302,7.184c-1.959,0 -3.227,-0.922 -4.11,-2.266Z" style="fill:#fff;fill-rule:nonzero;"/><path d="M228.049,216.661l0,-9.144c0,-2.958 0.961,-6.877 4.764,-6.877c0.577,0 1.076,0.039 1.575,0.231l0.193,-3.65c-0.577,-0.154 -1.038,-0.154 -1.614,-0.154c-2.497,0 -4.418,2.037 -5.225,4.073l-0.115,-3.688l-3.611,0c0.153,1.498 0.192,2.919 0.192,4.418l0,14.791l3.841,0Z" style="fill:#fff;fill-rule:nonzero;"/><path d="M256.171,216.661l2.536,-6.724l11.871,0l2.459,6.724l4.38,0l-10.066,-25.625l-5.263,0l-9.989,25.625l4.072,0Zm8.491,-22.667l4.879,12.87l-9.797,0l4.918,-12.87Z" style="fill:#fff;fill-rule:nonzero;"/><path d="M287.021,224.959l0,-11.41c0.961,2.305 3.342,3.534 5.801,3.534c5.801,0 7.953,-5.033 7.953,-10.104c0,-5.109 -2.036,-9.912 -7.876,-9.912c-2.497,0 -5.071,1.383 -6.108,3.689l-0.154,-3.304l-3.65,0c0.115,1.882 0.192,3.803 0.192,6.07l0,21.437l3.842,0Zm0.922,-13.254c-0.768,-1.422 -1.037,-3.189 -1.037,-4.726c0,-3.073 1.229,-6.953 4.917,-6.953c3.957,0 4.803,3.765 4.803,6.953c0,3.189 -0.961,7.146 -4.841,7.146c-1.844,0 -3.074,-1.037 -3.842,-2.42Z" style="fill:#fff;fill-rule:nonzero;"/><path d="M311.801,224.959l0,-11.41c0.96,2.305 3.342,3.534 5.801,3.534c5.801,0 7.952,-5.033 7.952,-10.104c0,-5.109 -2.036,-9.912 -7.875,-9.912c-2.498,0 -5.072,1.383 -6.109,3.689l-0.153,-3.304l-3.65,0c0.115,1.882 0.192,3.803 0.192,6.07l0,21.437l3.842,0Zm0.922,-13.254c-0.769,-1.422 -1.038,-3.189 -1.038,-4.726c0,-3.073 1.23,-6.953 4.918,-6.953c3.957,0 4.802,3.765 4.802,6.953c0,3.189 -0.96,7.146 -4.84,7.146c-1.845,0 -3.074,-1.037 -3.842,-2.42Z" style="fill:#fff;fill-rule:nonzero;"/><rect x="332.738" y="188.961" width="3.842" height="27.699" style="fill:#fff;fill-rule:nonzero;"/><path d="M348.759,193.495l0,-3.727l-3.842,0l0,3.727l3.842,0Zm0,23.166l0,-19.209l-3.842,0l0,19.209l3.842,0Z" style="fill:#fff;fill-rule:nonzero;"/><path d="M359.862,205.519c0.115,-2.766 1.652,-5.801 4.917,-5.801c3.458,0 4.303,2.882 4.303,5.801l-9.22,0Zm12.908,2.382l0,-1.152c0,-5.417 -1.998,-9.682 -8.029,-9.682c-5.533,0 -8.798,4.649 -8.798,9.912c0,5.993 3.342,10.104 9.835,10.104c2.113,0 4.149,-0.307 5.955,-1.037l-0.231,-2.843c-1.536,0.807 -3.457,1.191 -5.186,1.191c-4.226,0 -6.416,-2.958 -6.416,-6.493l12.87,0Z" style="fill:#fff;fill-rule:nonzero;"/><path d="M396.397,216.661c-0.115,-1.806 -0.192,-3.612 -0.192,-5.763l0,-21.937l-3.842,0l0,11.679c-0.96,-2.305 -3.381,-3.573 -5.801,-3.573c-5.801,0 -7.952,4.803 -7.952,9.912c0,5.071 2.151,10.104 7.952,10.104c2.651,0 4.841,-1.152 6.032,-3.611l0.23,3.189l3.573,0Zm-12.678,-4.918c-0.73,-1.383 -0.96,-3.15 -0.96,-4.725c0,-3.227 0.845,-6.992 4.802,-6.992c3.688,0 4.917,3.918 4.917,6.992c0,3.035 -1.152,7.107 -4.879,7.107c-1.959,0 -3.15,-0.999 -3.88,-2.382Z" style="fill:#fff;fill-rule:nonzero;"/></g><path id="Line" d="M1.414,169.816l394.983,0" style="fill:none;stroke:#fff;stroke-width:2px;"/><path id="Line1" serif:id="Line" d="M1.414,279.962l394.983,0" style="fill:none;stroke:#fff;stroke-width:2px;"/></g></svg>