<?xml version="1.0" encoding="UTF-8" standalone="no"?>
<!DOCTYPE svg PUBLIC "-//W3C//DTD SVG 1.1//EN" "http://www.w3.org/Graphics/SVG/1.1/DTD/svg11.dtd">
<svg width="100%" height="100%" viewBox="0 0 2416 2416" version="1.1" xmlns="http://www.w3.org/2000/svg" xmlns:xlink="http://www.w3.org/1999/xlink" xml:space="preserve" xmlns:serif="http://www.serif.com/" style="fill-rule:evenodd;clip-rule:evenodd;stroke-linecap:round;stroke-linejoin:round;stroke-miterlimit:1.5;">
    <g transform="matrix(0.48,0,0,0.48,-7849.7,0)">
        <g id="WEb-Event" serif:id="WEb Event" transform="matrix(2.00943,0,0,2.00943,16353.5,0)">
            <rect x="0" y="0" width="2503.94" height="2503.94" style="fill:none;"/>
            <clipPath id="_clip1">
                <rect x="0" y="0" width="2503.94" height="2503.94"/>
            </clipPath>
            <g clip-path="url(#_clip1)">
                <g id="Background" transform="matrix(1,0,0,1.40845,0,0)">
                    <g transform="matrix(0.497653,0,0,0.353333,-8138.39,0)">
                        <rect x="16353.5" y="0" width="5031.5" height="5031.5" style="fill:white;"/>
                    </g>
                    <g id="v" transform="matrix(0.695169,0.284963,-0.248554,0.305661,617.557,-835.439)">
                        <rect x="0" y="0" width="5031.5" height="7086.61" style="fill:url(#_Linear2);"/>
                    </g>
                </g>
                <g id="HdM-Logo" serif:id="HdM Logo" transform="matrix(0.414562,0,0,0.414562,1780.48,-550.911)">
                    <g>
                        <g transform="matrix(6.71565,0,0,6.71565,968.068,1422.94)">
                            <rect x="4.948" y="4.472" width="5.838" height="40.868" style="fill:white;fill-rule:nonzero;"/>
                            <rect x="18.292" y="19.485" width="5.838" height="25.855" style="fill:white;fill-rule:nonzero;"/>
                            <rect x="34.139" y="19.485" width="5.839" height="25.855" style="fill:white;fill-rule:nonzero;"/>
                            <rect x="47.483" y="4.472" width="5.839" height="40.868" style="fill:white;fill-rule:nonzero;"/>
                            <rect x="63.33" y="19.485" width="5.838" height="25.855" style="fill:white;fill-rule:nonzero;"/>
                            <rect x="76.674" y="19.485" width="5.838" height="25.855" style="fill:white;fill-rule:nonzero;"/>
                            <rect x="90.019" y="19.485" width="5.838" height="25.855" style="fill:white;fill-rule:nonzero;"/>
                        </g>
                        <g transform="matrix(6.71565,0,0,6.71565,968.068,1422.94)">
                            <path d="M6.839,60.613L10.563,60.613L10.563,67.274L12.454,67.274L12.454,52.913L10.563,52.913L10.563,58.954L6.839,58.954L6.839,52.913L4.948,52.913L4.948,67.274L6.839,67.274L6.839,60.613Z" style="fill:white;fill-rule:nonzero;"/>
                            <path d="M18.382,52.719C15.634,52.719 14.241,55.2 14.241,60.093C14.241,64.986 15.634,67.467 18.382,67.467C21.13,67.467 22.523,64.986 22.523,60.093C22.523,55.2 21.13,52.719 18.382,52.719ZM18.382,65.809C17.416,65.809 16.132,65.216 16.132,60.093C16.132,54.97 17.416,54.378 18.382,54.378C19.347,54.378 20.631,54.97 20.631,60.093C20.631,65.216 19.348,65.809 18.382,65.809Z" style="fill:white;fill-rule:nonzero;"/>
                            <path d="M28.16,67.467C30.641,67.467 32.087,65.634 32.126,62.438L32.129,62.246L30.238,62.246L30.236,62.434C30.201,64.768 29.561,65.809 28.161,65.809C26.473,65.809 25.814,64.206 25.814,60.093C25.814,55.98 26.472,54.378 28.161,54.378C29.267,54.378 29.866,55.319 30.043,57.341L30.059,57.514L31.949,57.514L31.932,57.309C31.699,54.306 30.394,52.719 28.161,52.719C25.309,52.719 23.924,55.131 23.924,60.093C23.923,65.056 25.309,67.467 28.16,67.467Z" style="fill:white;fill-rule:nonzero;"/>
                            <path d="M41.498,67.274L41.498,52.913L39.606,52.913L39.606,58.954L35.882,58.954L35.882,52.913L33.991,52.913L33.991,67.274L35.882,67.274L35.882,60.613L39.606,60.613L39.606,67.274L41.498,67.274Z" style="fill:white;fill-rule:nonzero;"/>
                            <path d="M47.336,58.96C46.073,58.105 44.982,57.365 44.982,56.027C44.982,55.041 45.676,54.378 46.709,54.378C47.883,54.378 48.543,55.166 48.669,56.72L48.683,56.895L50.453,56.895L50.444,56.696C50.325,54.206 48.965,52.719 46.807,52.719C44.678,52.719 43.247,54.103 43.247,56.162C43.247,58.37 44.838,59.481 46.376,60.557C47.655,61.452 48.862,62.296 48.862,63.694C48.862,65.018 48.158,65.808 46.981,65.808C45.655,65.808 44.905,64.925 44.867,63.321L44.863,63.135L43.089,63.135L43.092,63.328C43.134,65.841 44.599,67.465 46.826,67.465C49.223,67.465 50.598,66.097 50.598,63.712C50.598,61.169 48.865,59.996 47.336,58.96Z" style="fill:white;fill-rule:nonzero;"/>
                            <path d="M58.193,62.434C58.158,64.768 57.518,65.809 56.118,65.809C54.43,65.809 53.772,64.206 53.772,60.093C53.772,55.98 54.43,54.378 56.118,54.378C57.224,54.378 57.823,55.319 58,57.341L58.015,57.514L59.905,57.514L59.889,57.309C59.655,54.306 58.35,52.719 56.117,52.719C53.265,52.719 51.88,55.131 51.88,60.093C51.88,65.055 53.266,67.467 56.117,67.467C58.597,67.467 60.043,65.634 60.083,62.438L60.085,62.246L58.194,62.246L58.193,62.434Z" style="fill:white;fill-rule:nonzero;"/>
                            <path d="M63.841,60.613L67.565,60.613L67.565,67.274L69.456,67.274L69.456,52.913L67.565,52.913L67.565,58.954L63.841,58.954L63.841,52.913L61.95,52.913L61.95,67.274L63.841,67.274L63.841,60.613Z" style="fill:white;fill-rule:nonzero;"/>
                            <path d="M79.104,63.405L79.104,52.913L77.212,52.913L77.212,63.366C77.212,65.056 76.638,65.81 75.35,65.81C74.063,65.81 73.488,65.057 73.488,63.366L73.488,52.913L71.597,52.913L71.597,63.405C71.597,66.025 72.93,67.467 75.35,67.467C77.771,67.467 79.104,66.024 79.104,63.405Z" style="fill:white;fill-rule:nonzero;"/>
                            <path d="M87.745,65.615L83.214,65.615L83.214,52.913L81.323,52.913L81.323,67.274L87.745,67.274L87.745,65.615Z" style="fill:white;fill-rule:nonzero;"/>
                            <path d="M90.746,65.615L90.746,60.613L94.348,60.613L94.348,58.954L90.746,58.954L90.746,54.571L95.625,54.571L95.625,52.913L88.855,52.913L88.855,67.274L95.858,67.274L95.858,65.615L90.746,65.615Z" style="fill:white;fill-rule:nonzero;"/>
                            <path d="M7.733,71.482L4.948,71.482L4.948,85.843L7.733,85.843C11.132,85.843 12.648,83.628 12.648,78.662C12.648,73.696 11.132,71.482 7.733,71.482ZM6.839,73.141L7.462,73.141C9.549,73.141 10.757,74.044 10.757,78.662C10.757,83.281 9.549,84.184 7.462,84.184L6.839,84.184L6.839,73.141Z" style="fill:white;fill-rule:nonzero;"/>
                            <path d="M17.386,79.182L20.987,79.182L20.987,77.523L17.386,77.523L17.386,73.141L22.265,73.141L22.265,71.482L15.495,71.482L15.495,85.843L22.498,85.843L22.498,84.184L17.386,84.184L17.386,79.182Z" style="fill:white;fill-rule:nonzero;"/>
                            <path d="M32.996,75.293C32.996,72.978 31.416,71.481 28.972,71.481L25.412,71.481L25.412,85.842L27.303,85.842L27.303,79.289L28.953,79.224L31.154,85.712L31.197,85.841L33.187,85.841L30.799,78.831C32.217,78.263 32.996,77.01 32.996,75.293ZM27.303,73.141L28.429,73.141C30.355,73.141 31.105,73.766 31.105,75.371C31.105,76.975 30.355,77.6 28.429,77.6L27.303,77.6L27.303,73.141Z" style="fill:white;fill-rule:nonzero;"/>
                            <path d="M44.475,79.547L42.164,71.482L39.431,71.482L39.431,85.843L41.201,85.843L41.201,74.365L43.802,82.954L45.093,82.954L47.694,74.365L47.694,85.843L49.464,85.843L49.464,71.482L46.73,71.482L44.475,79.547Z" style="fill:white;fill-rule:nonzero;"/>
                            <path d="M54.474,79.182L58.074,79.182L58.074,77.523L54.474,77.523L54.474,73.141L59.352,73.141L59.352,71.482L52.583,71.482L52.583,85.843L59.584,85.843L59.584,84.184L54.474,84.184L54.474,79.182Z" style="fill:white;fill-rule:nonzero;"/>
                            <path d="M65.234,71.482L62.448,71.482L62.448,85.843L65.234,85.843C68.633,85.843 70.148,83.628 70.148,78.662C70.148,73.696 68.633,71.482 65.234,71.482ZM64.339,73.141L64.963,73.141C67.05,73.141 68.258,74.044 68.258,78.662C68.258,83.281 67.05,84.184 64.963,84.184L64.339,84.184L64.339,73.141Z" style="fill:white;fill-rule:nonzero;"/>
                            <rect x="73.001" y="71.482" width="1.891" height="14.361" style="fill:white;"/>
                            <path d="M79.989,79.182L83.59,79.182L83.59,77.523L79.989,77.523L79.989,73.141L84.869,73.141L84.869,71.482L78.098,71.482L78.098,85.843L85.101,85.843L85.101,84.184L79.989,84.184L79.989,79.182Z" style="fill:white;fill-rule:nonzero;"/>
                            <path d="M93.961,80.963L90.646,71.482L87.981,71.482L87.981,85.843L89.849,85.843L89.849,74.484L93.9,85.843L95.852,85.843L95.852,71.482L93.961,71.482L93.961,80.963Z" style="fill:white;fill-rule:nonzero;"/>
                        </g>
                    </g>
                </g>
                <g id="RNN" transform="matrix(-1.12293,3.95981,3.89504,1.12661,-4871.08,3629.84)">
                    <g transform="matrix(0.524838,0,0,0.524838,-1914.04,588.797)">
                        <path d="M1356.05,1161.16C1316.4,1161.16 1284.25,1193.31 1284.25,1232.97C1284.25,1272.6 1316.42,1304.77 1356.05,1304.77C1395.68,1304.77 1427.86,1272.6 1427.86,1232.97C1427.86,1226.69 1427.04,1220.44 1425.41,1214.38C1427.04,1220.44 1427.86,1226.69 1427.86,1232.97C1427.86,1272.6 1395.68,1304.77 1356.05,1304.77C1316.42,1304.77 1284.25,1272.6 1284.25,1232.97C1284.25,1193.31 1316.4,1161.16 1356.05,1161.16Z" style="fill:none;stroke:white;stroke-width:0.96px;"/>
                    </g>
                    <g transform="matrix(0.289764,0,0,0.289764,-1291.27,869.539)">
                        <circle cx="377.081" cy="1136.46" r="70.148" style="fill:none;stroke:white;stroke-width:1.75px;stroke-linecap:butt;stroke-miterlimit:1.41421;"/>
                    </g>
                    <g transform="matrix(0.960508,-0.278253,0.278253,0.960508,-2795.58,417.375)">
                        <path d="M1340.43,1220.2L1345.46,1230.27L1335.39,1230.27L1340.43,1220.2Z" style="fill:none;stroke:white;stroke-width:0.5px;"/>
                    </g>
                    <g transform="matrix(-0.40404,0.699818,0.866025,0.5,-1750.48,-245.702)">
                        <path d="M1104.92,1215.51L1337.96,1215.51" style="fill:none;stroke:white;stroke-width:0.56px;"/>
                    </g>
                </g>
                <g id="Text" transform="matrix(1,0,0,1.40845,0,-432.958)">
                    <g id="Date" transform="matrix(1.11201,0,0,1.11201,-141.893,-591.108)">
                        <g transform="matrix(1.11054,0,0,1.00463,64.2025,1347.96)">
                            <path d="M424.262,866.828L1717.5,866.828" style="fill:none;stroke:rgb(237,235,234);stroke-width:2.2px;stroke-linecap:square;"/>
                        </g>
                        <g transform="matrix(1.11054,0,0,1.00463,64.2025,1443.63)">
                            <path d="M424.262,866.828L1717.5,866.828" style="fill:none;stroke:rgb(237,235,234);stroke-width:2.2px;stroke-linecap:square;"/>
                        </g>
                        <g transform="matrix(0.519676,0,0,0.35942,-8515.7,789.405)">
                            <g transform="matrix(0.974119,0,0,1,451.065,0)">
                                <path d="M17449.2,4149.55L17458,4125.19L17499.4,4125.19L17508,4149.55L17530.5,4149.55L17493.3,4052.28L17465,4052.28L17428,4149.55L17449.2,4149.55ZM17478.8,4065.99L17494.9,4110.47L17462.4,4110.47L17478.8,4065.99Z" style="fill:white;fill-rule:nonzero;"/>
                            </g>
                            <g transform="matrix(0.974119,0,0,1,451.065,0)">
                                <path d="M17577,4181.05L17577,4137.74C17580.6,4146.49 17589.4,4151.15 17598.7,4151.15C17621.2,4151.15 17629.5,4132.34 17629.5,4112.65C17629.5,4093.11 17621.3,4074.88 17599.2,4074.88C17589.4,4074.88 17579.8,4079.84 17575.7,4088.74L17575.2,4076.34L17556.1,4076.34C17556.6,4082.61 17556.9,4088.88 17556.9,4097.63L17556.9,4181.05L17577,4181.05ZM17579.6,4128.69C17577.3,4123.88 17576.4,4117.76 17576.4,4112.65C17576.4,4102.59 17579.6,4089.03 17592.3,4089.03C17605.6,4089.03 17607.9,4102.15 17607.9,4112.65C17607.9,4123.15 17605.4,4137.01 17592.2,4137.01C17585.9,4137.01 17582,4133.36 17579.6,4128.69Z" style="fill:white;fill-rule:nonzero;"/>
                            </g>
                            <g transform="matrix(0.974119,0,0,1,451.065,0)">
                                <path d="M17681.3,4149.55L17681.3,4116.88C17681.3,4105.51 17685.9,4092.53 17699.3,4092.53C17701.5,4092.53 17703.7,4092.82 17705.6,4093.55L17706.2,4075.47C17704.3,4074.88 17702.6,4074.74 17700.4,4074.74C17690.5,4074.74 17683.3,4082.61 17679.8,4090.63L17679.4,4076.49L17660.4,4076.49C17661,4081.88 17661.1,4087.28 17661.1,4092.67L17661.1,4149.55L17681.3,4149.55Z" style="fill:white;fill-rule:nonzero;"/>
                            </g>
                            <g transform="matrix(0.974119,0,0,1,451.065,0)">
                                <path d="M17754.9,4062.78L17754.9,4046.59L17734.8,4046.59L17734.8,4062.78L17754.9,4062.78ZM17754.9,4149.55L17754.9,4076.34L17734.8,4076.34L17734.8,4149.55L17754.9,4149.55Z" style="fill:white;fill-rule:nonzero;"/>
                            </g>
                            <g transform="matrix(0.974119,0,0,1,451.065,0)">
                                <rect x="17790.6" y="4044.4" width="20.125" height="105.146" style="fill:white;fill-rule:nonzero;"/>
                            </g>
                            <g transform="matrix(0.974119,0,0,1,451.065,0)">
                                <path d="M17973.1,4149.55L17973.1,4134.67L17928.6,4134.67L17949.9,4115.13C17964.3,4101.86 17971.9,4092.09 17971.9,4078.82C17971.9,4058.11 17954.1,4050.82 17936,4050.82C17926,4050.82 17916.6,4053.44 17907.3,4056.8L17908,4072.55C17915.5,4069.05 17923.6,4066.13 17932.2,4066.13C17941.6,4066.13 17950.9,4070.8 17950.9,4081.3C17950.9,4088.15 17947.3,4094.86 17937.2,4104.05L17904.5,4133.94L17904.5,4149.55L17973.1,4149.55Z" style="fill:white;fill-rule:nonzero;"/>
                            </g>
                            <g transform="matrix(0.974119,0,0,1,451.065,0)">
                                <path d="M18010,4147.36C18018.1,4150.13 18027.6,4151.15 18036.4,4151.15C18056.8,4151.15 18077.6,4140.51 18077.6,4117.76C18077.6,4096.17 18061.3,4088.88 18043.1,4088.88C18039.4,4088.88 18035.2,4089.03 18031.3,4090.05L18032.3,4066.72L18073,4066.72L18073,4052.28L18013.5,4052.28L18012.5,4104.78C18019.9,4102.59 18026.7,4101.57 18033,4101.57C18045.4,4101.57 18056.2,4105.36 18056.2,4118.05C18056.2,4131.47 18045.6,4135.99 18032.9,4135.99C18025.4,4135.99 18017.7,4134.82 18010.8,4132.05L18010,4147.36Z" style="fill:white;fill-rule:nonzero;"/>
                            </g>
                            <g transform="matrix(0.974119,0,0,1,451.065,0)">
                                <path d="M18156,4134.97C18153.3,4135.99 18150.7,4136.57 18147.9,4136.57C18140.8,4136.57 18139.2,4131.76 18139.2,4125.49L18139.2,4089.61L18155.5,4089.61L18155.5,4076.34L18139.2,4076.34L18139.2,4054.9L18119.1,4061.47L18119.1,4076.34L18105.9,4076.34L18105.9,4089.61L18119.1,4089.61L18119.1,4125.19C18119.1,4140.51 18123,4151.15 18139.8,4151.15C18145.5,4151.15 18151.3,4150.13 18156.5,4148.38L18156,4134.97Z" style="fill:white;fill-rule:nonzero;"/>
                            </g>
                            <g transform="matrix(0.974119,0,0,1,451.065,0)">
                                <path d="M18206.4,4149.55L18206.4,4109.01C18206.4,4099.53 18209.9,4089.32 18221,4089.32C18231.9,4089.32 18233.2,4097.92 18233.2,4106.67L18233.2,4149.55L18253.4,4149.55L18253.4,4102.01C18253.4,4085.24 18246.1,4074.88 18228.9,4074.88C18218.8,4074.88 18210.9,4079.26 18206.4,4088.44L18206.4,4044.4L18186.3,4044.4L18186.3,4149.55L18206.4,4149.55Z" style="fill:white;fill-rule:nonzero;"/>
                            </g>
                            <g transform="matrix(0.974119,0,0,1,451.065,0)">
                                <path d="M18298.1,4168.22L18311.8,4132.05L18292.9,4132.05L18284.3,4168.22L18298.1,4168.22Z" style="fill:white;fill-rule:nonzero;"/>
                            </g>
                            <g transform="matrix(0.974119,0,0,1,451.065,0)">
                                <path d="M18476.1,4149.55L18476.1,4134.67L18431.6,4134.67L18452.9,4115.13C18467.3,4101.86 18474.9,4092.09 18474.9,4078.82C18474.9,4058.11 18457.1,4050.82 18439,4050.82C18429,4050.82 18419.6,4053.44 18410.3,4056.8L18411,4072.55C18418.5,4069.05 18426.6,4066.13 18435.2,4066.13C18444.6,4066.13 18453.9,4070.8 18453.9,4081.3C18453.9,4088.15 18450.2,4094.86 18440.2,4104.05L18407.5,4133.94L18407.5,4149.55L18476.1,4149.55Z" style="fill:white;fill-rule:nonzero;"/>
                            </g>
                            <g transform="matrix(0.974119,0,0,1,451.065,0)">
                                <path d="M18528.6,4146.92C18533.4,4149.69 18539.5,4151.15 18546.8,4151.15C18575.8,4151.15 18584.6,4125.78 18584.6,4100.99C18584.6,4076.34 18575.4,4050.82 18546.8,4050.82C18518.1,4050.82 18509.2,4076.19 18509.2,4100.99C18509.2,4120.38 18513.8,4138.17 18528.6,4146.92ZM18532.6,4125.05C18530.5,4118.05 18530.2,4109.15 18530.2,4100.99C18530.2,4083.92 18531.8,4064.97 18546.8,4064.97C18562,4064.97 18563.6,4083.63 18563.6,4100.99C18563.6,4117.03 18562.1,4137.01 18546.8,4137.01C18539.1,4137.01 18534.8,4132.05 18532.6,4125.05Z" style="fill:white;fill-rule:nonzero;"/>
                            </g>
                            <g transform="matrix(0.974119,0,0,1,451.065,0)">
                                <path d="M18667.2,4149.55L18667.2,4052.28L18649.3,4052.28L18620.4,4073.28L18627.7,4087.72L18646.5,4073.28L18646.5,4149.55L18667.2,4149.55Z" style="fill:white;fill-rule:nonzero;"/>
                            </g>
                            <g transform="matrix(0.974119,0,0,1,451.065,0)">
                                <path d="M18739,4096.76C18736.2,4093.4 18734.8,4089.03 18734.8,4083.63C18734.8,4072.69 18740.5,4064.82 18751.7,4064.82C18762.8,4064.82 18768.7,4074.59 18768.7,4084.8C18768.7,4095.44 18762.8,4101.86 18751.7,4101.86C18746,4101.86 18741.8,4100.11 18739,4096.76ZM18720.9,4148.82C18728.1,4150.42 18735.2,4151.3 18742.2,4151.3C18773.8,4151.3 18789.9,4128.84 18789.9,4096.47C18789.9,4066.72 18775.7,4050.82 18752.3,4050.82C18731.8,4050.82 18715.2,4062.92 18715.2,4084.07C18715.2,4103.32 18728.1,4115.13 18747,4115.13C18755.3,4115.13 18764.5,4112.22 18769.6,4105.36C18769.2,4122.13 18760.4,4137.15 18741,4137.15C18734.3,4137.15 18727.9,4136.13 18721.8,4133.94L18720.9,4148.82Z" style="fill:white;fill-rule:nonzero;"/>
                            </g>
                            <g transform="matrix(0.974119,0,0,1,451.065,0)">
                                <path d="M18908.9,4123.01C18911.4,4124.03 18914.1,4124.61 18916.9,4124.61C18928.1,4124.61 18937.3,4115.57 18937.3,4104.34C18937.3,4093.11 18928.1,4084.07 18916.9,4084.07C18905.7,4084.07 18896.6,4093.11 18896.6,4104.34C18896.6,4112.94 18901.7,4119.94 18908.9,4123.01Z" style="fill:white;fill-rule:nonzero;"/>
                            </g>
                            <g transform="matrix(0.974119,0,0,1,451.065,0)">
                                <path d="M19097.7,4149.55L19097.7,4052.28L19079.8,4052.28L19050.9,4073.28L19058.2,4087.72L19077,4073.28L19077,4149.55L19097.7,4149.55Z" style="fill:white;fill-rule:nonzero;"/>
                            </g>
                            <g transform="matrix(0.974119,0,0,1,451.065,0)">
                                <path d="M19190.2,4070.65L19190.2,4114.55L19159.7,4114.55L19190.2,4070.65ZM19189.9,4128.99L19189.9,4149.55L19210,4149.55L19210,4128.99L19224,4128.99L19224,4114.11L19210,4114.11L19210,4052.28L19188,4052.28L19144.6,4111.92L19144.6,4128.99L19189.9,4128.99Z" style="fill:white;fill-rule:nonzero;"/>
                            </g>
                            <g transform="matrix(0.974119,0,0,1,451.065,0)">
                                <path d="M19275.4,4093.84L19275.4,4076.34L19255.8,4076.34L19255.8,4093.84L19275.4,4093.84ZM19275.4,4149.55L19275.4,4132.05L19255.8,4132.05L19255.8,4149.55L19275.4,4149.55Z" style="fill:white;fill-rule:nonzero;"/>
                            </g>
                            <g transform="matrix(0.974119,0,0,1,451.065,0)">
                                <path d="M19329.2,4146.92C19334,4149.69 19340.1,4151.15 19347.4,4151.15C19376.4,4151.15 19385.2,4125.78 19385.2,4100.99C19385.2,4076.34 19376,4050.82 19347.4,4050.82C19318.7,4050.82 19309.8,4076.19 19309.8,4100.99C19309.8,4120.38 19314.5,4138.17 19329.2,4146.92ZM19333.3,4125.05C19331.1,4118.05 19330.8,4109.15 19330.8,4100.99C19330.8,4083.92 19332.4,4064.97 19347.4,4064.97C19362.6,4064.97 19364.2,4083.63 19364.2,4100.99C19364.2,4117.03 19362.7,4137.01 19347.4,4137.01C19339.7,4137.01 19335.5,4132.05 19333.3,4125.05Z" style="fill:white;fill-rule:nonzero;"/>
                            </g>
                            <g transform="matrix(0.974119,0,0,1,451.065,0)">
                                <path d="M19432.4,4146.92C19437.2,4149.69 19443.4,4151.15 19450.7,4151.15C19479.7,4151.15 19488.4,4125.78 19488.4,4100.99C19488.4,4076.34 19479.2,4050.82 19450.7,4050.82C19421.9,4050.82 19413,4076.19 19413,4100.99C19413,4120.38 19417.7,4138.17 19432.4,4146.92ZM19436.5,4125.05C19434.3,4118.05 19434,4109.15 19434,4100.99C19434,4083.92 19435.6,4064.97 19450.7,4064.97C19465.8,4064.97 19467.4,4083.63 19467.4,4100.99C19467.4,4117.03 19466,4137.01 19450.7,4137.01C19442.9,4137.01 19438.7,4132.05 19436.5,4125.05Z" style="fill:white;fill-rule:nonzero;"/>
                            </g>
                            <g transform="matrix(0.974119,0,0,1,451.065,0)">
                                <rect x="19577.4" y="4096.76" width="36.75" height="15.167" style="fill:white;fill-rule:nonzero;"/>
                            </g>
                            <g transform="matrix(0.974119,0,0,1,451.065,0)">
                                <path d="M19757.9,4149.55L19757.9,4052.28L19740,4052.28L19711.1,4073.28L19718.4,4087.72L19737.2,4073.28L19737.2,4149.55L19757.9,4149.55Z" style="fill:white;fill-rule:nonzero;"/>
                            </g>
                            <g transform="matrix(0.974119,0,0,1,451.065,0)">
                                <path d="M19841.5,4149.55L19878,4068.76L19878,4052.28L19808.4,4052.28L19808.4,4068.76L19857.2,4068.76L19817.6,4149.55L19841.5,4149.55Z" style="fill:white;fill-rule:nonzero;"/>
                            </g>
                            <g transform="matrix(0.974119,0,0,1,451.065,0)">
                                <path d="M19935.6,4093.84L19935.6,4076.34L19916,4076.34L19916,4093.84L19935.6,4093.84ZM19935.6,4149.55L19935.6,4132.05L19916,4132.05L19916,4149.55L19935.6,4149.55Z" style="fill:white;fill-rule:nonzero;"/>
                            </g>
                            <g transform="matrix(0.974119,0,0,1,451.065,0)">
                                <path d="M19971.3,4147.36C19980.6,4150.28 19989.8,4151.15 19999.6,4151.15C20019.6,4151.15 20041,4144.01 20041,4121.26C20041,4109.01 20031.5,4100.55 20019.6,4098.65C20031.2,4095.74 20039.1,4088.44 20039.1,4076.19C20039.1,4056.22 20017.5,4050.82 20001.2,4050.82C19991.8,4050.82 19982.4,4052.28 19973.6,4055.05L19974.5,4069.49C19981.6,4066.72 19990.8,4064.97 19998.4,4064.97C20007.3,4064.97 20018.2,4067.3 20018.2,4077.8C20018.2,4089.61 20007.3,4092.53 19994.5,4092.53L19984,4092.53L19984,4105.8L19996.4,4105.8C20007.5,4105.8 20019.6,4109.3 20019.6,4121.11C20019.6,4132.92 20008.9,4137.01 19997.7,4137.01C19990.8,4137.01 19980.8,4135.99 19972.2,4132.63L19971.3,4147.36Z" style="fill:white;fill-rule:nonzero;"/>
                            </g>
                            <g transform="matrix(0.974119,0,0,1,451.065,0)">
                                <path d="M20092.6,4146.92C20097.4,4149.69 20103.6,4151.15 20110.8,4151.15C20139.9,4151.15 20148.6,4125.78 20148.6,4100.99C20148.6,4076.34 20139.4,4050.82 20110.8,4050.82C20082.1,4050.82 20073.2,4076.19 20073.2,4100.99C20073.2,4120.38 20077.9,4138.17 20092.6,4146.92ZM20096.7,4125.05C20094.5,4118.05 20094.2,4109.15 20094.2,4100.99C20094.2,4083.92 20095.8,4064.97 20110.8,4064.97C20126,4064.97 20127.6,4083.63 20127.6,4100.99C20127.6,4117.03 20126.2,4137.01 20110.8,4137.01C20103.1,4137.01 20098.9,4132.05 20096.7,4125.05Z" style="fill:white;fill-rule:nonzero;"/>
                            </g>
                            <g transform="matrix(0.974119,0,0,1,451.065,0)">
                                <path d="M20200.5,4149.55L20200.5,4109.01C20200.5,4099.53 20204,4089.32 20215.1,4089.32C20226.1,4089.32 20227.4,4097.92 20227.4,4106.67L20227.4,4149.55L20247.5,4149.55L20247.5,4102.01C20247.5,4085.24 20240.2,4074.88 20223,4074.88C20212.9,4074.88 20205.1,4079.26 20200.5,4088.44L20200.5,4044.4L20180.4,4044.4L20180.4,4149.55L20200.5,4149.55Z" style="fill:white;fill-rule:nonzero;"/>
                            </g>
                        </g>
                        <g transform="matrix(0.676215,0,0,0.294587,-11248.5,1038.88)">
                            <g transform="matrix(0.761116,0,0,1.24045,4163.08,-904.998)">
                                <path d="M17455.2,3877.72L17455.2,3802.78L17489.1,3877.72L17518.9,3877.72L17518.9,3786L17500.9,3786L17500.9,3861.08L17466.9,3786L17437.2,3786L17437.2,3877.72L17455.2,3877.72Z" style="fill:white;fill-rule:nonzero;"/>
                            </g>
                            <g transform="matrix(0.761116,0,0,1.24045,4163.08,-904.998)">
                                <path d="M17570.9,3876.75C17575.4,3878.4 17580.5,3879.23 17586.1,3879.23C17608.7,3879.23 17622.3,3865.2 17622.3,3842.93C17622.3,3819.97 17608.6,3807.32 17586.1,3807.32C17565,3807.32 17550,3820.38 17550,3842.93C17550,3859.57 17557.4,3871.53 17570.9,3876.75ZM17573.8,3858.88C17571.4,3854.48 17570.3,3848.57 17570.3,3842.93C17570.3,3832.48 17574,3820.24 17586.1,3820.24C17598.5,3820.24 17602,3832.34 17602,3842.93C17602,3854.62 17598.2,3866.3 17586.1,3866.3C17580.2,3866.3 17576.4,3863.28 17573.8,3858.88Z" style="fill:white;fill-rule:nonzero;"/>
                            </g>
                            <g transform="matrix(0.761116,0,0,1.24045,4163.08,-904.998)">
                                <path d="M17669.3,3877.72L17669.6,3866.44C17673.9,3875.24 17682,3879.23 17691.5,3879.23C17712.6,3879.23 17720.5,3861.49 17720.5,3842.93C17720.5,3824.5 17712.8,3807.32 17691.9,3807.32C17683.1,3807.32 17674.4,3811.85 17671,3820.1L17671,3778.58L17652,3778.58L17652,3877.72L17669.3,3877.72ZM17673.5,3858.05C17671.3,3853.52 17670.4,3847.74 17670.4,3842.93C17670.4,3833.44 17673.5,3820.65 17685.4,3820.65C17697.9,3820.65 17700.1,3833.03 17700.1,3842.93C17700.1,3852.83 17697.8,3865.89 17685.3,3865.89C17679.4,3865.89 17675.7,3862.45 17673.5,3858.05Z" style="fill:white;fill-rule:nonzero;"/>
                            </g>
                            <g transform="matrix(0.761116,0,0,1.24045,4163.08,-904.998)">
                                <path d="M17764.9,3836.6C17765.3,3827.8 17770.3,3818.73 17780.7,3818.73C17791.2,3818.73 17793.9,3827.94 17793.9,3836.6L17764.9,3836.6ZM17811,3847.33L17811,3842.79C17811,3821.89 17802.7,3807.32 17780.6,3807.32C17760.2,3807.32 17746.3,3822.44 17746.3,3842.93C17746.3,3865.89 17759.9,3879.23 17785.4,3879.23C17792.9,3879.23 17801.9,3877.58 17807.4,3875.24L17806.6,3862.04C17801.7,3864.79 17794.3,3866.58 17787.6,3866.58C17772.9,3866.58 17765.3,3859.29 17764.9,3847.33L17811,3847.33Z" style="fill:white;fill-rule:nonzero;"/>
                            </g>
                            <g transform="matrix(0.761116,0,0,1.24045,4163.08,-904.998)">
                                <rect x="17840.4" y="3778.58" width="18.975" height="99.137" style="fill:white;fill-rule:nonzero;"/>
                            </g>
                            <g transform="matrix(0.761116,0,0,1.24045,4163.08,-904.998)">
                                <path d="M17890.4,3875.93C17897,3878.27 17903.5,3879.23 17911.3,3879.23C17925.2,3879.23 17940.2,3873.45 17940.2,3856.82C17940.2,3832.89 17908.3,3838.12 17908.3,3827.25C17908.3,3821.34 17914.8,3820.24 17919.6,3820.24C17925.5,3820.24 17931.1,3821.34 17936.6,3823.54L17937.5,3809.79C17932.1,3808.28 17925.2,3807.18 17918.5,3807.18C17905.8,3807.18 17890,3812.68 17890,3828.22C17890,3850.63 17922.2,3846.37 17922.2,3858.19C17922.2,3864.1 17917.5,3866.17 17910.2,3866.17C17903.8,3866.17 17897.3,3864.65 17891.3,3861.49L17890.4,3875.93Z" style="fill:white;fill-rule:nonzero;"/>
                            </g>
                            <g transform="matrix(0.761116,0,0,1.24045,4163.08,-904.998)">
                                <path d="M18011,3863.97C18008.5,3864.93 18006.1,3865.48 18003.5,3865.48C17996.7,3865.48 17995.2,3860.94 17995.2,3855.03L17995.2,3821.2L18010.6,3821.2L18010.6,3808.69L17995.2,3808.69L17995.2,3788.48L17976.2,3794.67L17976.2,3808.69L17963.9,3808.69L17963.9,3821.2L17976.2,3821.2L17976.2,3854.75C17976.2,3869.19 17979.9,3879.23 17995.8,3879.23C18001.1,3879.23 18006.6,3878.27 18011.6,3876.62L18011,3863.97Z" style="fill:white;fill-rule:nonzero;"/>
                            </g>
                            <g transform="matrix(0.761116,0,0,1.24045,4163.08,-904.998)">
                                <path d="M18058.5,3877.72L18058.5,3846.92C18058.5,3836.19 18062.9,3823.95 18075.5,3823.95C18077.6,3823.95 18079.6,3824.23 18081.4,3824.92L18082,3807.87C18080.2,3807.32 18078.5,3807.18 18076.5,3807.18C18067.1,3807.18 18060.4,3814.6 18057.1,3822.17L18056.7,3808.83L18038.8,3808.83C18039.3,3813.92 18039.5,3819 18039.5,3824.09L18039.5,3877.72L18058.5,3877.72Z" style="fill:white;fill-rule:nonzero;"/>
                            </g>
                            <g transform="matrix(0.761116,0,0,1.24045,4163.08,-904.998)">
                                <path d="M18146,3844.85L18146,3847.74C18146,3857.92 18140.7,3867.4 18129.1,3867.4C18123.2,3867.4 18119,3863.97 18119,3857.23C18119,3846.92 18131.1,3844.85 18142.2,3844.85L18146,3844.85ZM18165,3877.72C18164.5,3872.9 18164.3,3868.5 18164.3,3861.49L18164.3,3834.13C18164.3,3813.92 18151,3807.32 18132.4,3807.32C18124.7,3807.32 18115.8,3808.97 18108.6,3811.85L18109.5,3824.5C18115.9,3821.07 18123.5,3819.28 18129.7,3819.28C18140.1,3819.28 18146,3822.99 18146,3832.75L18146,3835.09C18143.4,3834.95 18140.4,3834.82 18137.8,3834.82C18118.4,3834.82 18100.8,3839.77 18100.8,3858.05C18100.8,3871.8 18111.5,3879.23 18124.2,3879.23C18134.6,3879.23 18141.9,3875.1 18146.7,3867.54L18147.1,3877.72L18165,3877.72Z" style="fill:white;fill-rule:nonzero;"/>
                            </g>
                            <g transform="matrix(0.761116,0,0,1.24045,4163.08,-904.998)">
                                <path d="M18216.4,3877.72L18216.4,3812.13C18216.4,3801.4 18219.9,3789.58 18232.9,3789.58C18241.7,3789.58 18246.1,3794.94 18246.1,3802.5C18246.1,3804.02 18246.1,3805.39 18245.7,3807.45C18236.4,3808.55 18228.4,3814.19 18228.4,3824.64C18228.4,3844.3 18250.4,3843.75 18250.4,3857.09C18250.4,3863.55 18245.6,3866.72 18239.1,3866.72C18235.1,3866.72 18230.9,3865.75 18227.2,3863.97L18226.3,3876.89C18232.3,3878.54 18237.5,3879.23 18243,3879.23C18255.8,3879.23 18269.1,3872.9 18269.1,3857.09C18269.1,3837.29 18245.6,3835.64 18245.6,3824.09C18245.6,3815.84 18252.5,3814.6 18263.5,3814.19C18264,3811.3 18264.2,3808.69 18264.2,3806.08C18264.2,3786.28 18250.5,3777.2 18233.5,3777.2C18209,3777.2 18197.5,3792.33 18197.5,3812.13L18197.5,3877.72L18216.4,3877.72Z" style="fill:white;fill-rule:nonzero;"/>
                            </g>
                            <g transform="matrix(0.761116,0,0,1.24045,4163.08,-904.998)">
                                <path d="M18312.8,3836.6C18313.2,3827.8 18318.2,3818.73 18328.6,3818.73C18339.1,3818.73 18341.8,3827.94 18341.8,3836.6L18312.8,3836.6ZM18358.9,3847.33L18358.9,3842.79C18358.9,3821.89 18350.6,3807.32 18328.5,3807.32C18308.2,3807.32 18294.3,3822.44 18294.3,3842.93C18294.3,3865.89 18307.9,3879.23 18333.3,3879.23C18340.9,3879.23 18349.8,3877.58 18355.3,3875.24L18354.5,3862.04C18349.7,3864.79 18342.3,3866.58 18335.5,3866.58C18320.8,3866.58 18313.2,3859.29 18312.8,3847.33L18358.9,3847.33Z" style="fill:white;fill-rule:nonzero;"/>
                            </g>
                            <g transform="matrix(0.761116,0,0,1.24045,4163.08,-904.998)">
                                <path d="M18482.9,3837.7C18488.8,3840.32 18493.8,3844.99 18493.8,3851.87C18493.8,3861.35 18486.5,3866.58 18477,3866.58C18467.7,3866.58 18460.4,3861.49 18460.4,3852C18460.4,3843.07 18468.3,3837.57 18477,3835.37C18479.1,3836.05 18481,3836.74 18482.9,3837.7ZM18471.5,3822.3C18466.3,3819.55 18462.3,3815.43 18462.3,3809.1C18462.3,3801.27 18469.3,3796.59 18477,3796.59C18484.7,3796.59 18491.7,3800.99 18491.7,3809.1C18491.7,3817.35 18484.4,3822.17 18477.1,3824.37C18475.2,3823.82 18473.3,3823.13 18471.5,3822.3ZM18446.3,3838.39C18442.8,3842.1 18441,3847.19 18441,3853.93C18441,3872.49 18460.9,3879.23 18477,3879.23C18492.8,3879.23 18513,3872.63 18513,3853.93C18513,3840.59 18504.8,3833.85 18492.5,3830.14C18502.6,3826.43 18510.6,3819.69 18510.6,3808.42C18510.6,3790.27 18491.7,3784.63 18477,3784.63C18463.4,3784.63 18443.7,3791.64 18443.7,3808.69C18443.7,3820.38 18450.6,3826.43 18461.1,3830.14C18454.9,3831.93 18450.1,3834.68 18446.3,3838.39Z" style="fill:white;fill-rule:nonzero;"/>
                            </g>
                            <g transform="matrix(0.761116,0,0,1.24045,4163.08,-904.998)">
                                <path d="M18551.1,3895.32L18564,3861.22L18546.2,3861.22L18538.1,3895.32L18551.1,3895.32Z" style="fill:white;fill-rule:nonzero;"/>
                            </g>
                            <g transform="matrix(0.761116,0,0,1.24045,4163.08,-904.998)">
                                <path d="M18677.6,3799.62L18687.4,3799.62C18697.3,3799.62 18705.9,3801.54 18705.9,3812.13C18705.9,3822.99 18696.2,3826.15 18686.8,3826.15L18677.6,3826.15L18677.6,3799.62ZM18677.8,3877.72L18677.8,3839.77L18685.2,3839.77C18695.2,3839.77 18697.6,3843.62 18701.7,3854.75L18709.9,3877.72L18731.9,3877.72L18720.2,3848.15C18716.4,3838.67 18713.1,3834.4 18705.3,3832.62C18716.9,3830.42 18726.4,3823.54 18726.4,3810.07C18726.4,3791.78 18709.9,3786 18694.1,3786L18657.8,3786L18657.8,3877.72L18677.8,3877.72Z" style="fill:white;fill-rule:nonzero;"/>
                            </g>
                            <g transform="matrix(0.761116,0,0,1.24045,4163.08,-904.998)">
                                <path d="M18776.3,3876.75C18780.9,3878.4 18786,3879.23 18791.6,3879.23C18814.2,3879.23 18827.8,3865.2 18827.8,3842.93C18827.8,3819.97 18814,3807.32 18791.6,3807.32C18770.4,3807.32 18755.4,3820.38 18755.4,3842.93C18755.4,3859.57 18762.9,3871.53 18776.3,3876.75ZM18779.2,3858.88C18776.9,3854.48 18775.8,3848.57 18775.8,3842.93C18775.8,3832.48 18779.5,3820.24 18791.6,3820.24C18804,3820.24 18807.4,3832.34 18807.4,3842.93C18807.4,3854.62 18803.7,3866.3 18791.6,3866.3C18785.7,3866.3 18781.8,3863.28 18779.2,3858.88Z" style="fill:white;fill-rule:nonzero;"/>
                            </g>
                            <g transform="matrix(0.761116,0,0,1.24045,4163.08,-904.998)">
                                <path d="M18874.4,3876.75C18878.9,3878.4 18884,3879.23 18889.6,3879.23C18912.2,3879.23 18925.8,3865.2 18925.8,3842.93C18925.8,3819.97 18912.1,3807.32 18889.6,3807.32C18868.5,3807.32 18853.5,3820.38 18853.5,3842.93C18853.5,3859.57 18860.9,3871.53 18874.4,3876.75ZM18877.3,3858.88C18874.9,3854.48 18873.8,3848.57 18873.8,3842.93C18873.8,3832.48 18877.5,3820.24 18889.6,3820.24C18902,3820.24 18905.5,3832.34 18905.5,3842.93C18905.5,3854.62 18901.7,3866.3 18889.6,3866.3C18883.7,3866.3 18879.9,3863.28 18877.3,3858.88Z" style="fill:white;fill-rule:nonzero;"/>
                            </g>
                            <g transform="matrix(0.761116,0,0,1.24045,4163.08,-904.998)">
                                <path d="M18974.5,3877.72L18974.5,3839.49C18974.5,3830.69 18977.6,3820.93 18987.3,3820.93C18995.8,3820.93 18997.7,3827.39 18997.7,3834.68L18997.7,3877.72L19016.6,3877.72L19016.6,3839.49C19016.6,3830.69 19019.7,3820.93 19029.3,3820.93C19037.7,3820.93 19039.9,3827.39 19039.9,3834.68L19039.9,3877.72L19058.9,3877.72L19058.9,3833.03C19058.9,3818.04 19053,3807.32 19036.5,3807.32C19027.8,3807.32 19018.5,3812.54 19015.2,3820.93C19012.6,3812.82 19005.1,3807.32 18994.7,3807.32C18984.8,3807.32 18977.2,3811.58 18973,3820.24L18972.7,3808.69L18954.8,3808.69C18955.4,3813.78 18955.5,3819 18955.5,3824.09L18955.5,3877.72L18974.5,3877.72Z" style="fill:white;fill-rule:nonzero;"/>
                            </g>
                            <g transform="matrix(0.761116,0,0,1.24045,4163.08,-904.998)">
                                <path d="M19168.5,3795.9L19168.5,3780.64L19149.5,3780.64L19149.5,3795.9L19168.5,3795.9ZM19168.5,3877.72L19168.5,3808.69L19149.5,3808.69L19149.5,3877.72L19168.5,3877.72Z" style="fill:white;fill-rule:nonzero;"/>
                            </g>
                            <g transform="matrix(0.761116,0,0,1.24045,4163.08,-904.998)">
                                <path d="M19216.8,3875.24C19221.3,3877.85 19227.1,3879.23 19233.9,3879.23C19261.3,3879.23 19269.6,3855.3 19269.6,3831.93C19269.6,3808.69 19260.9,3784.63 19233.9,3784.63C19206.9,3784.63 19198.5,3808.55 19198.5,3831.93C19198.5,3850.22 19202.9,3866.99 19216.8,3875.24ZM19220.6,3854.62C19218.5,3848.02 19218.3,3839.63 19218.3,3831.93C19218.3,3815.84 19219.8,3797.97 19233.9,3797.97C19248.2,3797.97 19249.8,3815.57 19249.8,3831.93C19249.8,3847.05 19248.4,3865.89 19233.9,3865.89C19226.7,3865.89 19222.7,3861.22 19220.6,3854.62Z" style="fill:white;fill-rule:nonzero;"/>
                            </g>
                            <g transform="matrix(0.761116,0,0,1.24045,4163.08,-904.998)">
                                <path d="M19314.1,3875.24C19318.6,3877.85 19324.4,3879.23 19331.3,3879.23C19358.7,3879.23 19366.9,3855.3 19366.9,3831.93C19366.9,3808.69 19358.2,3784.63 19331.3,3784.63C19304.2,3784.63 19295.8,3808.55 19295.8,3831.93C19295.8,3850.22 19300.2,3866.99 19314.1,3875.24ZM19318,3854.62C19315.9,3848.02 19315.6,3839.63 19315.6,3831.93C19315.6,3815.84 19317.1,3797.97 19331.3,3797.97C19345.6,3797.97 19347.1,3815.57 19347.1,3831.93C19347.1,3847.05 19345.7,3865.89 19331.3,3865.89C19324,3865.89 19320,3861.22 19318,3854.62Z" style="fill:white;fill-rule:nonzero;"/>
                            </g>
                            <g transform="matrix(0.761116,0,0,1.24045,4163.08,-904.998)">
                                <path d="M19394.4,3875.65C19403.2,3878.4 19411.9,3879.23 19421.1,3879.23C19439.9,3879.23 19460.1,3872.49 19460.1,3851.04C19460.1,3839.49 19451.2,3831.52 19439.9,3829.73C19450.9,3826.98 19458.3,3820.1 19458.3,3808.55C19458.3,3789.72 19438,3784.63 19422.6,3784.63C19413.8,3784.63 19404.9,3786 19396.6,3788.62L19397.4,3802.23C19404.2,3799.62 19412.8,3797.97 19420,3797.97C19428.4,3797.97 19438.7,3800.17 19438.7,3810.07C19438.7,3821.2 19428.4,3823.95 19416.3,3823.95L19406.4,3823.95L19406.4,3836.47L19418.1,3836.47C19428.5,3836.47 19439.9,3839.77 19439.9,3850.9C19439.9,3862.04 19429.9,3865.89 19419.3,3865.89C19412.8,3865.89 19403.3,3864.93 19395.2,3861.77L19394.4,3875.65Z" style="fill:white;fill-rule:nonzero;"/>
                            </g>
                            <g transform="matrix(0.761116,0,0,1.24045,4163.08,-904.998)">
                                <path d="M19562.3,3877.72L19570.5,3854.75L19609.6,3854.75L19617.7,3877.72L19638.9,3877.72L19603.8,3786L19577.1,3786L19542.2,3877.72L19562.3,3877.72ZM19590.2,3798.93L19605.3,3840.87L19574.7,3840.87L19590.2,3798.93Z" style="fill:white;fill-rule:nonzero;"/>
                            </g>
                            <g transform="matrix(0.761116,0,0,1.24045,4163.08,-904.998)">
                                <path d="M19725.6,3877.72C19725.1,3872.63 19725,3867.27 19725,3862.18L19725,3808.69L19706,3808.69L19706,3846.64C19706,3855.85 19703,3865.48 19692.2,3865.48C19681.9,3865.48 19680.8,3857.23 19680.8,3848.98L19680.8,3808.69L19661.8,3808.69L19661.8,3853.24C19661.8,3869.05 19668.4,3879.23 19685.1,3879.23C19694.8,3879.23 19702.8,3874.97 19707.4,3866.17L19707.8,3877.72L19725.6,3877.72Z" style="fill:white;fill-rule:nonzero;"/>
                            </g>
                            <g transform="matrix(0.761116,0,0,1.24045,4163.08,-904.998)">
                                <path d="M19823.8,3877.72C19823.4,3872.08 19823.3,3866.3 19823.3,3858.47L19823.3,3778.58L19804.3,3778.58L19804.3,3820.1C19800.9,3811.85 19792.3,3807.32 19783.5,3807.32C19762.8,3807.32 19754.7,3824.5 19754.7,3842.93C19754.7,3861.49 19762.5,3879.23 19783.7,3879.23C19793.2,3879.23 19801.3,3875.24 19805.5,3866.44L19806.2,3877.72L19823.8,3877.72ZM19777.8,3858.33C19775.6,3853.79 19775,3848.02 19775,3843.07C19775,3833.17 19777.2,3820.65 19789.7,3820.65C19801.7,3820.65 19804.7,3833.44 19804.7,3843.07C19804.7,3852.55 19801.5,3866.03 19789.9,3866.03C19783.7,3866.03 19780,3862.73 19777.8,3858.33Z" style="fill:white;fill-rule:nonzero;"/>
                            </g>
                            <g transform="matrix(0.761116,0,0,1.24045,4163.08,-904.998)">
                                <path d="M19884.2,3795.9L19884.2,3780.64L19865.2,3780.64L19865.2,3795.9L19884.2,3795.9ZM19884.2,3877.72L19884.2,3808.69L19865.2,3808.69L19865.2,3877.72L19884.2,3877.72Z" style="fill:white;fill-rule:nonzero;"/>
                            </g>
                            <g transform="matrix(0.761116,0,0,1.24045,4163.08,-904.998)">
                                <path d="M19936.8,3877.72L19936.8,3839.49C19936.8,3830.69 19940,3820.93 19949.6,3820.93C19958.2,3820.93 19960.1,3827.39 19960.1,3834.68L19960.1,3877.72L19978.9,3877.72L19978.9,3839.49C19978.9,3830.69 19982.1,3820.93 19991.7,3820.93C20000.1,3820.93 20002.3,3827.39 20002.3,3834.68L20002.3,3877.72L20021.3,3877.72L20021.3,3833.03C20021.3,3818.04 20015.4,3807.32 19998.9,3807.32C19990.2,3807.32 19980.8,3812.54 19977.5,3820.93C19974.9,3812.82 19967.5,3807.32 19957.1,3807.32C19947.2,3807.32 19939.6,3811.58 19935.3,3820.24L19935.1,3808.69L19917.2,3808.69C19917.7,3813.78 19917.9,3819 19917.9,3824.09L19917.9,3877.72L19936.8,3877.72Z" style="fill:white;fill-rule:nonzero;"/>
                            </g>
                            <g transform="matrix(0.761116,0,0,1.24045,4163.08,-904.998)">
                                <path d="M20095.4,3844.85L20095.4,3847.74C20095.4,3857.92 20090,3867.4 20078.5,3867.4C20072.6,3867.4 20068.3,3863.97 20068.3,3857.23C20068.3,3846.92 20080.4,3844.85 20091.5,3844.85L20095.4,3844.85ZM20114.4,3877.72C20113.8,3872.9 20113.7,3868.5 20113.7,3861.49L20113.7,3834.13C20113.7,3813.92 20100.3,3807.32 20081.8,3807.32C20074.1,3807.32 20065.1,3808.97 20058,3811.85L20058.8,3824.5C20065.3,3821.07 20072.8,3819.28 20079,3819.28C20089.5,3819.28 20095.4,3822.99 20095.4,3832.75L20095.4,3835.09C20092.8,3834.95 20089.7,3834.82 20087.1,3834.82C20067.7,3834.82 20050.1,3839.77 20050.1,3858.05C20050.1,3871.8 20060.9,3879.23 20073.5,3879.23C20084,3879.23 20091.3,3875.1 20096.1,3867.54L20096.5,3877.72L20114.4,3877.72Z" style="fill:white;fill-rule:nonzero;"/>
                            </g>
                            <g transform="matrix(0.761116,0,0,1.24045,4163.08,-904.998)">
                                <path d="M20159,3877.72L20174.6,3850.49L20189.6,3877.72L20210.5,3877.72L20187.4,3841.55L20208.1,3808.69L20188.5,3808.69L20175.7,3833.3L20162.2,3808.69L20141.6,3808.69L20162.6,3841.55L20139.2,3877.72L20159,3877.72Z" style="fill:white;fill-rule:nonzero;"/>
                            </g>
                        </g>
                    </g>
                    <g id="Main-Info" serif:id="Main Info" transform="matrix(0.917788,0,0,0.917788,105.622,223.484)">
                        <g transform="matrix(0.710833,0,0,0.669621,-12164.9,-1062.46)">
                            <g transform="matrix(1,0,0,0.753696,0,915.698)">
                                <path d="M17737.6,4062.71C17757.8,4070.58 17781.4,4074.51 17807.5,4074.51C17911.2,4074.51 17968.7,4006.17 17968.7,3905.38C17968.7,3803.11 17911.7,3736.24 17807.5,3736.24C17704.7,3736.24 17646.7,3805.08 17646.7,3905.38C17646.7,3982.57 17678.2,4038.12 17737.6,4062.71ZM17741.1,3984.53C17727.8,3961.43 17722.9,3932.42 17722.9,3905.38C17722.9,3852.28 17743,3786.88 17807.5,3786.88C17872.4,3786.88 17892.5,3850.8 17892.5,3905.38C17892.5,3959.95 17872.4,4023.87 17807.5,4023.87C17776,4023.87 17754.9,4007.64 17741.1,3984.53Z" style="fill:white;fill-rule:nonzero;"/>
                            </g>
                            <g transform="matrix(1,0,0,0.753696,0,915.698)">
                                <path d="M18154.1,3789.83L18184.1,3789.83C18229.8,3789.83 18257.3,3803.6 18257.3,3842.44C18257.3,3891.61 18219,3898.98 18179.7,3898.98L18154.1,3898.98L18154.1,3789.83ZM18154.6,4069.1L18154.6,3948.15L18199.8,3948.15C18268.6,3948.15 18330.6,3918.16 18330.6,3841.95C18330.6,3767.71 18268.6,3741.16 18199.3,3741.16L18083.3,3741.16L18083.3,4069.1L18154.6,4069.1Z" style="fill:white;fill-rule:nonzero;"/>
                            </g>
                            <g transform="matrix(1,0,0,0.753696,0,915.698)">
                                <path d="M18657.1,4069.1L18657.1,4018.95L18510,4018.95L18510,3927.01L18646.2,3927.01L18646.2,3877.35L18510,3877.35L18510,3791.31L18652.6,3791.31L18652.6,3741.16L18438.8,3741.16L18438.8,4069.1L18657.1,4069.1Z" style="fill:white;fill-rule:nonzero;"/>
                            </g>
                            <g transform="matrix(1,0,0,0.753696,0,915.698)">
                                <path d="M18836.5,4069.1L18836.5,3801.14L18957.5,4069.1L19064.2,4069.1L19064.2,3741.16L18999.8,3741.16L18999.8,4009.61L18878.3,3741.16L18772.1,3741.16L18772.1,4069.1L18836.5,4069.1Z" style="fill:white;fill-rule:nonzero;"/>
                            </g>
                            <g transform="matrix(1,0,0,0.753696,0,915.698)">
                                <rect x="19194.5" y="3741.16" width="72.767" height="327.942" style="fill:white;fill-rule:nonzero;"/>
                            </g>
                            <g transform="matrix(1,0,0,0.753696,0,915.698)">
                                <path d="M19461.9,4069.1L19461.9,3801.14L19582.9,4069.1L19689.6,4069.1L19689.6,3741.16L19625.2,3741.16L19625.2,4009.61L19503.7,3741.16L19397.5,3741.16L19397.5,4069.1L19461.9,4069.1Z" style="fill:white;fill-rule:nonzero;"/>
                            </g>
                            <g transform="matrix(1,0,0,0.753696,0,915.698)">
                                <path d="M20030.3,3934.38L20030.3,4017.97C20019,4021.41 20005.2,4022.88 19990,4022.88C19916.7,4022.88 19879.8,3973.72 19879.8,3905.38C19879.8,3830.64 19931,3787.87 20003.2,3787.87C20032.2,3787.87 20060.8,3793.77 20085.8,3806.06L20088.8,3750.99C20059.8,3740.67 20026.8,3736.24 19993.4,3736.24C19892.6,3736.24 19803.6,3797.7 19803.6,3905.38C19803.6,4016.49 19882.8,4074.51 19987.5,4074.51C20020.5,4074.51 20063.2,4069.59 20094.7,4055.83L20094.7,3886.69L19966.4,3886.69L19966.4,3934.38L20030.3,3934.38Z" style="fill:white;fill-rule:nonzero;"/>
                            </g>
                        </g>
                        <g>
                            <g>
                                <g transform="matrix(-3.81768,0,0,2.71055,3927.84,-2526.4)">
                                    <path d="M721.854,1299.13L741.587,1249.79L831.987,1249.79L851.187,1299.13L867.72,1299.13L795.72,1121.26L778.387,1121.26L706.654,1299.13L721.854,1299.13ZM786.92,1136.19L826.387,1235.66L747.187,1235.66L786.92,1136.19Z" style="fill:none;stroke:white;stroke-width:1.63px;stroke-miterlimit:1.41421;stroke-dasharray:4.89,4.89,0,0;"/>
                                </g>
                                <g transform="matrix(-3.81768,0,0,2.71055,3862.73,-2526.4)">
                                    <rect x="892.787" y="1121.26" width="16" height="177.867" style="fill:none;stroke:white;stroke-width:1.78px;stroke-linecap:butt;stroke-miterlimit:1.41421;stroke-dasharray:5.33,5.33,0,0;"/>
                                </g>
                            </g>
                            <g>
                                <g transform="matrix(3.81768,0,0,2.71055,-1415.47,-2526.4)">
                                    <path d="M721.854,1299.13L741.587,1249.79L831.987,1249.79L851.187,1299.13L867.72,1299.13L795.72,1121.26L778.387,1121.26L706.654,1299.13L721.854,1299.13ZM786.92,1136.19L826.387,1235.66L747.187,1235.66L786.92,1136.19Z" style="fill:white;fill-rule:nonzero;"/>
                                </g>
                                <g transform="matrix(3.81768,0,0,2.71055,-1350.36,-2526.4)">
                                    <rect x="892.787" y="1121.26" width="16" height="177.867" style="fill:white;fill-rule:nonzero;"/>
                                </g>
                            </g>
                        </g>
                        <g id="AI" transform="matrix(0.340263,0,0,0.164734,392.516,1232.2)">
                            <g transform="matrix(4.7621,0,0,6.98375,0,0)">
                                <path d="M10.8,72.1L17.4,54.6L48.3,54.6L54.7,72.1L66.1,72.1L39.9,5.4L26.2,5.4L0.2,72.1L10.8,72.1ZM32.9,13.1L45.6,46.6L20.1,46.6L32.9,13.1Z" style="fill:white;fill-rule:nonzero;"/>
                            </g>
                            <g transform="matrix(4.7621,0,0,6.98375,0,0)">
                                <path d="M91.1,72.1L91.1,48.3C91.1,40.6 93.6,30.4 103.5,30.4C105,30.4 106.3,30.5 107.6,31L108.1,21.5C106.6,21.1 105.4,21.1 103.9,21.1C97.4,21.1 92.4,26.4 90.3,31.7L90,22.1L80.6,22.1C81,26 81.1,29.7 81.1,33.6L81.1,72.1L91.1,72.1Z" style="fill:white;fill-rule:nonzero;"/>
                            </g>
                            <g transform="matrix(4.7621,0,0,6.98375,0,0)">
                                <path d="M149.9,64.1C148.1,64.9 146.3,65.3 144.4,65.3C139.3,65.3 138.2,61.6 138.2,57.3L138.2,29.3L149.4,29.3L149.4,22.1L138.2,22.1L138.2,8L128.1,11.3L128.1,22.1L118.9,22.1L118.9,29.3L128.1,29.3L128.1,56.1C128.1,65.8 130.1,73.2 140.8,73.2C143.9,73.2 147.3,72.6 150.4,71.5L149.9,64.1Z" style="fill:white;fill-rule:nonzero;"/>
                            </g>
                            <g transform="matrix(4.7621,0,0,6.98375,0,0)">
                                <path d="M177.3,11.8L177.3,2.1L167.3,2.1L167.3,11.8L177.3,11.8ZM177.3,72.1L177.3,22.1L167.3,22.1L167.3,72.1L177.3,72.1Z" style="fill:white;fill-rule:nonzero;"/>
                            </g>
                            <g transform="matrix(4.7621,0,0,6.98375,0,0)">
                                <path d="M213.7,72.1L213.7,29.3L224.6,29.3L224.6,22.1L213.6,22.1L213.6,16.1C213.6,13.3 213.8,6.4 220.6,6.4C222.3,6.4 224,6.7 225.5,7.3L226.1,0.1C223.8,-0.8 220.7,-1 218.2,-1C205.7,-1 203.5,8.1 203.5,16.3L203.5,22.1L194,22.1L194,29.3L203.5,29.3L203.5,72.1L213.7,72.1Z" style="fill:white;fill-rule:nonzero;"/>
                            </g>
                            <g transform="matrix(4.7621,0,0,6.98375,0,0)">
                                <path d="M253.1,11.8L253.1,2.1L243.1,2.1L243.1,11.8L253.1,11.8ZM253.1,72.1L253.1,22.1L243.1,22.1L243.1,72.1L253.1,72.1Z" style="fill:white;fill-rule:nonzero;"/>
                            </g>
                            <g transform="matrix(4.7621,0,0,6.98375,0,0)">
                                <path d="M310,63.4C306.7,64.9 303.8,65.6 300.1,65.6C288.3,65.6 282.6,56.9 282.6,46.9C282.6,36.5 288.6,28.6 299.5,28.6C303.4,28.6 306.9,29.3 310,30.8L310.6,22.8C306.3,21.3 302.5,21.1 298.1,21.1C282.4,21.1 271.8,31.4 271.8,46.9C271.8,62.2 280.7,73.2 297.9,73.2C302.6,73.2 306.5,72.8 310.5,71.3L310,63.4Z" style="fill:white;fill-rule:nonzero;"/>
                            </g>
                            <g transform="matrix(4.7621,0,0,6.98375,0,0)">
                                <path d="M338.5,11.8L338.5,2.1L328.5,2.1L328.5,11.8L338.5,11.8ZM338.5,72.1L338.5,22.1L328.5,22.1L328.5,72.1L338.5,72.1Z" style="fill:white;fill-rule:nonzero;"/>
                            </g>
                            <g transform="matrix(4.7621,0,0,6.98375,0,0)">
                                <path d="M388.5,47.6L388.5,50.3C388.5,58.7 384.6,65.9 375.5,65.9C370.2,65.9 366.4,63.5 366.4,57.8C366.4,49 375.9,47.6 385.8,47.6L388.5,47.6ZM398.9,72.1C398.5,68.6 398.3,65.3 398.3,61L398.3,40.1C398.3,26.6 390.9,21.1 378,21.1C372.9,21.1 366.5,22.5 361.8,24.4L362.4,32.1C366.9,29.3 372,28.1 377.1,28.1C385,28.1 388.5,32.1 388.5,39.4L388.5,41.5C387,41.4 384.2,41.4 382.9,41.4C368.2,41.4 356.5,45.4 356.5,58.4C356.5,68.8 364.1,73.2 373.1,73.2C380.3,73.2 385.7,69.8 388.8,64.2L389.1,72.1L398.9,72.1Z" style="fill:white;fill-rule:nonzero;"/>
                            </g>
                            <g transform="matrix(4.7621,0,0,6.98375,0,0)">
                                <rect x="419.9" y="0" width="10" height="72.1" style="fill:white;fill-rule:nonzero;"/>
                            </g>
                            <g transform="matrix(4.7621,0,0,6.98375,0,0)">
                                <rect x="488.8" y="5.4" width="10.9" height="66.7" style="fill:white;fill-rule:nonzero;"/>
                            </g>
                            <g transform="matrix(4.7621,0,0,6.98375,0,0)">
                                <path d="M532.5,72.1L532.5,44.9C532.5,37 535.4,28.9 544.7,28.9C553.2,28.9 554.6,35.6 554.6,42.6L554.6,72.1L564.7,72.1L564.7,40.5C564.7,28.9 560.3,21.1 547.9,21.1C540.6,21.1 535.2,24.3 531.7,30.7L531.4,22.1L522,22.1C522.4,26 522.5,29.7 522.5,33.6L522.5,72.1L532.5,72.1Z" style="fill:white;fill-rule:nonzero;"/>
                            </g>
                            <g transform="matrix(4.7621,0,0,6.98375,0,0)">
                                <path d="M612,64.1C610.2,64.9 608.4,65.3 606.5,65.3C601.4,65.3 600.3,61.6 600.3,57.3L600.3,29.3L611.5,29.3L611.5,22.1L600.3,22.1L600.3,8L590.2,11.3L590.2,22.1L581,22.1L581,29.3L590.2,29.3L590.2,56.1C590.2,65.8 592.2,73.2 602.9,73.2C606,73.2 609.4,72.6 612.5,71.5L612,64.1Z" style="fill:white;fill-rule:nonzero;"/>
                            </g>
                            <g transform="matrix(4.7621,0,0,6.98375,0,0)">
                                <path d="M636.6,43.1C636.9,35.9 640.9,28 649.4,28C658.4,28 660.6,35.5 660.6,43.1L636.6,43.1ZM670.2,49.3L670.2,46.3C670.2,32.2 665,21.1 649.3,21.1C634.9,21.1 626.4,33.2 626.4,46.9C626.4,62.5 635.1,73.2 652,73.2C657.5,73.2 662.8,72.4 667.5,70.5L666.9,63.1C662.9,65.2 657.9,66.2 653.4,66.2C642.4,66.2 636.7,58.5 636.7,49.3L670.2,49.3Z" style="fill:white;fill-rule:nonzero;"/>
                            </g>
                            <g transform="matrix(4.7621,0,0,6.98375,0,0)">
                                <rect x="688.4" y="0" width="10" height="72.1" style="fill:white;fill-rule:nonzero;"/>
                            </g>
                            <g transform="matrix(4.7621,0,0,6.98375,0,0)">
                                <rect x="720.2" y="0" width="10" height="72.1" style="fill:white;fill-rule:nonzero;"/>
                            </g>
                            <g transform="matrix(4.7621,0,0,6.98375,0,0)">
                                <path d="M761.9,11.8L761.9,2.1L751.9,2.1L751.9,11.8L761.9,11.8ZM761.9,72.1L761.9,22.1L751.9,22.1L751.9,72.1L761.9,72.1Z" style="fill:white;fill-rule:nonzero;"/>
                            </g>
                            <g transform="matrix(4.7621,0,0,6.98375,0,0)">
                                <path d="M784.6,92.1C790.2,93.8 795.9,94.8 801.6,94.8C818.3,94.8 826.4,85.6 826.4,69.3L826.4,22.1L816.8,22.1L816.8,30.4C813.6,24 808,21.1 801.1,21.1C786.3,21.1 780.6,33.6 780.6,46.9C780.6,59.3 786.2,72.1 800.9,72.1C807.3,72.1 813.2,68.9 816.4,63.4L816.4,69.3C816.4,80 811.7,87.2 800.1,87.2C794.9,87.2 789.6,85.9 785.2,83.6L784.6,92.1ZM793.9,58.7C792,55.2 791.4,50.9 791.4,47C791.4,38.6 793.6,28.8 804,28.8C813.7,28.8 816.7,39 816.7,47C816.7,54.6 813.5,64.4 803.9,64.4C798.8,64.4 795.8,62 793.9,58.7Z" style="fill:white;fill-rule:nonzero;"/>
                            </g>
                            <g transform="matrix(4.7621,0,0,6.98375,0,0)">
                                <path d="M855.3,43.1C855.6,35.9 859.6,28 868.1,28C877.1,28 879.3,35.5 879.3,43.1L855.3,43.1ZM888.9,49.3L888.9,46.3C888.9,32.2 883.7,21.1 868,21.1C853.6,21.1 845.1,33.2 845.1,46.9C845.1,62.5 853.8,73.2 870.7,73.2C876.2,73.2 881.5,72.4 886.2,70.5L885.6,63.1C881.6,65.2 876.6,66.2 872.1,66.2C861.1,66.2 855.4,58.5 855.4,49.3L888.9,49.3Z" style="fill:white;fill-rule:nonzero;"/>
                            </g>
                            <g transform="matrix(4.7621,0,0,6.98375,0,0)">
                                <path d="M917.1,72.1L917.1,44.9C917.1,37 920,28.9 929.3,28.9C937.8,28.9 939.2,35.6 939.2,42.6L939.2,72.1L949.3,72.1L949.3,40.5C949.3,28.9 944.9,21.1 932.5,21.1C925.2,21.1 919.8,24.3 916.3,30.7L916,22.1L906.6,22.1C907,26 907.1,29.7 907.1,33.6L907.1,72.1L917.1,72.1Z" style="fill:white;fill-rule:nonzero;"/>
                            </g>
                            <g transform="matrix(4.7621,0,0,6.98375,0,0)">
                                <path d="M1006.2,63.4C1002.9,64.9 1000,65.6 996.3,65.6C984.5,65.6 978.8,56.9 978.8,46.9C978.8,36.5 984.8,28.6 995.7,28.6C999.6,28.6 1003.1,29.3 1006.2,30.8L1006.8,22.8C1002.5,21.3 998.7,21.1 994.3,21.1C978.6,21.1 968,31.4 968,46.9C968,62.2 976.9,73.2 994.1,73.2C998.8,73.2 1002.7,72.8 1006.7,71.3L1006.2,63.4Z" style="fill:white;fill-rule:nonzero;"/>
                            </g>
                            <g transform="matrix(4.7621,0,0,6.98375,0,0)">
                                <path d="M1031.9,43.1C1032.2,35.9 1036.2,28 1044.7,28C1053.7,28 1055.9,35.5 1055.9,43.1L1031.9,43.1ZM1065.5,49.3L1065.5,46.3C1065.5,32.2 1060.3,21.1 1044.6,21.1C1030.2,21.1 1021.7,33.2 1021.7,46.9C1021.7,62.5 1030.4,73.2 1047.3,73.2C1052.8,73.2 1058.1,72.4 1062.8,70.5L1062.2,63.1C1058.2,65.2 1053.2,66.2 1048.7,66.2C1037.7,66.2 1032,58.5 1032,49.3L1065.5,49.3Z" style="fill:white;fill-rule:nonzero;"/>
                            </g>
                        </g>
                        <g id="IA" transform="matrix(1.4607,0,0,1.61962,-8371.51,-658.551)">
                            <g transform="matrix(1.11103,0,0,0.711431,-665.189,311.586)">
                                <rect x="5999.18" y="1096.61" width="11.354" height="69.479" style="fill:white;fill-rule:nonzero;"/>
                            </g>
                            <g transform="matrix(1.11103,0,0,0.711431,-665.189,311.586)">
                                <path d="M6044.7,1166.09L6044.7,1137.76C6044.7,1129.53 6047.72,1121.09 6057.41,1121.09C6066.26,1121.09 6067.72,1128.07 6067.72,1135.36L6067.72,1166.09L6078.24,1166.09L6078.24,1133.17C6078.24,1121.09 6073.66,1112.96 6060.74,1112.96C6053.14,1112.96 6047.51,1116.3 6043.87,1122.96L6043.55,1114.01L6033.76,1114.01C6034.18,1118.07 6034.28,1121.92 6034.28,1125.99L6034.28,1166.09L6044.7,1166.09Z" style="fill:white;fill-rule:nonzero;"/>
                            </g>
                            <g transform="matrix(1.11103,0,0,0.711431,-665.189,311.586)">
                                <path d="M6097.93,1165.05C6103.03,1166.71 6107.2,1167.24 6112.3,1167.24C6121.89,1167.24 6132.2,1162.76 6132.2,1151.4C6132.2,1133.69 6108.66,1136.92 6108.66,1126.92C6108.66,1121.51 6113.45,1120.36 6118.03,1120.36C6121.99,1120.36 6125.85,1121.19 6129.7,1122.76L6130.32,1115.15C6126.26,1113.59 6122.2,1112.96 6117.51,1112.96C6108.35,1112.96 6098.55,1116.4 6098.55,1127.44C6098.55,1143.8 6121.89,1140.26 6121.89,1152.03C6121.89,1157.76 6117.51,1159.84 6111.99,1159.84C6107.1,1159.84 6103.03,1158.9 6098.55,1156.71L6097.93,1165.05Z" style="fill:white;fill-rule:nonzero;"/>
                            </g>
                            <g transform="matrix(1.11103,0,0,0.711431,-665.189,311.586)">
                                <path d="M6178.87,1157.76C6176.99,1158.59 6175.12,1159.01 6173.14,1159.01C6167.82,1159.01 6166.68,1155.15 6166.68,1150.67L6166.68,1121.51L6178.35,1121.51L6178.35,1114.01L6166.68,1114.01L6166.68,1099.32L6156.16,1102.76L6156.16,1114.01L6146.57,1114.01L6146.57,1121.51L6156.16,1121.51L6156.16,1149.42C6156.16,1159.53 6158.24,1167.24 6169.39,1167.24C6172.62,1167.24 6176.16,1166.61 6179.39,1165.46L6178.87,1157.76Z" style="fill:white;fill-rule:nonzero;"/>
                            </g>
                            <g transform="matrix(1.11103,0,0,0.711431,-665.189,311.586)">
                                <path d="M6207.41,1103.28L6207.41,1093.17L6196.99,1093.17L6196.99,1103.28L6207.41,1103.28ZM6207.41,1166.09L6207.41,1114.01L6196.99,1114.01L6196.99,1166.09L6207.41,1166.09Z" style="fill:white;fill-rule:nonzero;"/>
                            </g>
                            <g transform="matrix(1.11103,0,0,0.711431,-665.189,311.586)">
                                <path d="M6256.68,1157.76C6254.8,1158.59 6252.93,1159.01 6250.95,1159.01C6245.64,1159.01 6244.49,1155.15 6244.49,1150.67L6244.49,1121.51L6256.16,1121.51L6256.16,1114.01L6244.49,1114.01L6244.49,1099.32L6233.97,1102.76L6233.97,1114.01L6224.39,1114.01L6224.39,1121.51L6233.97,1121.51L6233.97,1149.42C6233.97,1159.53 6236.05,1167.24 6247.2,1167.24C6250.43,1167.24 6253.97,1166.61 6257.2,1165.46L6256.68,1157.76Z" style="fill:white;fill-rule:nonzero;"/>
                            </g>
                            <g transform="matrix(1.11103,0,0,0.711431,-665.189,311.586)">
                                <path d="M6285.01,1114.01L6274.6,1114.01L6274.6,1146.82C6274.6,1158.8 6279.07,1167.24 6291.99,1167.24C6299.6,1167.24 6305.12,1163.9 6308.76,1157.24L6309.07,1166.09L6318.87,1166.09C6318.45,1162.03 6318.35,1158.17 6318.35,1154.11L6318.35,1114.01L6307.93,1114.01L6307.93,1142.34C6307.93,1150.57 6304.91,1159.01 6295.32,1159.01C6286.47,1159.01 6285.01,1151.92 6285.01,1144.63L6285.01,1114.01Z" style="fill:white;fill-rule:nonzero;"/>
                            </g>
                            <g transform="matrix(1.11103,0,0,0.711431,-665.189,311.586)">
                                <path d="M6367.62,1157.76C6365.74,1158.59 6363.87,1159.01 6361.89,1159.01C6356.57,1159.01 6355.43,1155.15 6355.43,1150.67L6355.43,1121.51L6367.1,1121.51L6367.1,1114.01L6355.43,1114.01L6355.43,1099.32L6344.91,1102.76L6344.91,1114.01L6335.32,1114.01L6335.32,1121.51L6344.91,1121.51L6344.91,1149.42C6344.91,1159.53 6346.99,1167.24 6358.14,1167.24C6361.37,1167.24 6364.91,1166.61 6368.14,1165.46L6367.62,1157.76Z" style="fill:white;fill-rule:nonzero;"/>
                            </g>
                            <g transform="matrix(1.11103,0,0,0.711431,-665.189,311.586)">
                                <path d="M6393.24,1135.88C6393.55,1128.38 6397.72,1120.15 6406.57,1120.15C6415.95,1120.15 6418.24,1127.96 6418.24,1135.88L6393.24,1135.88ZM6428.24,1142.34L6428.24,1139.21C6428.24,1124.53 6422.82,1112.96 6406.47,1112.96C6391.47,1112.96 6382.62,1125.57 6382.62,1139.84C6382.62,1156.09 6391.68,1167.24 6409.28,1167.24C6415.01,1167.24 6420.53,1166.4 6425.43,1164.42L6424.8,1156.71C6420.64,1158.9 6415.43,1159.94 6410.74,1159.94C6399.28,1159.94 6393.35,1151.92 6393.35,1142.34L6428.24,1142.34Z" style="fill:white;fill-rule:nonzero;"/>
                            </g>
                            <g transform="matrix(1.11103,0,0,0.711431,-665.189,311.586)">
                                <path d="M6500.12,1166.09L6500.12,1121.51L6511.47,1121.51L6511.47,1114.01L6500.01,1114.01L6500.01,1107.76C6500.01,1104.84 6500.22,1097.65 6507.3,1097.65C6509.07,1097.65 6510.85,1097.96 6512.41,1098.59L6513.03,1091.09C6510.64,1090.15 6507.41,1089.94 6504.8,1089.94C6491.78,1089.94 6489.49,1099.42 6489.49,1107.96L6489.49,1114.01L6479.6,1114.01L6479.6,1121.51L6489.49,1121.51L6489.49,1166.09L6500.12,1166.09Z" style="fill:white;fill-rule:nonzero;"/>
                            </g>
                            <g transform="matrix(1.11103,0,0,0.711431,-665.189,311.586)">
                                <path d="M6539.7,1165.26C6542.93,1166.61 6546.57,1167.24 6550.74,1167.24C6567.2,1167.24 6576.37,1155.67 6576.37,1139.84C6576.37,1123.59 6567.2,1112.96 6550.74,1112.96C6535.22,1112.96 6525.12,1124.01 6525.12,1139.84C6525.12,1151.71 6530.22,1161.09 6539.7,1165.26ZM6539.6,1153.17C6537.41,1149.42 6536.37,1144.53 6536.37,1139.84C6536.37,1130.67 6540.32,1120.78 6550.74,1120.78C6561.47,1120.78 6565.12,1130.57 6565.12,1139.84C6565.12,1149.42 6561.16,1159.32 6550.74,1159.32C6545.43,1159.32 6541.99,1156.82 6539.6,1153.17Z" style="fill:white;fill-rule:nonzero;"/>
                            </g>
                            <g transform="matrix(1.11103,0,0,0.711431,-665.189,311.586)">
                                <path d="M6606.37,1166.09L6606.37,1141.3C6606.37,1133.28 6608.97,1122.65 6619.28,1122.65C6620.85,1122.65 6622.2,1122.76 6623.55,1123.28L6624.07,1113.38C6622.51,1112.96 6621.26,1112.96 6619.7,1112.96C6612.93,1112.96 6607.72,1118.49 6605.53,1124.01L6605.22,1114.01L6595.43,1114.01C6595.85,1118.07 6595.95,1121.92 6595.95,1125.99L6595.95,1166.09L6606.37,1166.09Z" style="fill:white;fill-rule:nonzero;"/>
                            </g>
                            <g transform="matrix(1.11103,0,0,0.711431,-665.189,311.586)">
                                <path d="M6682.62,1166.09L6689.49,1147.86L6721.68,1147.86L6728.35,1166.09L6740.22,1166.09L6712.93,1096.61L6698.66,1096.61L6671.57,1166.09L6682.62,1166.09ZM6705.64,1104.63L6718.87,1139.53L6692.3,1139.53L6705.64,1104.63Z" style="fill:white;fill-rule:nonzero;"/>
                            </g>
                            <g transform="matrix(1.11103,0,0,0.711431,-665.189,311.586)">
                                <path d="M6766.26,1188.59L6766.26,1157.65C6768.87,1163.9 6775.32,1167.24 6781.99,1167.24C6797.72,1167.24 6803.55,1153.59 6803.55,1139.84C6803.55,1125.99 6798.03,1112.96 6782.2,1112.96C6775.43,1112.96 6768.45,1116.71 6765.64,1122.96L6765.22,1114.01L6755.32,1114.01C6755.64,1119.11 6755.85,1124.32 6755.85,1130.46L6755.85,1188.59L6766.26,1188.59ZM6768.76,1152.65C6766.68,1148.8 6765.95,1144.01 6765.95,1139.84C6765.95,1131.51 6769.28,1120.99 6779.28,1120.99C6790.01,1120.99 6792.3,1131.19 6792.3,1139.84C6792.3,1148.49 6789.7,1159.21 6779.18,1159.21C6774.18,1159.21 6770.85,1156.4 6768.76,1152.65Z" style="fill:white;fill-rule:nonzero;"/>
                            </g>
                            <g transform="matrix(1.11103,0,0,0.711431,-665.189,311.586)">
                                <path d="M6833.45,1188.59L6833.45,1157.65C6836.05,1163.9 6842.51,1167.24 6849.18,1167.24C6864.91,1167.24 6870.74,1153.59 6870.74,1139.84C6870.74,1125.99 6865.22,1112.96 6849.39,1112.96C6842.62,1112.96 6835.64,1116.71 6832.82,1122.96L6832.41,1114.01L6822.51,1114.01C6822.82,1119.11 6823.03,1124.32 6823.03,1130.46L6823.03,1188.59L6833.45,1188.59ZM6835.95,1152.65C6833.87,1148.8 6833.14,1144.01 6833.14,1139.84C6833.14,1131.51 6836.47,1120.99 6846.47,1120.99C6857.2,1120.99 6859.49,1131.19 6859.49,1139.84C6859.49,1148.49 6856.89,1159.21 6846.37,1159.21C6841.37,1159.21 6838.03,1156.4 6835.95,1152.65Z" style="fill:white;fill-rule:nonzero;"/>
                            </g>
                            <g transform="matrix(1.11103,0,0,0.711431,-665.189,311.586)">
                                <rect x="6890.22" y="1090.99" width="10.417" height="75.104" style="fill:white;fill-rule:nonzero;"/>
                            </g>
                            <g transform="matrix(1.11103,0,0,0.711431,-665.189,311.586)">
                                <path d="M6933.66,1103.28L6933.66,1093.17L6923.24,1093.17L6923.24,1103.28L6933.66,1103.28ZM6933.66,1166.09L6933.66,1114.01L6923.24,1114.01L6923.24,1166.09L6933.66,1166.09Z" style="fill:white;fill-rule:nonzero;"/>
                            </g>
                            <g transform="matrix(1.11103,0,0,0.711431,-665.189,311.586)">
                                <path d="M6963.76,1135.88C6964.07,1128.38 6968.24,1120.15 6977.1,1120.15C6986.47,1120.15 6988.76,1127.96 6988.76,1135.88L6963.76,1135.88ZM6998.76,1142.34L6998.76,1139.21C6998.76,1124.53 6993.35,1112.96 6976.99,1112.96C6961.99,1112.96 6953.14,1125.57 6953.14,1139.84C6953.14,1156.09 6962.2,1167.24 6979.8,1167.24C6985.53,1167.24 6991.05,1166.4 6995.95,1164.42L6995.32,1156.71C6991.16,1158.9 6985.95,1159.94 6981.26,1159.94C6969.8,1159.94 6963.87,1151.92 6963.87,1142.34L6998.76,1142.34Z" style="fill:white;fill-rule:nonzero;"/>
                            </g>
                            <g transform="matrix(1.11103,0,0,0.711431,-665.189,311.586)">
                                <path d="M7062.82,1166.09C7062.51,1161.19 7062.3,1156.3 7062.3,1150.46L7062.3,1090.99L7051.89,1090.99L7051.89,1122.65C7049.28,1116.4 7042.72,1112.96 7036.16,1112.96C7020.43,1112.96 7014.6,1125.99 7014.6,1139.84C7014.6,1153.59 7020.43,1167.24 7036.16,1167.24C7043.35,1167.24 7049.28,1164.11 7052.51,1157.44L7053.14,1166.09L7062.82,1166.09ZM7028.45,1152.76C7026.47,1149.01 7025.85,1144.21 7025.85,1139.94C7025.85,1131.19 7028.14,1120.99 7038.87,1120.99C7048.87,1120.99 7052.2,1131.61 7052.2,1139.94C7052.2,1148.17 7049.07,1159.21 7038.97,1159.21C7033.66,1159.21 7030.43,1156.51 7028.45,1152.76Z" style="fill:white;fill-rule:nonzero;"/>
                            </g>
                        </g>
                        <g id="Line" transform="matrix(1.2944,0,0,0.91547,-372.913,-267.974)">
                            <path d="M582.423,1432.43L1925.17,1432.43" style="fill:none;stroke:white;stroke-width:2.62px;stroke-linecap:butt;stroke-linejoin:miter;stroke-miterlimit:1;"/>
                        </g>
                        <g id="Line1" serif:id="Line" transform="matrix(1.2944,0,0,0.91547,-372.913,76.1471)">
                            <path d="M582.423,1432.43L1925.17,1432.43" style="fill:none;stroke:white;stroke-width:2.62px;stroke-linecap:butt;stroke-linejoin:miter;stroke-miterlimit:1;"/>
                        </g>
                    </g>
                </g>
            </g>
        </g>
    </g>
    <defs>
        <linearGradient id="_Linear2" x1="0" y1="0" x2="1" y2="0" gradientUnits="userSpaceOnUse" gradientTransform="matrix(5031.5,0,0,7086.61,0,3543.31)"><stop offset="0" style="stop-color:rgb(62,46,213);stop-opacity:0.917647"/><stop offset="0.07" style="stop-color:rgb(179,56,153);stop-opacity:0.917647"/><stop offset="0.12" style="stop-color:rgb(231,60,126);stop-opacity:0.917647"/><stop offset="0.19" style="stop-color:rgb(236,104,93);stop-opacity:0.917647"/><stop offset="0.26" style="stop-color:rgb(238,119,82);stop-opacity:0.917647"/><stop offset="0.4" style="stop-color:rgb(250,41,67);stop-opacity:0.917647"/><stop offset="0.51" style="stop-color:rgb(255,5,60);stop-opacity:0.917647"/><stop offset="1" style="stop-color:rgb(255,5,60);stop-opacity:0.917647"/></linearGradient>
    </defs>
</svg>
