<?xml version="1.0" encoding="utf-8"?>
<!-- Generator: Adobe Illustrator 19.2.0, SVG Export Plug-In . SVG Version: 6.00 Build 0)  -->
<svg version="1.1" id="Ebene_1" xmlns:serif="http://www.serif.com/"
	 xmlns="http://www.w3.org/2000/svg" xmlns:xlink="http://www.w3.org/1999/xlink" x="0px" y="0px" viewBox="0 0 612 792"
	 style="enable-background:new 0 0 612 792;" xml:space="preserve">
<style type="text/css">
	.st0{fill:#FFFFFF;}
	.st1{clip-path:url(#SVGID_2_);}
	.st2{fill:none;}
	.st3{clip-path:url(#SVGID_4_);}
	.st4{clip-path:url(#SVGID_6_);}
	.st5{fill:none;stroke:#FFFFFF;stroke-linecap:round;stroke-linejoin:round;stroke-miterlimit:1.5;}
	.st6{fill:none;stroke:#FFFFFF;stroke-linejoin:round;stroke-miterlimit:1.4142;}
	.st7{font-family:'MyriadPro-Regular';}
	.st8{font-size:34px;}
	.st9{font-size:24px;}
</style>
<g>
	<g id="startups_1" transform="matrix(1.00008,0,0,0.999664,3.12639e-13,0.0465045)">
		
			<image style="overflow:visible;enable-background:new    ;" width="572" height="381" id="_Image1" xlink:href="615661EB4782F19D.jpeg"  transform="matrix(0.7117 0 0 0.7114 0 260.468)">
		</image>
	</g>
	<g id="sandbox_1" transform="matrix(1.00151,0,0,0.99737,581.443,0)">
		
			<image style="overflow:visible;enable-background:new    ;" width="278" height="186" id="_Image2" xlink:href="615661EB4782F19F.jpeg"  transform="matrix(0.7127 0 0 0.7098 413.7711 260.4349)">
		</image>
	</g>
	<rect x="413.8" y="399.6" class="st0" width="198.2" height="132"/>
	<g>
		<defs>
			<rect id="SVGID_1_" x="413.8" y="399.6" width="198.2" height="132"/>
		</defs>
		<clipPath id="SVGID_2_">
			<use xlink:href="#SVGID_1_"  style="overflow:visible;"/>
		</clipPath>
		<g class="st1">
			<g id="sandbox_2" transform="matrix(1.002,0,0,0.99737,581.443,195.489)">
				
					<image style="overflow:visible;enable-background:new    ;" width="278" height="186" id="_Image4" xlink:href="615661EB4782F19D.jpeg"  transform="matrix(0.7131 0 0 0.7098 413.7711 399.5503)">
				</image>
			</g>
		</g>
	</g>
	<g>
		<rect y="260.4" class="st2" width="407.1" height="271.1"/>
		<g id="Startups">
			<defs>
				<rect id="SVGID_3_" y="260.4" width="407.1" height="271.1"/>
			</defs>
			<clipPath id="SVGID_4_">
				<use xlink:href="#SVGID_3_"  style="overflow:visible;"/>
			</clipPath>
			<g class="st3">
				<g>
					<defs>
						<polygon id="SVGID_5_" points="2393.8,971.4 305.8,-450.5 -355.7,900.8 1732.3,2322.7 2393.8,971.4 						"/>
					</defs>
					<clipPath id="SVGID_6_">
						<use xlink:href="#SVGID_5_"  style="overflow:visible;"/>
					</clipPath>
					<g class="st4">
						<g transform="matrix(0.998331,0,0,1,-1.13687e-13,0)">
							
								<image style="overflow:visible;enable-background:new    ;" width="573" height="381" id="_Image7" xlink:href="615661EB4782F19B.png"  transform="matrix(0.7104 0 0 0.7116 0 260.4349)">
							</image>
						</g>
					</g>
				</g>
			</g>
			<g id="RNN" class="st3">
				<path class="st5" d="M179.3,362.2c3.1-19.6,21.3-32.9,40.7-29.8c19.3,3.2,32.5,21.7,29.3,41.3c-3.1,19.6-21.3,32.9-40.7,29.8
					c-3.1-0.5-6-1.4-8.9-2.7c2.8,1.3,5.8,2.2,8.9,2.7c19.3,3.2,37.5-10.2,40.7-29.8c3.1-19.6-10-38.1-29.3-41.3
					C200.6,329.2,182.4,342.6,179.3,362.2L179.3,362.2z"/>
				<path class="st6" d="M157.9,378.4c-1.7,10.6,5.4,20.5,15.8,22.3c10.4,1.7,20.2-5.5,21.9-16.1c1.7-10.6-5.4-20.5-15.8-22.3
					C169.5,360.6,159.6,367.8,157.9,378.4L157.9,378.4z"/>
				<path class="st5" d="M191.1,396.8l6.5,8.5l4.1-8.7L191.1,396.8z"/>
				<path class="st5" d="M112.1,407.4l165.6-63.9"/>
			</g>
		</g>
	</g>
</g>
<rect x="38" y="438" class="st2" width="315" height="72"/>
<text transform="matrix(1 0 0 1 38 462.1396)"><tspan x="0" y="0" class="st0 st7 st8">Warum R?</tspan><tspan x="0" y="40.8" class="st0 st7 st9">HdM </tspan><tspan x="51.6" y="40.8" class="st0 st7 st9">meets R</tspan></text>
</svg>
