<?xml version="1.0" encoding="UTF-8" standalone="no"?>
<!DOCTYPE svg PUBLIC "-//W3C//DTD SVG 1.1//EN" "http://www.w3.org/Graphics/SVG/1.1/DTD/svg11.dtd">
<svg width="100%" height="100%" viewBox="0 0 32 32" version="1.1" xmlns="http://www.w3.org/2000/svg" xmlns:xlink="http://www.w3.org/1999/xlink" xml:space="preserve" xmlns:serif="http://www.serif.com/" style="fill-rule:evenodd;clip-rule:evenodd;stroke-linejoin:round;stroke-miterlimit:1.41421;">
    <g transform="matrix(1.34843,0,0,0.796353,-6.93148,1.82759)">
        <path d="M27.387,8.348C27.387,7.036 26.758,5.972 25.983,5.972L8.029,5.972C7.254,5.972 6.625,7.036 6.625,8.348C6.625,9.659 7.254,10.723 8.029,10.723L25.983,10.723C26.758,10.723 27.387,9.659 27.387,8.348Z" style="fill:white;"/>
    </g>
    <g transform="matrix(1.34843,0,0,0.796353,-6.93148,9.35243)">
        <path d="M27.387,8.348C27.387,7.036 26.758,5.972 25.983,5.972L8.029,5.972C7.254,5.972 6.625,7.036 6.625,8.348C6.625,9.659 7.254,10.723 8.029,10.723L25.983,10.723C26.758,10.723 27.387,9.659 27.387,8.348Z" style="fill:white;"/>
    </g>
    <g transform="matrix(1.34843,0,0,0.796353,-6.93148,16.8773)">
        <path d="M27.387,8.348C27.387,7.036 26.758,5.972 25.983,5.972L8.029,5.972C7.254,5.972 6.625,7.036 6.625,8.348C6.625,9.659 7.254,10.723 8.029,10.723L25.983,10.723C26.758,10.723 27.387,9.659 27.387,8.348Z" style="fill:white;"/>
    </g>
</svg>
