<svg height="436pt" viewBox="0 -13 436.90496 436" width="436pt" xmlns="http://www.w3.org/2000/svg"><path d="m307.199219 280.332031h-177.492188c-3.769531 0-6.828125-3.054687-6.828125-6.828125v-22.222656c0-19.089844 21.109375-32.390625 40.058594-32.390625h24.914062c3.769532 0 6.828126 3.054687 6.828126 6.828125s-3.058594 6.828125-6.828126 6.828125h-24.914062c-13.328125 0-26.402344 9.28125-26.402344 18.734375v15.398438h163.839844v-18.328126c0-7.980468-11.386719-15.804687-22.992188-15.804687h-29.46875c-3.769531 0-6.824218-3.054687-6.824218-6.828125s3.054687-6.828125 6.824218-6.828125h29.46875c17.332032 0 36.644532 12.101563 36.644532 29.460937v25.152344c0 3.773438-3.058594 6.828125-6.828125 6.828125zm0 0"/><path d="m279.898438 174.519531c-.183594 0-.371094-.007812-.5625-.019531-3.757813-.316406-6.554688-3.609375-6.246094-7.367188l3.414062-41.667968c-.023437-23.519532-18.214844-43.105469-40.570312-43.105469h-34.960938c-22.355468 0-40.546875 19.585937-40.546875 43.667969l3.390625 41.105468c.308594 3.757813-2.488281 7.054688-6.246094 7.367188-3.746093.226562-7.050781-2.488281-7.359374-6.246094l-3.414063-41.667968c-.023437-32.167969 24.289063-57.878907 54.175781-57.878907h34.960938c29.886718 0 54.199218 25.710938 54.199218 57.320313l-3.4375 42.226562c-.292968 3.566406-3.277343 6.265625-6.796874 6.265625zm0 0"/><path d="m218.453125 239.371094c-19.691406 0-37.570313-7.285156-47.816406-19.5-12.421875-14.8125-20.449219-35.40625-20.449219-52.464844v-27.515625c0-11.605469.261719-18.316406 5.660156-21.296875 4.820313-2.695312 9.375.199219 13.390625 2.71875 5.339844 3.367188 13.40625 8.449219 26.578125 8.449219 10.636719 0 23.425782-3.253907 35.792969-6.394531 19.980469-5.074219 37.238281-9.460938 47.660156-1.355469 4.945313 3.847656 7.449219 9.859375 7.449219 17.882812v27.511719c0 17.0625-8.023438 37.652344-20.449219 52.46875-10.246093 12.210938-28.121093 19.496094-47.816406 19.496094zm-54.535156-105.285156c-.046875 1.527343-.078125 3.425781-.078125 5.804687v27.511719c0 13.828125 6.9375 31.390625 17.257812 43.695312 7.570313 9.019532 21.882813 14.621094 37.355469 14.621094s29.785156-5.601562 37.359375-14.621094c10.316406-12.304687 17.253906-29.867187 17.253906-43.695312v-27.511719c0-3.585937-.734375-5.980469-2.179687-7.101563-5.15625-4.003906-21.492188.148438-35.914063 3.808594-13.183594 3.347656-26.808594 6.8125-39.15625 6.8125-15.363281 0-25.710937-5.523437-31.898437-9.324218zm0 0"/><path d="m56.613281 360.253906c-1.746093 0-3.492187-.667968-4.828125-2.003906-2.664062-2.664062-2.664062-6.984375 0-9.652344l48.273438-48.273437c2.664062-2.664063 6.984375-2.664063 9.652344 0 2.664062 2.667969 2.664062 6.988281 0 9.65625l-48.269532 48.269531c-1.335937 1.335938-3.082031 2.003906-4.828125 2.003906zm0 0"/><path d="m34.132812 410.019531c-8.738281 0-17.484374-3.328125-24.136718-9.980469-6.445313-6.445312-9.996094-15.015624-9.996094-24.132812 0-9.121094 3.550781-17.6875 9.996094-24.132812 13.308594-13.308594 34.96875-13.308594 48.273437 0 6.449219 6.445312 9.996094 15.011718 9.996094 24.132812s-3.546875 17.6875-9.996094 24.132812c-6.652343 6.652344-15.394531 9.980469-24.136719 9.980469zm0-54.582031c-5.246093 0-10.488281 1.992188-14.480468 5.988281-3.867188 3.867188-6 9.003907-6 14.476563 0 5.476562 2.132812 10.617187 6 14.480468 7.984375 7.988282 20.976562 7.980469 28.964844 0 3.867187-3.867187 5.996093-9.003906 5.996093-14.480468 0-5.472656-2.128906-10.613282-5.996093-14.476563-3.996094-3.996093-9.242188-5.988281-14.484376-5.988281zm0 0"/><path d="m382.78125 360.253906c-1.746094 0-3.496094-.667968-4.828125-2.003906l-48.273437-48.269531c-2.664063-2.667969-2.664063-6.988281 0-9.65625 2.667968-2.664063 6.988281-2.664063 9.652343 0l48.273438 48.273437c2.667969 2.667969 2.667969 6.988282 0 9.652344-1.332031 1.335938-3.078125 2.003906-4.824219 2.003906zm0 0"/><path d="m402.773438 410.019531c-8.742188 0-17.484376-3.328125-24.136719-9.980469-6.445313-6.445312-9.996094-15.015624-9.996094-24.136718 0-9.117188 3.550781-17.683594 9.996094-24.132813 13.308593-13.304687 34.96875-13.304687 48.273437 0 6.445313 6.445313 9.996094 15.015625 9.996094 24.132813 0 9.121094-3.550781 17.6875-9.996094 24.136718-6.652344 6.652344-15.398437 9.980469-24.136718 9.980469zm0-54.582031c-5.246094 0-10.488282 1.992188-14.484376 5.988281-3.867187 3.867188-5.996093 9.003907-5.996093 14.476563 0 5.476562 2.128906 10.617187 5.996093 14.480468 7.988282 7.988282 20.980469 7.988282 28.96875 0 3.867188-3.867187 5.996094-9.003906 5.996094-14.480468 0-5.472656-2.128906-10.613282-5.996094-14.476563-3.996093-3.996093-9.242187-5.988281-14.484374-5.988281zm0 0"/><path d="m109.226562 116.492188c-1.800781 0-3.597656-.707032-4.9375-2.113282l-52.613281-55.101562c-2.601562-2.726563-2.503906-7.046875.222657-9.652344 2.71875-2.597656 7.046874-2.515625 9.652343.226562l52.613281 55.101563c2.601563 2.726563 2.503907 7.046875-.222656 9.652344-1.320312 1.257812-3.019531 1.886719-4.714844 1.886719zm0 0"/><path d="m34.132812 68.683594c-8.742187 0-17.484374-3.324219-24.136718-9.980469-6.445313-6.445313-9.996094-15.011719-9.996094-24.128906 0-9.121094 3.550781-17.6875 9.996094-24.136719 13.308594-13.304688 34.96875-13.304688 48.273437 0 6.449219 6.445312 9.996094 15.015625 9.996094 24.136719 0 9.117187-3.546875 17.683593-9.996094 24.132812-6.652343 6.652344-15.394531 9.976563-24.136719 9.976563zm0-54.578125c-5.242187 0-10.488281 1.992187-14.480468 5.984375-3.867188 3.867187-6 9.007812-6 14.484375 0 5.472656 2.132812 10.613281 6 14.476562 7.984375 7.988281 20.976562 7.980469 28.964844 0 3.867187-3.867187 5.996093-9.003906 5.996093-14.476562 0-5.476563-2.128906-10.617188-5.996093-14.480469-3.996094-3.996094-9.242188-5.988281-14.484376-5.988281zm0 0"/><path d="m334.503906 116.492188c-1.597656 0-3.199218-.558594-4.496094-1.691407-2.835937-2.480469-3.121093-6.792969-.636718-9.636719l48.273437-55.097656c2.476563-2.839844 6.789063-3.121094 9.636719-.632812 2.832031 2.476562 3.117188 6.792968.632812 9.632812l-48.273437 55.101563c-1.347656 1.539062-3.238281 2.324219-5.136719 2.324219zm0 0"/><path d="m402.738281 68.691406c-7.445312 0-14.945312-2.417968-21.210937-7.40625-14.730469-11.714844-17.179688-33.226562-5.464844-47.960937 11.710938-14.734375 33.230469-17.179688 47.960938-5.464844 14.726562 11.710937 17.175781 33.230469 5.46875 47.960937-6.734376 8.457032-16.703126 12.871094-26.753907 12.871094zm-15.992187-46.871094c-7.03125 8.84375-5.558594 21.75 3.28125 28.785157 8.839844 7.019531 21.738281 5.558593 28.773437-3.289063 7.027344-8.832031 5.558594-21.746094-3.277343-28.777344-8.84375-7.027343-21.746094-5.554687-28.777344 3.28125zm0 0"/><path d="m402.738281 239.359375c-7.445312 0-14.945312-2.421875-21.210937-7.40625-14.730469-11.714844-17.179688-33.230469-5.464844-47.960937 11.710938-14.734376 33.230469-17.1875 47.960938-5.46875 14.726562 11.714843 17.175781 33.234374 5.46875 47.960937-6.734376 8.460937-16.703126 12.875-26.753907 12.875zm-15.992187-46.875c-7.03125 8.847656-5.558594 21.753906 3.28125 28.785156 8.839844 7.019531 21.738281 5.5625 28.773437-3.285156 7.027344-8.832031 5.558594-21.746094-3.277343-28.78125-8.84375-7.023437-21.746094-5.550781-28.777344 3.28125zm0 0"/><path d="m34.097656 239.359375c-7.445312 0-14.945312-2.421875-21.210937-7.40625-14.730469-11.714844-17.179688-33.230469-5.464844-47.960937 11.714844-14.734376 33.226563-17.1875 47.960937-5.46875 14.730469 11.714843 17.179688 33.234374 5.46875 47.960937-6.734374 8.460937-16.703124 12.875-26.753906 12.875zm-15.992187-46.875c-7.027344 8.847656-5.558594 21.753906 3.28125 28.785156 8.835937 7.019531 21.742187 5.5625 28.777343-3.285156 7.023438-8.832031 5.554688-21.746094-3.28125-28.78125-8.839843-7.023437-21.75-5.550781-28.777343 3.28125zm0 0"/><path d="m122.878906 212.066406h-61.4375c-3.769531 0-6.828125-3.054687-6.828125-6.828125 0-3.773437 3.058594-6.824219 6.828125-6.824219h61.4375c3.769532 0 6.828125 3.050782 6.828125 6.824219 0 3.773438-3.058593 6.828125-6.828125 6.828125zm0 0"/><path d="m375.464844 212.066406h-61.4375c-3.769532 0-6.828125-3.054687-6.828125-6.828125 0-3.773437 3.058593-6.824219 6.828125-6.824219h61.4375c3.773437 0 6.828125 3.050782 6.828125 6.824219 0 3.773438-3.054688 6.828125-6.828125 6.828125zm0 0"/></svg>