<svg height="582.54168pt" viewBox="-18 -18 582.54168 582.54168" width="582.54168pt" xmlns="http://www.w3.org/2000/svg"><path d="m384 264.53125h-221.867188c-4.710937 0-8.535156-3.8125-8.535156-8.53125v-27.78125c0-23.859375 26.386719-40.484375 50.074219-40.484375h32.558594c4.710937 0 8.535156 3.8125 8.535156 8.53125 0 4.714844-3.824219 8.535156-8.535156 8.535156h-32.558594c-16.660156 0-33.003906 11.601563-33.003906 23.417969v19.246094h204.800781v-22.902344c0-9.976562-14.234375-19.761719-28.742188-19.761719h-36.824218c-4.710938 0-8.535156-3.820312-8.535156-8.535156 0-4.71875 3.824218-8.53125 8.535156-8.53125h36.824218c21.667969 0 45.808594 15.121094 45.808594 36.828125v31.4375c0 4.71875-3.824218 8.53125-8.535156 8.53125zm0 0"/><path d="m349.875 132.265625c-.230469 0-.464844-.007813-.703125-.023437-4.699219-.390626-8.195313-4.507813-7.808594-9.210938l4.265625-52.078125c-.027344-29.398437-22.769531-53.886719-50.710937-53.886719h-43.703125c-27.941406 0-50.683594 24.488282-50.683594 54.582032l4.238281 51.382812c.386719 4.703125-3.109375 8.820312-7.808593 9.210938-4.679688.339843-8.8125-3.117188-9.195313-7.808594l-4.269531-52.085938c-.027344-40.207031 30.363281-72.347656 67.71875-72.347656h43.703125c37.355469 0 67.746093 32.140625 67.746093 71.648438l-4.296874 52.785156c-.363282 4.457031-4.09375 7.832031-8.492188 7.832031zm0 0"/><path d="m273.066406 213.335938c-24.613281 0-46.964844-9.113282-59.769531-24.375-15.527344-18.515626-25.5625-44.257813-25.5625-65.585938v-34.390625c0-14.511719.328125-22.898437 7.074219-26.625 6.027344-3.355469 11.71875.242187 16.738281 3.402344 6.675781 4.207031 16.757813 10.558593 33.222656 10.558593 13.296875 0 29.285157-4.070312 44.742188-7.996093 24.976562-6.339844 46.546875-11.824219 59.574219-1.6875 6.183593 4.808593 9.3125 12.324219 9.3125 22.347656v34.394531c0 21.324219-10.03125 47.066406-25.5625 65.582032-12.804688 15.261718-35.148438 24.375-59.769532 24.375zm-68.167968-131.613282c-.058594 1.910156-.097657 4.289063-.097657 7.261719v34.390625c0 17.285156 8.671875 39.234375 21.570313 54.617188 9.464844 11.273437 27.355468 18.273437 46.695312 18.273437s37.230469-7 46.699219-18.273437c12.894531-15.382813 21.566406-37.332032 21.566406-54.617188v-34.390625c0-4.488281-.917969-7.476563-2.722656-8.875-6.445313-5.015625-26.867187.183594-44.894531 4.757813-16.480469 4.179687-33.511719 8.515624-48.945313 8.515624-19.203125 0-32.136719-6.90625-39.871093-11.660156zm0 0"/><path d="m230.398438 546.132812h-221.863282c-4.714844 0-8.535156-3.820312-8.535156-8.535156v-27.777344c0-23.863281 26.386719-40.488281 50.074219-40.488281h32.558593c4.710938 0 8.53125 3.816407 8.53125 8.535157 0 4.714843-3.820312 8.535156-8.53125 8.535156h-32.558593c-16.660157 0-33.007813 11.601562-33.007813 23.417968v19.246094h204.800782v-22.910156c0-9.976562-14.234376-19.753906-28.738282-19.753906h-36.824218c-4.710938 0-8.53125-3.820313-8.53125-8.535156 0-4.71875 3.820312-8.535157 8.53125-8.535157h36.824218c21.667969 0 45.808594 15.125 45.808594 36.824219v31.441406c0 4.714844-3.824219 8.535156-8.539062 8.535156zm0 0"/><path d="m196.273438 413.867188c-.226563 0-.46875-.007813-.703126-.023438-4.703124-.398438-8.195312-4.511719-7.804687-9.210938l4.265625-52.085937c-.03125-29.398437-22.769531-53.878906-50.710938-53.878906h-43.703124c-27.949219 0-50.683594 24.480469-50.683594 54.582031l4.238281 51.382812c.386719 4.699219-3.109375 8.820313-7.808594 9.210938-4.730469.378906-8.8125-3.109375-9.199219-7.808594l-4.265624-52.085937c-.03125-40.207031 30.359374-72.347657 67.71875-72.347657h43.703124c37.355469 0 67.746094 32.140626 67.746094 71.648438l-4.296875 52.785156c-.363281 4.457032-4.097656 7.832032-8.496093 7.832032zm0 0"/><path d="m119.46875 494.929688c-24.621094 0-46.964844-9.105469-59.773438-24.375-15.53125-18.515626-25.558593-44.257813-25.558593-65.578126v-34.394531c0-14.507812.324219-22.894531 7.074219-26.621093 6.019531-3.359376 11.722656.238281 16.738281 3.398437 6.667969 4.207031 16.757812 10.5625 33.222656 10.5625 13.289063 0 29.28125-4.070313 44.742187-7.996094 24.980469-6.339843 46.542969-11.835937 59.574219-1.691406 6.175781 4.808594 9.3125 12.320313 9.3125 22.351563v34.390624c0 21.328126-10.035156 47.0625-25.5625 65.585938-12.808593 15.261719-35.15625 24.367188-59.769531 24.367188zm-68.175781-131.605469c-.050781 1.910156-.089844 4.285156-.089844 7.257812v34.394531c0 17.285157 8.664063 39.234376 21.566406 54.617188 9.460938 11.273438 27.355469 18.273438 46.699219 18.273438 19.339844 0 37.230469-7 46.695312-18.273438 12.898438-15.382812 21.570313-37.332031 21.570313-54.617188v-34.394531c0-4.484375-.917969-7.472656-2.726563-8.871093-6.445312-5.023438-26.867187.183593-44.890624 4.753906-16.480469 4.183594-33.511719 8.515625-48.945313 8.515625-19.203125 0-32.140625-6.902344-39.878906-11.65625zm0 0"/><path d="m537.597656 546.132812h-221.863281c-4.714844 0-8.53125-3.820312-8.53125-8.535156v-27.777344c0-23.863281 26.386719-40.488281 50.066406-40.488281h32.554688c4.710937 0 8.53125 3.816407 8.53125 8.535157 0 4.714843-3.820313 8.535156-8.53125 8.535156h-32.554688c-16.660156 0-33.003906 11.601562-33.003906 23.417968v19.246094h204.800781v-22.910156c0-9.976562-14.230468-19.753906-28.738281-19.753906h-36.828125c-4.710938 0-8.53125-3.820313-8.53125-8.535156 0-4.71875 3.820312-8.535157 8.53125-8.535157h36.828125c21.667969 0 45.804687 15.125 45.804687 36.824219v31.441406c0 4.714844-3.820312 8.535156-8.535156 8.535156zm0 0"/><path d="m503.476562 413.867188c-.234374 0-.46875-.007813-.703124-.023438-4.703126-.398438-8.199219-4.511719-7.8125-9.210938l4.265624-52.085937c-.027343-29.398437-22.761718-53.878906-50.710937-53.878906h-43.695313c-27.949218 0-50.683593 24.480469-50.683593 54.582031l4.230469 51.382812c.390624 4.699219-3.101563 8.820313-7.804688 9.210938-4.722656.378906-8.8125-3.109375-9.199219-7.808594l-4.269531-52.085937c-.027344-40.207031 30.363281-72.347657 67.726562-72.347657h43.695313c37.359375 0 67.75 32.140626 67.75 71.648438l-4.296875 52.785156c-.367188 4.457032-4.09375 7.832032-8.492188 7.832032zm0 0"/><path d="m426.664062 494.929688c-24.613281 0-46.960937-9.105469-59.769531-24.375-15.527343-18.515626-25.5625-44.257813-25.5625-65.578126v-34.394531c0-14.507812.328125-22.894531 7.082031-26.621093 6.03125-3.359376 11.71875.238281 16.738282 3.398437 6.667968 4.207031 16.753906 10.5625 33.214844 10.5625 13.296874 0 29.289062-4.070313 44.742187-7.996094 24.980469-6.339843 46.542969-11.835937 59.582031-1.691406 6.175782 4.808594 9.308594 12.320313 9.308594 22.351563v34.390624c0 21.328126-10.03125 47.0625-25.558594 65.585938-12.8125 15.261719-35.15625 24.367188-59.777344 24.367188zm-68.167968-131.605469c-.058594 1.910156-.097656 4.285156-.097656 7.257812v34.394531c0 17.285157 8.671874 39.234376 21.570312 54.617188 9.464844 11.273438 27.355469 18.273438 46.695312 18.273438 19.34375 0 37.238282-7 46.699219-18.273438 12.902344-15.382812 21.566407-37.332031 21.566407-54.617188v-34.394531c0-4.484375-.914063-7.472656-2.722657-8.871093-6.441406-5.023438-26.863281.183593-44.886719 4.753906-16.484374 4.183594-33.515624 8.515625-48.945312 8.515625-19.210938 0-32.140625-6.902344-39.878906-11.65625zm0 0"/><path d="m273.066406 366.933594c-4.710937 0-8.535156-3.816406-8.535156-8.535156v-76.796876c0-4.71875 3.824219-8.535156 8.535156-8.535156 4.710938 0 8.535156 3.816406 8.535156 8.535156v76.796876c0 4.71875-3.824218 8.535156-8.535156 8.535156zm0 0"/><path d="m315.734375 409.601562c-2.183594 0-4.367187-.835937-6.03125-2.5l-36.636719-36.636718-36.636718 36.636718c-3.328126 3.328126-8.730469 3.328126-12.0625 0-3.332032-3.332031-3.332032-8.738281 0-12.066406l42.664062-42.667968c3.335938-3.335938 8.734375-3.335938 12.070312 0l42.664063 42.667968c3.332031 3.328125 3.332031 8.734375 0 12.066406-1.664063 1.664063-3.851563 2.5-6.03125 2.5zm0 0"/></svg>