<?xml version="1.0" encoding="UTF-8" standalone="no"?>
<!DOCTYPE svg PUBLIC "-//W3C//DTD SVG 1.1//EN" "http://www.w3.org/Graphics/SVG/1.1/DTD/svg11.dtd">
<svg width="100%" height="100%" viewBox="0 0 1338 382" version="1.1" xmlns="http://www.w3.org/2000/svg" xmlns:xlink="http://www.w3.org/1999/xlink" xml:space="preserve" xmlns:serif="http://www.serif.com/" style="fill-rule:evenodd;clip-rule:evenodd;stroke-linejoin:round;stroke-miterlimit:1.41421;">
    <g transform="matrix(1,0,0,1,-40.3054,-45.4396)">
        <g id="Ebene-1" serif:id="Ebene 1" transform="matrix(4.16667,0,0,4.16667,0,0)">
            <g transform="matrix(1,0,0,1,136.475,35.4755)">
                <path d="M0,-23.661L-3.815,-23.661L-11.445,-4.866L-11.515,-4.866L-19.11,-23.661L-23.275,-23.661L-23.275,0.489L-19.635,0.489L-19.635,-15.506L-19.565,-15.506L-13.09,0.489L-10.185,0.489L-3.745,-15.506L-3.675,-15.506L-3.675,0.489L0,0.489L0,-23.661ZM9.03,-16.416L5.46,-16.416L5.46,0.489L9.03,0.489L9.03,-16.416ZM9.52,-22.19C9.52,-23.591 8.54,-24.466 7.245,-24.466C5.95,-24.466 5.005,-23.591 5.005,-22.19C5.005,-20.826 5.95,-19.951 7.245,-19.951C8.54,-19.951 9.52,-20.826 9.52,-22.19M22.749,-16.416L18.234,-16.416L18.234,-21.105L15.084,-21.105L14.664,-16.381L12.354,-15.961L12.354,-13.511L14.664,-13.511L14.664,-5.251C14.664,-0.945 16.169,0.874 19.704,0.874C21.524,0.874 22.504,0.315 22.819,0.14L22.504,-2.591C22.189,-2.451 21.489,-2.171 20.614,-2.171C18.899,-2.171 18.234,-3.081 18.234,-5.636L18.234,-13.511L22.364,-13.511L22.749,-16.416ZM34.964,-16.416L30.449,-16.416L30.449,-21.105L27.299,-21.105L26.879,-16.381L24.569,-15.961L24.569,-13.511L26.879,-13.511L26.879,-5.251C26.879,-0.945 28.384,0.874 31.919,0.874C33.739,0.874 34.719,0.315 35.034,0.14L34.719,-2.591C34.404,-2.451 33.704,-2.171 32.829,-2.171C31.114,-2.171 30.449,-3.081 30.449,-5.636L30.449,-13.511L34.579,-13.511L34.964,-16.416ZM50.749,-10.15C50.749,-14.491 48.544,-16.836 44.974,-16.836C40.984,-16.836 37.484,-14.105 37.484,-8.121C37.484,-1.786 40.529,0.909 45.254,0.909C49.034,0.909 50.504,-0.596 51.029,-1.121L50.119,-3.64C49.664,-3.256 48.299,-2.136 45.849,-2.136C42.909,-2.136 41.159,-3.64 40.949,-7.105L50.434,-7.105C50.609,-7.911 50.749,-8.855 50.749,-10.15M44.659,-13.966C46.444,-13.966 47.529,-12.706 47.529,-10.605C47.529,-10.291 47.529,-10.011 47.459,-9.626L40.914,-9.626C41.089,-12.461 42.594,-13.966 44.659,-13.966M58.484,-24.57L54.949,-24.221L54.949,-3.886C54.949,-0.35 56.419,0.805 58.904,0.805C60.339,0.805 61.25,0.384 61.494,0.209L61.285,-2.275C61.074,-2.206 60.654,-2.065 60.059,-2.065C58.939,-2.065 58.484,-2.556 58.484,-4.27L58.484,-24.57ZM74.164,-15.261C73.57,-15.751 72.205,-16.836 69.474,-16.836C66.15,-16.836 63.734,-14.98 63.734,-12.251C63.734,-9.765 65.064,-8.331 67.479,-7.105L68.599,-6.511C70.419,-5.53 71.33,-5.076 71.33,-3.711C71.33,-2.765 70.279,-2.1 68.424,-2.1C66.464,-2.1 65.169,-3.15 64.469,-3.85L63.279,-0.876C64.049,-0.176 65.589,0.909 68.494,0.909C72.66,0.909 74.689,-1.225 74.689,-4.06C74.689,-6.65 73.15,-8.086 70.525,-9.381L69.369,-9.94C67.689,-10.78 66.99,-11.306 66.99,-12.426C66.99,-13.265 67.83,-13.931 69.474,-13.931C71.294,-13.931 72.554,-12.951 73.115,-12.53L74.164,-15.261ZM87.359,-16.416L82.843,-16.416L82.843,-21.105L79.693,-21.105L79.273,-16.381L76.964,-15.961L76.964,-13.511L79.273,-13.511L79.273,-5.251C79.273,-0.945 80.779,0.874 84.313,0.874C86.133,0.874 87.113,0.315 87.428,0.14L87.113,-2.591C86.799,-2.451 86.098,-2.171 85.223,-2.171C83.508,-2.171 82.843,-3.081 82.843,-5.636L82.843,-13.511L86.973,-13.511L87.359,-16.416ZM89.668,-4.025C89.668,-1.086 91.558,0.909 94.324,0.909C96.878,0.909 98.138,-0.386 98.734,-1.366L98.803,-1.366C98.803,-0.631 98.873,-0.001 98.908,0.489L102.234,0.489C102.128,-0.246 101.988,-1.82 101.988,-3.501L101.988,-10.011C101.988,-14.666 99.923,-16.836 96.074,-16.836C92.783,-16.836 90.928,-15.366 90.088,-14.631L91.279,-12.216C91.943,-12.775 93.343,-13.791 95.373,-13.791C97.438,-13.791 98.523,-12.671 98.523,-10.081L98.523,-9.1L97.438,-9.1C93.063,-9.1 89.668,-7.525 89.668,-4.025M95.234,-1.961C94.078,-1.961 93.098,-2.871 93.098,-4.306C93.098,-5.916 94.463,-6.581 97.228,-6.721L98.523,-6.791L98.523,-3.36C97.963,-2.73 97.018,-1.961 95.234,-1.961M120.748,0.489L120.748,-10.081C120.748,-14.525 118.789,-16.836 115.183,-16.836C112.348,-16.836 110.773,-15.331 110.109,-14.525L110.039,-14.525L110.039,-16.416L106.748,-16.416L106.748,0.489L110.318,0.489L110.318,-12.216C111.018,-12.881 112.279,-13.756 114.133,-13.756C116.303,-13.756 117.213,-12.426 117.213,-9.52L117.213,0.489L120.748,0.489ZM124.633,-7.735C124.633,-2.065 127.398,0.909 131.143,0.909C134.363,0.909 135.553,-0.77 135.973,-1.4L136.043,-1.4L136.043,0.489L139.298,0.489L139.298,-24.57L135.763,-24.221L135.763,-16.1C135.133,-16.451 134.119,-16.801 132.683,-16.801C128.588,-16.801 124.633,-14.001 124.633,-7.735M132.298,-2.171C130.058,-2.171 128.308,-3.746 128.308,-7.945C128.308,-12.041 130.199,-13.791 133.068,-13.791C134.363,-13.791 135.203,-13.44 135.763,-13.056L135.763,-3.711C135.238,-3.081 134.188,-2.171 132.298,-2.171M165.408,-8.155L162.783,-8.155L162.783,-22.261L159.807,-22.261L150.078,-7.876L150.322,-5.181L159.352,-5.181L159.352,0.489L162.783,0.489L162.783,-5.181L165.408,-5.181L165.408,-8.155ZM159.352,-8.155L153.717,-8.155L159.283,-16.836L159.352,-16.836L159.352,-8.155ZM173.072,-1.4C173.072,-2.801 172.092,-3.711 170.762,-3.711C169.432,-3.711 168.488,-2.801 168.488,-1.4C168.488,0.034 169.432,0.909 170.762,0.909C172.092,0.909 173.072,0.034 173.072,-1.4M190.818,-10.886C190.818,-19.11 187.982,-22.681 183.607,-22.681C179.267,-22.681 176.117,-19.181 176.117,-10.886C176.117,-2.661 178.953,0.909 183.328,0.909C187.667,0.909 190.818,-2.591 190.818,-10.886M187.177,-10.886C187.177,-4.376 185.672,-2.171 183.467,-2.171C181.262,-2.171 179.757,-4.376 179.757,-10.886C179.757,-17.291 181.262,-19.6 183.467,-19.6C185.672,-19.6 187.177,-17.291 187.177,-10.886" style="fill:rgb(187,36,25);fill-rule:nonzero;"/>
            </g>
            <g transform="matrix(1,0,0,1,9.6733,41.5726)">
                <path d="M0,24.777L0,-0.001C0,-0.001 0.684,-30.609 33.529,-30.609L56.322,-30.609C56.322,-30.609 89.852,-30.102 89.852,-0.001L89.852,55.386L33.529,55.386C33.529,55.386 0,54.513 0,24.777" style="fill:rgb(187,36,25);fill-rule:nonzero;"/>
            </g>
            <g transform="matrix(1,0,0,1,120.014,60.8607)">
                <path d="M0,-0.431L7.18,9.097L3.563,9.097L-2.375,0.919L-3.887,0.919L-3.887,9.097L-6.802,9.097L-6.802,-9.528L-3.887,-9.528L-3.887,-1.511L-2.321,-1.511L3.428,-9.528L6.694,-9.528L0,-0.431Z" style="fill:rgb(88,89,91);fill-rule:nonzero;"/>
            </g>
            <g transform="matrix(1,0,0,1,133.866,67.9077)">
                <path d="M0,-8.936C-1.754,-8.936 -3.077,-7.586 -3.077,-4.482C-3.077,-1.351 -1.754,-0.001 0,-0.001C1.782,-0.001 3.05,-1.377 3.05,-4.482C3.05,-7.613 1.728,-8.936 0,-8.936M-0.135,2.375C-3.374,2.375 -5.884,0.214 -5.884,-4.482C-5.884,-9.152 -3.023,-11.311 0.135,-11.311C3.374,-11.311 5.857,-9.206 5.857,-4.482C5.857,0.161 2.996,2.375 -0.135,2.375" style="fill:rgb(88,89,91);fill-rule:nonzero;"/>
            </g>
            <g transform="matrix(1,0,0,1,145.341,68.1769)">
                <path d="M0,-9.799L0.054,-9.799C0.567,-10.42 1.754,-11.58 3.887,-11.58C5.425,-11.58 6.559,-10.959 7.234,-9.718C7.909,-10.474 9.205,-11.58 11.256,-11.58C14.171,-11.58 15.656,-9.825 15.656,-6.37L15.656,1.781L12.93,1.781L12.93,-5.939C12.93,-8.234 12.12,-9.205 10.473,-9.205C9.177,-9.205 8.313,-8.53 7.801,-8.044C7.882,-7.531 7.936,-6.965 7.936,-6.37L7.936,1.781L5.209,1.781L5.209,-5.939C5.209,-8.234 4.562,-9.205 3.077,-9.205C1.62,-9.205 0.702,-8.53 0.216,-8.018L0.216,1.781L-2.538,1.781L-2.538,-11.256L0,-11.256L0,-9.799Z" style="fill:rgb(88,89,91);fill-rule:nonzero;"/>
            </g>
            <g transform="matrix(1,0,0,1,167.4,71.8741)">
                <path d="M0,-11.795L0,-4.507C0.459,-4.21 1.107,-3.941 2.024,-3.941C4.4,-3.941 5.75,-5.236 5.75,-8.583C5.75,-11.66 4.535,-12.902 2.646,-12.902C1.269,-12.902 0.432,-12.254 0,-11.795M2.375,-1.647C1.269,-1.647 0.486,-1.889 0,-2.132L0,3.482L-2.753,3.482L-2.753,-14.953L-0.216,-14.953L-0.216,-13.496L-0.162,-13.496C0.216,-14.036 1.296,-15.277 3.617,-15.277C6.613,-15.277 8.557,-13.172 8.557,-8.745C8.557,-3.913 5.938,-1.647 2.375,-1.647" style="fill:rgb(88,89,91);fill-rule:nonzero;"/>
            </g>
            <g transform="matrix(1,0,0,1,181.089,64.7212)">
                <path d="M0,-2.564L5.047,-2.564C5.102,-2.861 5.102,-3.077 5.102,-3.32C5.102,-4.94 4.265,-5.912 2.888,-5.912C1.295,-5.912 0.135,-4.751 0,-2.564M7.342,-0.621L0.027,-0.621C0.188,2.051 1.539,3.212 3.806,3.212C5.695,3.212 6.748,2.348 7.099,2.051L7.801,3.996C7.396,4.4 6.262,5.561 3.347,5.561C-0.297,5.561 -2.646,3.482 -2.646,-1.404C-2.646,-6.019 0.054,-8.125 3.131,-8.125C5.884,-8.125 7.585,-6.316 7.585,-2.969C7.585,-1.97 7.477,-1.242 7.342,-0.621" style="fill:rgb(88,89,91);fill-rule:nonzero;"/>
            </g>
            <g transform="matrix(1,0,0,1,198.476,64.3981)">
                <path d="M0,-5.237L-3.186,-5.237L-3.186,0.836C-3.186,2.807 -2.672,3.508 -1.35,3.508C-0.675,3.508 -0.135,3.292 0.107,3.185L0.351,5.29C0.107,5.425 -0.648,5.857 -2.052,5.857C-4.777,5.857 -5.938,4.453 -5.938,1.133L-5.938,-5.237L-7.721,-5.237L-7.721,-7.127L-5.938,-7.451L-5.615,-11.094L-3.186,-11.094L-3.186,-7.477L0.297,-7.477L0,-5.237Z" style="fill:rgb(88,89,91);fill-rule:nonzero;"/>
            </g>
            <g transform="matrix(1,0,0,1,203.364,64.7212)">
                <path d="M0,-2.564L5.048,-2.564C5.103,-2.861 5.103,-3.077 5.103,-3.32C5.103,-4.94 4.265,-5.912 2.889,-5.912C1.296,-5.912 0.136,-4.751 0,-2.564M7.343,-0.621L0.027,-0.621C0.188,2.051 1.539,3.212 3.806,3.212C5.696,3.212 6.749,2.348 7.099,2.051L7.802,3.996C7.396,4.4 6.263,5.561 3.347,5.561C-0.297,5.561 -2.646,3.482 -2.646,-1.404C-2.646,-6.019 0.054,-8.125 3.132,-8.125C5.885,-8.125 7.585,-6.316 7.585,-2.969C7.585,-1.97 7.478,-1.242 7.343,-0.621" style="fill:rgb(88,89,91);fill-rule:nonzero;"/>
            </g>
            <g transform="matrix(1,0,0,1,222.262,56.597)">
                <path d="M0,13.361L0,5.641C0,3.401 -0.702,2.375 -2.375,2.375C-3.806,2.375 -4.777,3.049 -5.317,3.562L-5.317,13.361L-8.071,13.361L-8.071,0.324L-5.533,0.324L-5.533,1.781L-5.479,1.781C-4.966,1.16 -3.752,0 -1.565,0C1.215,0 2.727,1.781 2.727,5.21L2.727,13.361L0,13.361Z" style="fill:rgb(88,89,91);fill-rule:nonzero;"/>
            </g>
            <g transform="matrix(1,0,0,1,237.139,68.2848)">
                <path d="M0,-9.691L-5.776,-0.621L-5.776,-0.567L0.405,-0.567L0.188,1.673L-9.366,1.673L-9.366,-0.001L-3.481,-9.07L-3.481,-9.124L-9.016,-9.124L-9.016,-11.364L0,-11.364L0,-9.691Z" style="fill:rgb(88,89,91);fill-rule:nonzero;"/>
            </g>
            <g transform="matrix(1,0,0,1,248.857,68.2848)">
                <path d="M0,-9.691L-5.776,-0.621L-5.776,-0.567L0.404,-0.567L0.189,1.673L-9.367,1.673L-9.367,-0.001L-3.482,-9.07L-3.482,-9.124L-9.016,-9.124L-9.016,-11.364L0,-11.364L0,-9.691Z" style="fill:rgb(88,89,91);fill-rule:nonzero;"/>
            </g>
            <g transform="matrix(1,0,0,1,254.07,64.7212)">
                <path d="M0,-2.564L5.047,-2.564C5.102,-2.861 5.102,-3.077 5.102,-3.32C5.102,-4.94 4.265,-5.912 2.889,-5.912C1.295,-5.912 0.135,-4.751 0,-2.564M7.342,-0.621L0.027,-0.621C0.188,2.051 1.539,3.212 3.806,3.212C5.695,3.212 6.748,2.348 7.099,2.051L7.801,3.996C7.396,4.4 6.262,5.561 3.347,5.561C-0.297,5.561 -2.646,3.482 -2.646,-1.404C-2.646,-6.019 0.054,-8.125 3.131,-8.125C5.885,-8.125 7.585,-6.316 7.585,-2.969C7.585,-1.97 7.477,-1.242 7.342,-0.621" style="fill:rgb(88,89,91);fill-rule:nonzero;"/>
            </g>
            <g transform="matrix(1,0,0,1,272.968,56.597)">
                <path d="M0,13.361L0,5.641C0,3.401 -0.702,2.375 -2.375,2.375C-3.807,2.375 -4.777,3.049 -5.318,3.562L-5.318,13.361L-8.071,13.361L-8.071,0.324L-5.533,0.324L-5.533,1.781L-5.48,1.781C-4.967,1.16 -3.752,0 -1.566,0C1.215,0 2.727,1.781 2.727,5.21L2.727,13.361L0,13.361Z" style="fill:rgb(88,89,91);fill-rule:nonzero;"/>
            </g>
            <g transform="matrix(1,0,0,1,285.902,64.3981)">
                <path d="M0,-5.237L-3.186,-5.237L-3.186,0.836C-3.186,2.807 -2.673,3.508 -1.35,3.508C-0.676,3.508 -0.136,3.292 0.107,3.185L0.35,5.29C0.107,5.425 -0.648,5.857 -2.053,5.857C-4.778,5.857 -5.939,4.453 -5.939,1.133L-5.939,-5.237L-7.721,-5.237L-7.721,-7.127L-5.939,-7.451L-5.615,-11.094L-3.186,-11.094L-3.186,-7.477L0.297,-7.477L0,-5.237Z" style="fill:rgb(88,89,91);fill-rule:nonzero;"/>
            </g>
            <g transform="matrix(1,0,0,1,295.567,67.3666)">
                <path d="M0,-8.098C-0.135,-8.179 -0.485,-8.314 -1.106,-8.314C-2.726,-8.314 -3.644,-7.45 -4.049,-6.694L-4.049,2.591L-6.802,2.591L-6.802,-10.446L-4.265,-10.446L-4.265,-8.583L-4.211,-8.583C-3.726,-9.636 -2.834,-10.689 -0.917,-10.689C-0.378,-10.689 0.027,-10.581 0.216,-10.527L0,-8.098Z" style="fill:rgb(88,89,91);fill-rule:nonzero;"/>
            </g>
            <g transform="matrix(1,0,0,1,308.687,57.245)">
                <path d="M0,12.713L-2.51,12.713L-2.51,11.255L-2.563,11.255C-3.022,11.795 -4.075,13.037 -6.451,13.037C-9.204,13.037 -10.662,11.31 -10.662,7.827L-10.662,-0.324L-7.908,-0.324L-7.908,7.368C-7.908,9.69 -7.233,10.661 -5.613,10.661C-4.129,10.661 -3.293,10.014 -2.752,9.501L-2.752,-0.324L0,-0.324L0,12.713Z" style="fill:rgb(88,89,91);fill-rule:nonzero;"/>
            </g>
            <g transform="matrix(1,0,0,1,314.954,68.1769)">
                <path d="M0,-9.799L0.054,-9.799C0.567,-10.42 1.755,-11.58 3.887,-11.58C5.425,-11.58 6.56,-10.959 7.233,-9.718C7.909,-10.474 9.204,-11.58 11.256,-11.58C14.171,-11.58 15.655,-9.825 15.655,-6.37L15.655,1.781L12.93,1.781L12.93,-5.939C12.93,-8.234 12.12,-9.205 10.474,-9.205C9.177,-9.205 8.313,-8.53 7.801,-8.044C7.882,-7.531 7.937,-6.965 7.937,-6.37L7.937,1.781L5.21,1.781L5.21,-5.939C5.21,-8.234 4.562,-9.205 3.077,-9.205C1.62,-9.205 0.702,-8.53 0.216,-8.018L0.216,1.781L-2.538,1.781L-2.538,-11.256L0,-11.256L0,-9.799Z" style="fill:rgb(88,89,91);fill-rule:nonzero;"/>
            </g>
            <g transform="matrix(1,0,0,1,127.141,86.404)">
                <path d="M0,2.807C0,8.179 -2.375,10.878 -7.126,10.878C-11.877,10.878 -14.09,8.449 -14.09,2.807L-14.09,-8.071L-11.175,-8.071L-11.175,2.888C-11.175,6.748 -9.771,8.395 -6.991,8.395C-4.13,8.395 -2.808,6.829 -2.808,2.888L-2.808,-8.071L0,-8.071L0,2.807Z" style="fill:rgb(88,89,91);fill-rule:nonzero;"/>
            </g>
            <g transform="matrix(1,0,0,1,137.834,93.962)">
                <path d="M0,-7.045C-0.432,-7.369 -1.403,-8.125 -2.807,-8.125C-4.076,-8.125 -4.724,-7.612 -4.724,-6.964C-4.724,-6.101 -4.184,-5.695 -2.888,-5.048L-1.998,-4.616C0.027,-3.617 1.215,-2.511 1.215,-0.513C1.215,1.674 -0.351,3.32 -3.563,3.32C-5.803,3.32 -6.991,2.483 -7.585,1.943L-6.667,-0.351C-6.127,0.188 -5.128,0.999 -3.617,0.999C-2.187,0.999 -1.376,0.485 -1.376,-0.243C-1.376,-1.296 -2.079,-1.647 -3.482,-2.402L-4.346,-2.861C-6.208,-3.806 -7.234,-4.913 -7.234,-6.829C-7.234,-8.935 -5.372,-10.365 -2.807,-10.365C-0.702,-10.365 0.351,-9.528 0.81,-9.15L0,-7.045Z" style="fill:rgb(88,89,91);fill-rule:nonzero;"/>
            </g>
            <g transform="matrix(1,0,0,1,147.959,86.8893)">
                <path d="M0,7.1L0,4.454L-0.999,4.508C-3.131,4.617 -4.184,5.129 -4.184,6.371C-4.184,7.478 -3.428,8.179 -2.537,8.179C-1.161,8.179 -0.432,7.585 0,7.1M-0.836,2.672L0,2.672L0,1.917C0,-0.081 -0.836,-0.944 -2.429,-0.944C-3.995,-0.944 -5.074,-0.162 -5.587,0.27L-6.505,-1.592C-5.857,-2.159 -4.427,-3.293 -1.889,-3.293C1.08,-3.293 2.672,-1.619 2.672,1.971L2.672,6.992C2.672,8.287 2.78,9.502 2.861,10.069L0.297,10.069C0.27,9.691 0.216,9.204 0.216,8.638L0.162,8.638C-0.297,9.394 -1.269,10.393 -3.239,10.393C-5.372,10.393 -6.829,8.854 -6.829,6.586C-6.829,3.887 -4.21,2.672 -0.836,2.672" style="fill:rgb(88,89,91);fill-rule:nonzero;"/>
            </g>
            <g transform="matrix(1,0,0,1,159.623,88.9417)">
                <path d="M0,-2.97C-1.295,-2.97 -2.186,-2.322 -2.672,-1.836L-2.672,5.56C-2.348,5.776 -1.889,6.046 -0.972,6.046C1.485,6.046 2.997,4.804 2.997,1.268C2.997,-1.62 1.835,-2.97 0,-2.97M-0.917,8.286C-3.347,8.286 -4.616,7.53 -5.425,6.991L-5.425,-11.04L-2.672,-11.256L-2.672,-3.861L-2.618,-3.861C-2.024,-4.508 -0.81,-5.345 1.134,-5.345C3.941,-5.345 5.831,-3.132 5.831,0.918C5.831,6.289 2.861,8.286 -0.917,8.286" style="fill:rgb(88,89,91);fill-rule:nonzero;"/>
            </g>
            <g transform="matrix(1,0,0,1,0,70.043)">
                <path d="M171.261,26.915L168.508,26.915L168.508,13.878L171.261,13.878L171.261,26.915ZM169.884,11.151C168.885,11.151 168.157,10.477 168.157,9.424C168.157,8.344 168.885,7.669 169.884,7.669C170.883,7.669 171.639,8.344 171.639,9.424C171.639,10.477 170.883,11.151 169.884,11.151" style="fill:rgb(88,89,91);fill-rule:nonzero;"/>
            </g>
            <g transform="matrix(1,0,0,1,177.66,81.5451)">
                <path d="M0,11.742C0,13.064 0.351,13.442 1.214,13.442C1.673,13.442 1.998,13.335 2.159,13.28L2.321,15.197C2.132,15.332 1.431,15.656 0.324,15.656C-1.593,15.656 -2.727,14.765 -2.727,12.039L-2.727,-3.644L0,-3.914L0,11.742Z" style="fill:rgb(88,89,91);fill-rule:nonzero;"/>
            </g>
            <g transform="matrix(1,0,0,1,0,70.043)">
                <path d="M184.949,26.915L182.196,26.915L182.196,13.878L184.949,13.878L184.949,26.915ZM183.573,11.151C182.574,11.151 181.845,10.477 181.845,9.424C181.845,8.344 182.574,7.669 183.573,7.669C184.571,7.669 185.327,8.344 185.327,9.424C185.327,10.477 184.571,11.151 183.573,11.151" style="fill:rgb(88,89,91);fill-rule:nonzero;"/>
            </g>
            <g transform="matrix(1,0,0,1,195.181,91.3981)">
                <path d="M0,-5.237L-3.186,-5.237L-3.186,0.836C-3.186,2.807 -2.672,3.508 -1.35,3.508C-0.675,3.508 -0.135,3.292 0.107,3.185L0.351,5.29C0.107,5.425 -0.648,5.857 -2.052,5.857C-4.777,5.857 -5.938,4.453 -5.938,1.133L-5.938,-5.237L-7.72,-5.237L-7.72,-7.127L-5.938,-7.451L-5.615,-11.094L-3.186,-11.094L-3.186,-7.477L0.297,-7.477L0,-5.237Z" style="fill:rgb(88,89,91);fill-rule:nonzero;"/>
            </g>
            <g transform="matrix(1,0,0,1,203.498,89.104)">
                <path d="M0,8.232C-1.215,11.795 -2.483,13.415 -5.371,13.415C-6.101,13.415 -6.479,13.225 -6.586,13.171L-6.586,10.85C-6.479,10.904 -6.073,11.04 -5.561,11.04C-3.807,11.04 -3.023,10.203 -2.457,8.42L-2.24,7.773L-7.045,-5.183L-4.104,-5.183L-0.972,4.345L-0.918,4.345L1.943,-5.183L4.643,-5.183L0,8.232Z" style="fill:rgb(88,89,91);fill-rule:nonzero;"/>
            </g>
            <g transform="matrix(1,0,0,1,34.0444,44.2292)">
                <path d="M0,-9.363C6.678,-16.042 15.536,-19.263 24.426,-19.064L24.365,-24.113C14.177,-24.337 4.028,-20.641 -3.625,-12.988C-11.251,-5.362 -14.947,4.74 -14.754,14.889L-9.703,14.974C-9.88,6.114 -6.657,-2.706 0,-9.363" style="fill:white;fill-rule:nonzero;"/>
            </g>
            <g transform="matrix(1,0,0,1,38.3491,51.2119)">
                <path d="M0,-12.041C-5.506,-6.535 -8.166,0.764 -8.011,8.091L-2.645,8.181C-2.781,2.224 -0.624,-3.714 3.852,-8.189C8.337,-12.676 14.29,-14.832 20.26,-14.686L20.195,-20.051C12.846,-20.222 5.521,-17.562 0,-12.041" style="fill:white;fill-rule:nonzero;"/>
            </g>
            <g transform="matrix(1,0,0,1,46.9585,54.8553)">
                <path d="M0,-7.076C-3.204,-3.872 -4.738,0.383 -4.624,4.649L0.742,4.738C0.646,1.843 1.677,-1.05 3.852,-3.223C6.021,-5.393 8.908,-6.426 11.796,-6.334L11.731,-11.7C7.464,-11.814 3.206,-10.282 0,-7.076" style="fill:white;fill-rule:nonzero;"/>
            </g>
            <g transform="matrix(1,0,0,1,93.0405,69.1974)">
                <path d="M0,5.122L0,0.001L-6.499,-1.466C-6.721,-2.171 -7,-2.847 -7.332,-3.497L-3.752,-9.214L-7.316,-12.837L-12.938,-9.202C-13.579,-9.536 -14.242,-9.823 -14.936,-10.048L-16.38,-16.654L-21.414,-16.654L-22.858,-10.044C-23.552,-9.818 -24.215,-9.536 -24.856,-9.198L-30.477,-12.837L-34.042,-9.214L-30.466,-3.497C-30.794,-2.847 -31.077,-2.171 -31.297,-1.466L-37.794,0.001L-37.794,5.122L-31.294,6.59C-31.073,7.295 -30.794,7.97 -30.462,8.62L-34.042,14.338L-30.477,17.961L-24.856,14.325C-24.215,14.658 -23.552,14.947 -22.858,15.172L-21.414,21.776L-16.38,21.776L-14.936,15.168C-14.242,14.942 -13.579,14.658 -12.938,14.321L-7.316,17.961L-3.752,14.338L-7.328,8.62C-7,7.97 -6.717,7.295 -6.496,6.59L0,5.122ZM-18.897,8.966C-22.374,8.966 -25.196,6.099 -25.196,2.561C-25.196,-0.974 -22.374,-3.844 -18.897,-3.844C-15.42,-3.844 -12.598,-0.974 -12.598,2.561C-12.598,6.099 -15.42,8.966 -18.897,8.966" style="fill:white;fill-rule:nonzero;"/>
            </g>
        </g>
    </g>
</svg>
