<?xml version="1.0" encoding="UTF-8" standalone="no"?>
<!DOCTYPE svg PUBLIC "-//W3C//DTD SVG 1.1//EN" "http://www.w3.org/Graphics/SVG/1.1/DTD/svg11.dtd">
<svg width="100%" height="100%" viewBox="0 0 309 66" version="1.1" xmlns="http://www.w3.org/2000/svg" xmlns:xlink="http://www.w3.org/1999/xlink" xml:space="preserve" xmlns:serif="http://www.serif.com/" style="fill-rule:evenodd;clip-rule:evenodd;stroke-linejoin:round;stroke-miterlimit:1.41421;">
    <g transform="matrix(0.48,0,0,0.48,-6.22825,-3.11763)">
        <g transform="matrix(4.16667,0,0,4.16667,0,0)">
            <g>
                <path d="M8.015,21.87L3.114,2.832L5.713,2.832L9.61,17.87L13.199,2.832L15.798,2.832L19.194,17.664L23.387,2.832L25.587,2.832L20.248,21.87L17.56,21.87L14.203,7.193L10.691,21.87L8.015,21.87Z" style="fill:rgb(235,36,52);fill-rule:nonzero;"/>
                <path d="M39.249,21.42C37.551,21.935 36.097,22.192 34.888,22.192C32.83,22.192 31.151,21.508 29.852,20.14C28.553,18.772 27.903,16.999 27.903,14.821C27.903,12.703 28.476,10.966 29.621,9.611C30.765,8.256 32.23,7.579 34.013,7.579C35.703,7.579 37.009,8.179 37.93,9.38C38.852,10.58 39.313,12.287 39.313,14.5L39.3,15.284L30.489,15.284C30.858,18.603 32.483,20.262 35.364,20.262C36.419,20.262 37.714,19.979 39.249,19.413L39.249,21.42ZM30.605,13.38L36.766,13.38C36.766,10.782 35.797,9.483 33.859,9.483C31.912,9.483 30.828,10.782 30.605,13.38Z" style="fill:rgb(235,36,52);fill-rule:nonzero;"/>
                <path d="M42.087,21.87L42.087,7.901L44.621,7.901L44.621,21.87L42.087,21.87ZM42.087,5.366L42.087,2.832L44.621,2.832L44.621,5.366L42.087,5.366Z" style="fill:rgb(235,36,52);fill-rule:nonzero;"/>
                <path d="M51.896,22.192C50.609,22.192 49.606,21.823 48.886,21.086C48.165,20.348 47.805,19.323 47.805,18.011L47.805,9.804L46.056,9.804L46.056,7.901L47.805,7.901L47.805,5.366L50.339,5.122L50.339,7.901L53.992,7.901L53.992,9.804L50.339,9.804L50.339,17.548C50.339,19.375 51.128,20.288 52.706,20.288C53.04,20.288 53.448,20.232 53.928,20.121L53.928,21.87C53.148,22.085 52.47,22.192 51.896,22.192Z" style="fill:rgb(235,36,52);fill-rule:nonzero;"/>
                <path d="M65.995,21.42C64.297,21.935 62.843,22.192 61.634,22.192C59.576,22.192 57.897,21.508 56.598,20.14C55.299,18.772 54.649,16.999 54.649,14.821C54.649,12.703 55.222,10.966 56.367,9.611C57.511,8.256 58.976,7.579 60.76,7.579C62.449,7.579 63.755,8.179 64.676,9.38C65.598,10.58 66.059,12.287 66.059,14.5L66.046,15.284L57.235,15.284C57.604,18.603 59.229,20.262 62.11,20.262C63.165,20.262 64.46,19.979 65.995,19.413L65.995,21.42ZM57.351,13.38L63.512,13.38C63.512,10.782 62.543,9.483 60.605,9.483C58.658,9.483 57.574,10.782 57.351,13.38Z" style="fill:rgb(235,36,52);fill-rule:nonzero;"/>
                <path d="M68.683,21.87L68.683,7.901L71.217,7.901L71.217,10.525C72.22,8.569 73.678,7.592 75.591,7.592C75.848,7.592 76.118,7.613 76.401,7.656L76.401,10.023C75.964,9.877 75.578,9.804 75.243,9.804C73.64,9.804 72.298,10.756 71.217,12.66L71.217,21.87L68.683,21.87Z" style="fill:rgb(235,36,52);fill-rule:nonzero;"/>
                <path d="M77.663,22.025L77.663,1.559L80.197,1.559L80.197,10.525C81.234,8.569 82.791,7.592 84.866,7.592C86.547,7.592 87.87,8.205 88.835,9.431C89.799,10.658 90.282,12.334 90.282,14.461C90.282,16.776 89.735,18.644 88.642,20.063C87.548,21.482 86.11,22.192 84.326,22.192C82.671,22.192 81.294,21.557 80.197,20.288L79.888,22.025L77.663,22.025ZM80.197,18.539C81.5,19.705 82.744,20.288 83.927,20.288C86.363,20.288 87.58,18.432 87.58,14.718C87.58,11.442 86.5,9.804 84.339,9.804C82.924,9.804 81.543,10.572 80.197,12.107L80.197,18.539Z" style="fill:rgb(235,36,52);fill-rule:nonzero;"/>
                <path d="M92.694,21.87L92.694,7.901L95.228,7.901L95.228,21.87L92.694,21.87ZM92.694,5.366L92.694,2.832L95.228,2.832L95.228,5.366L92.694,5.366Z" style="fill:rgb(235,36,52);fill-rule:nonzero;"/>
                <rect x="98.509" y="1.559" width="2.534" height="20.312" style="fill:rgb(235,36,52);fill-rule:nonzero;"/>
                <path d="M113.19,21.87L113.19,19.246C112.161,21.21 110.609,22.192 108.534,22.192C106.853,22.192 105.53,21.579 104.565,20.352C103.6,19.126 103.118,17.45 103.118,15.323C103.118,12.999 103.665,11.129 104.758,9.714C105.851,8.299 107.29,7.592 109.074,7.592C110.729,7.592 112.101,8.226 113.19,9.496L113.19,1.559L115.737,1.559L115.737,21.87L113.19,21.87ZM113.19,11.232C111.878,10.075 110.635,9.496 109.46,9.496C107.033,9.496 105.819,11.352 105.819,15.066C105.819,18.333 106.9,19.967 109.061,19.967C110.467,19.967 111.844,19.199 113.19,17.664L113.19,11.232Z" style="fill:rgb(235,36,52);fill-rule:nonzero;"/>
                <path d="M127.99,21.87L127.99,19.246C126.643,21.21 125.01,22.192 123.089,22.192C121.871,22.192 120.902,21.808 120.182,21.041C119.461,20.273 119.101,19.238 119.101,17.934L119.101,7.901L121.635,7.901L121.635,17.111C121.635,18.157 121.787,18.901 122.092,19.343C122.396,19.784 122.904,20.005 123.616,20.005C125.16,20.005 126.618,18.989 127.99,16.957L127.99,7.901L130.524,7.901L130.524,21.87L127.99,21.87Z" style="fill:rgb(235,36,52);fill-rule:nonzero;"/>
                <path d="M132.655,21.87L132.655,7.901L135.189,7.901L135.189,10.525C136.527,8.569 138.165,7.592 140.103,7.592C141.312,7.592 142.277,7.976 142.997,8.743C143.718,9.511 144.078,10.542 144.078,11.837L144.078,21.87L141.544,21.87L141.544,12.66C141.544,11.622 141.391,10.883 141.087,10.441C140.783,9.999 140.279,9.779 139.576,9.779C138.023,9.779 136.561,10.795 135.189,12.827L135.189,21.87L132.655,21.87Z" style="fill:rgb(235,36,52);fill-rule:nonzero;"/>
                <path d="M146.006,26.514L146.302,24.314C147.768,25.009 149.213,25.356 150.637,25.356C153.493,25.356 154.92,23.843 154.92,20.816L154.92,18.616C153.986,20.571 152.451,21.549 150.315,21.549C148.643,21.549 147.314,20.94 146.328,19.722C145.341,18.504 144.848,16.862 144.848,14.795C144.848,12.669 145.41,10.936 146.533,9.599C147.657,8.261 149.11,7.592 150.894,7.592C152.455,7.592 153.797,8.226 154.92,9.496L154.92,7.901L157.467,7.901L157.467,18.063C157.467,20.25 157.354,21.868 157.127,22.919C156.899,23.969 156.473,24.829 155.847,25.498C154.74,26.673 153.021,27.26 150.688,27.26C149.059,27.26 147.498,27.012 146.006,26.514ZM154.92,17.034L154.92,11.232C153.806,10.075 152.592,9.496 151.28,9.496C150.114,9.496 149.2,9.963 148.54,10.898C147.88,11.833 147.55,13.115 147.55,14.744C147.55,17.806 148.626,19.336 150.778,19.336C152.245,19.336 153.626,18.569 154.92,17.034Z" style="fill:rgb(235,36,52);fill-rule:nonzero;"/>
                <path d="M7.762,34.265L7.762,25.341L9.028,25.341L9.028,29.104L13.273,29.104L13.273,25.341L14.539,25.341L14.539,34.265L13.273,34.265L13.273,30.051L9.028,30.051L9.028,34.265L7.762,34.265Z" style="fill:rgb(94,96,97);fill-rule:nonzero;"/>
                <path d="M19.685,34.416C18.749,34.416 18.001,34.106 17.442,33.485C16.883,32.863 16.604,32.032 16.604,30.991C16.604,29.938 16.884,29.105 17.445,28.492C18.006,27.879 18.767,27.572 19.727,27.572C20.688,27.572 21.449,27.879 22.01,28.492C22.571,29.105 22.851,29.934 22.851,30.979C22.851,32.048 22.57,32.889 22.007,33.5C21.444,34.111 20.67,34.416 19.685,34.416ZM19.703,33.524C20.962,33.524 21.591,32.676 21.591,30.979C21.591,29.303 20.97,28.465 19.727,28.465C18.489,28.465 17.87,29.307 17.87,30.991C17.87,32.68 18.481,33.524 19.703,33.524Z" style="fill:rgb(94,96,97);fill-rule:nonzero;"/>
                <path d="M27.265,34.416C26.38,34.416 25.647,34.089 25.064,33.433C24.481,32.778 24.19,31.952 24.19,30.955C24.19,29.89 24.478,29.06 25.055,28.465C25.632,27.87 26.437,27.572 27.47,27.572C27.98,27.572 28.551,27.643 29.182,27.783L29.182,28.778C28.511,28.581 27.964,28.483 27.542,28.483C26.935,28.483 26.448,28.711 26.08,29.167C25.712,29.623 25.528,30.231 25.528,30.991C25.528,31.727 25.717,32.322 26.095,32.776C26.473,33.23 26.967,33.457 27.578,33.457C28.121,33.457 28.68,33.319 29.255,33.041L29.255,34.066C28.487,34.3 27.823,34.416 27.265,34.416Z" style="fill:rgb(94,96,97);fill-rule:nonzero;"/>
                <path d="M31.283,34.265L31.283,24.744L32.471,24.744L32.471,28.947C33.098,28.031 33.866,27.572 34.775,27.572C35.341,27.572 35.794,27.752 36.131,28.112C36.469,28.472 36.638,28.955 36.638,29.562L36.638,34.265L35.45,34.265L35.45,29.948C35.45,29.462 35.379,29.115 35.236,28.908C35.093,28.701 34.857,28.597 34.527,28.597C33.8,28.597 33.114,29.074 32.471,30.026L32.471,34.265L31.283,34.265Z" style="fill:rgb(94,96,97);fill-rule:nonzero;"/>
                <path d="M40.584,34.416C40.041,34.416 39.382,34.29 38.606,34.036L38.606,32.945C39.382,33.331 40.057,33.524 40.632,33.524C40.974,33.524 41.257,33.431 41.482,33.246C41.707,33.061 41.82,32.83 41.82,32.553C41.82,32.147 41.504,31.811 40.873,31.546L40.18,31.251C39.155,30.824 38.642,30.211 38.642,29.411C38.642,28.841 38.844,28.391 39.248,28.064C39.652,27.736 40.206,27.572 40.909,27.572C41.275,27.572 41.727,27.623 42.266,27.723L42.513,27.771L42.513,28.76C41.85,28.563 41.323,28.465 40.933,28.465C40.17,28.465 39.788,28.742 39.788,29.297C39.788,29.655 40.077,29.956 40.656,30.201L41.229,30.443C41.876,30.716 42.334,31.004 42.604,31.308C42.873,31.611 43.008,31.99 43.008,32.444C43.008,33.019 42.781,33.492 42.326,33.861C41.872,34.231 41.291,34.416 40.584,34.416Z" style="fill:rgb(94,96,97);fill-rule:nonzero;"/>
                <path d="M46.799,34.416C45.915,34.416 45.181,34.089 44.598,33.433C44.015,32.778 43.724,31.952 43.724,30.955C43.724,29.89 44.012,29.06 44.589,28.465C45.166,27.87 45.971,27.572 47.004,27.572C47.514,27.572 48.085,27.643 48.716,27.783L48.716,28.778C48.045,28.581 47.498,28.483 47.076,28.483C46.469,28.483 45.982,28.711 45.614,29.167C45.246,29.623 45.062,30.231 45.062,30.991C45.062,31.727 45.251,32.322 45.629,32.776C46.007,33.23 46.501,33.457 47.112,33.457C47.655,33.457 48.214,33.319 48.789,33.041L48.789,34.066C48.021,34.3 47.358,34.416 46.799,34.416Z" style="fill:rgb(94,96,97);fill-rule:nonzero;"/>
                <path d="M50.818,34.265L50.818,24.744L52.005,24.744L52.005,28.947C52.632,28.031 53.4,27.572 54.309,27.572C54.876,27.572 55.328,27.752 55.665,28.112C56.003,28.472 56.172,28.955 56.172,29.562L56.172,34.265L54.984,34.265L54.984,29.948C54.984,29.462 54.913,29.115 54.77,28.908C54.627,28.701 54.391,28.597 54.062,28.597C53.334,28.597 52.649,29.074 52.005,30.026L52.005,34.265L50.818,34.265Z" style="fill:rgb(94,96,97);fill-rule:nonzero;"/>
                <path d="M62.476,34.265L62.476,33.035C61.844,33.956 61.079,34.416 60.178,34.416C59.607,34.416 59.153,34.236 58.816,33.876C58.478,33.517 58.309,33.031 58.309,32.42L58.309,27.717L59.497,27.717L59.497,32.034C59.497,32.525 59.568,32.874 59.711,33.081C59.854,33.288 60.092,33.391 60.425,33.391C61.149,33.391 61.832,32.915 62.476,31.962L62.476,27.717L63.663,27.717L63.663,34.265L62.476,34.265Z" style="fill:rgb(94,96,97);fill-rule:nonzero;"/>
                <rect x="65.795" y="24.744" width="1.188" height="9.521" style="fill:rgb(94,96,97);fill-rule:nonzero;"/>
                <path d="M73.665,34.054C72.869,34.296 72.187,34.416 71.62,34.416C70.656,34.416 69.869,34.096 69.26,33.454C68.651,32.813 68.346,31.982 68.346,30.961C68.346,29.968 68.615,29.154 69.151,28.519C69.688,27.884 70.374,27.566 71.21,27.566C72.002,27.566 72.614,27.848 73.047,28.41C73.479,28.973 73.695,29.773 73.695,30.81L73.689,31.178L69.558,31.178C69.731,32.734 70.493,33.512 71.844,33.512C72.338,33.512 72.945,33.379 73.665,33.114L73.665,34.054ZM69.613,30.286L72.501,30.286C72.501,29.068 72.047,28.459 71.138,28.459C70.226,28.459 69.717,29.068 69.613,30.286Z" style="fill:rgb(94,96,97);fill-rule:nonzero;"/>
                <path d="M83.305,34.265L83.305,33.035C82.823,33.956 82.095,34.416 81.122,34.416C80.334,34.416 79.714,34.129 79.262,33.554C78.81,32.979 78.584,32.193 78.584,31.196C78.584,30.107 78.84,29.231 79.352,28.567C79.865,27.904 80.539,27.572 81.375,27.572C82.151,27.572 82.794,27.87 83.305,28.465L83.305,24.744L84.499,24.744L84.499,34.265L83.305,34.265ZM83.305,29.279C82.69,28.736 82.107,28.465 81.556,28.465C80.419,28.465 79.85,29.335 79.85,31.076C79.85,32.607 80.356,33.373 81.369,33.373C82.029,33.373 82.674,33.013 83.305,32.294L83.305,29.279Z" style="fill:rgb(94,96,97);fill-rule:nonzero;"/>
                <path d="M91.174,34.054C90.378,34.296 89.697,34.416 89.13,34.416C88.165,34.416 87.378,34.096 86.769,33.454C86.16,32.813 85.856,31.982 85.856,30.961C85.856,29.968 86.124,29.154 86.661,28.519C87.198,27.884 87.884,27.566 88.72,27.566C89.512,27.566 90.124,27.848 90.556,28.41C90.988,28.973 91.204,29.773 91.204,30.81L91.198,31.178L87.068,31.178C87.241,32.734 88.003,33.512 89.353,33.512C89.848,33.512 90.455,33.379 91.174,33.114L91.174,34.054ZM87.122,30.286L90.01,30.286C90.01,29.068 89.556,28.459 88.648,28.459C87.735,28.459 87.227,29.068 87.122,30.286Z" style="fill:rgb(94,96,97);fill-rule:nonzero;"/>
                <path d="M93.155,34.265L93.155,27.717L94.342,27.717L94.342,28.947C94.813,28.031 95.496,27.572 96.393,27.572C96.513,27.572 96.64,27.582 96.772,27.602L96.772,28.712C96.567,28.644 96.386,28.609 96.23,28.609C95.478,28.609 94.849,29.056 94.342,29.948L94.342,34.265L93.155,34.265Z" style="fill:rgb(94,96,97);fill-rule:nonzero;"/>
                <path d="M101.129,34.265L101.129,25.341L102.883,25.341L105.355,32.245L107.9,25.341L109.468,25.341L109.468,34.265L108.286,34.265L108.286,27.006L105.826,33.668L104.602,33.668L102.214,26.987L102.214,34.265L101.129,34.265Z" style="fill:rgb(94,96,97);fill-rule:nonzero;"/>
                <path d="M116.451,34.054C115.655,34.296 114.974,34.416 114.407,34.416C113.442,34.416 112.655,34.096 112.046,33.454C111.437,32.813 111.133,31.982 111.133,30.961C111.133,29.968 111.401,29.154 111.938,28.519C112.474,27.884 113.161,27.566 113.997,27.566C114.789,27.566 115.401,27.848 115.833,28.41C116.265,28.973 116.481,29.773 116.481,30.81L116.475,31.178L112.345,31.178C112.518,32.734 113.279,33.512 114.63,33.512C115.124,33.512 115.731,33.379 116.451,33.114L116.451,34.054ZM112.399,30.286L115.287,30.286C115.287,29.068 114.833,28.459 113.925,28.459C113.012,28.459 112.504,29.068 112.399,30.286Z" style="fill:rgb(94,96,97);fill-rule:nonzero;"/>
                <path d="M122.634,34.265L122.634,33.035C122.152,33.956 121.424,34.416 120.451,34.416C119.663,34.416 119.043,34.129 118.591,33.554C118.139,32.979 117.913,32.193 117.913,31.196C117.913,30.107 118.169,29.231 118.682,28.567C119.194,27.904 119.868,27.572 120.705,27.572C121.48,27.572 122.124,27.87 122.634,28.465L122.634,24.744L123.828,24.744L123.828,34.265L122.634,34.265ZM122.634,29.279C122.019,28.736 121.436,28.465 120.885,28.465C119.748,28.465 119.179,29.335 119.179,31.076C119.179,32.607 119.685,33.373 120.699,33.373C121.358,33.373 122.003,33.013 122.634,32.294L122.634,29.279Z" style="fill:rgb(94,96,97);fill-rule:nonzero;"/>
                <path d="M125.704,34.265L125.704,27.717L126.892,27.717L126.892,34.265L125.704,34.265ZM125.704,26.529L125.704,25.341L126.892,25.341L126.892,26.529L125.704,26.529Z" style="fill:rgb(94,96,97);fill-rule:nonzero;"/>
                <path d="M133.723,34.054C132.927,34.296 132.246,34.416 131.679,34.416C130.714,34.416 129.927,34.096 129.318,33.454C128.709,32.813 128.405,31.982 128.405,30.961C128.405,29.968 128.673,29.154 129.21,28.519C129.746,27.884 130.433,27.566 131.269,27.566C132.061,27.566 132.673,27.848 133.105,28.41C133.537,28.973 133.753,29.773 133.753,30.81L133.747,31.178L129.617,31.178C129.79,32.734 130.551,33.512 131.902,33.512C132.396,33.512 133.003,33.379 133.723,33.114L133.723,34.054ZM129.671,30.286L132.559,30.286C132.559,29.068 132.105,28.459 131.197,28.459C130.284,28.459 129.776,29.068 129.671,30.286Z" style="fill:rgb(94,96,97);fill-rule:nonzero;"/>
                <path d="M135.703,34.265L135.703,27.717L136.891,27.717L136.891,28.947C137.518,28.031 138.286,27.572 139.195,27.572C139.761,27.572 140.214,27.752 140.551,28.112C140.889,28.472 141.058,28.955 141.058,29.562L141.058,34.265L139.87,34.265L139.87,29.948C139.87,29.462 139.799,29.115 139.656,28.908C139.513,28.701 139.277,28.597 138.947,28.597C138.22,28.597 137.534,29.074 136.891,30.026L136.891,34.265L135.703,34.265Z" style="fill:rgb(94,96,97);fill-rule:nonzero;"/>
            </g>
        </g>
    </g>
</svg>
