<?xml version="1.0" encoding="iso-8859-1"?>
<!-- Generator: Adobe Illustrator 19.0.0, SVG Export Plug-In . SVG Version: 6.00 Build 0)  -->
<svg version="1.1" id="Capa_1" xmlns="http://www.w3.org/2000/svg" xmlns:xlink="http://www.w3.org/1999/xlink" x="0px" y="0px"
	 viewBox="0 0 423.253 423.253" style="enable-background:new 0 0 423.253 423.253;" xml:space="preserve">
<g>
	<g>
		<path d="M264.706,0H62.973C43.307,0,27.307,16,27.307,35.666v297.308c0,19.666,16,35.666,35.666,35.666H195.82
			c3.77,0,6.827-3.057,6.827-6.827c0-3.77-3.057-6.827-6.827-6.827H62.973c-12.136,0-22.013-9.876-22.013-22.014V35.666
			c0-12.136,9.877-22.013,22.013-22.013h201.735c12.136,0,22.013,9.876,22.013,22.013v24.323c0,3.77,3.057,6.827,6.827,6.827
			c3.77,0,6.827-3.057,6.827-6.827V35.666C300.373,16,284.373,0,264.706,0z"/>
	</g>
</g>
<g>
	<g>
		<path d="M273.067,20.48H54.613c-3.77,0-6.827,3.057-6.827,6.827v266.24c0,3.77,3.057,6.827,6.827,6.827h143.36
			c3.77,0,6.827-3.057,6.827-6.827c0-3.77-3.057-6.827-6.827-6.827H61.44V34.133h204.8V58.18c0,3.77,3.057,6.827,6.827,6.827
			s6.827-3.057,6.827-6.827V27.307C279.893,23.537,276.837,20.48,273.067,20.48z"/>
	</g>
</g>
<g>
	<g>
		<path d="M163.84,307.2c-11.293,0-20.48,9.187-20.48,20.48s9.187,20.48,20.48,20.48c11.293,0,20.48-9.187,20.48-20.48
			S175.133,307.2,163.84,307.2z M163.84,334.507c-3.763,0-6.827-3.063-6.827-6.827s3.063-6.827,6.827-6.827
			c3.763,0,6.827,3.063,6.827,6.827S167.603,334.507,163.84,334.507z"/>
	</g>
</g>
<g>
	<g>
		<path d="M100.4,42.96c-2.666-2.666-6.987-2.666-9.653,0L73.68,60.027c-2.666,2.666-2.666,6.987,0,9.653
			c1.333,1.333,3.081,2,4.826,2s3.494-0.667,4.826-2L100.4,52.613C103.066,49.947,103.066,45.626,100.4,42.96z"/>
	</g>
</g>
<g>
	<g>
		<path d="M127.706,42.96c-2.666-2.666-6.987-2.666-9.653,0L80.507,80.507c-2.666,2.666-2.666,6.987,0,9.653
			c1.333,1.333,3.081,2,4.826,2s3.494-0.667,4.826-2l37.547-37.547C130.372,49.947,130.372,45.626,127.706,42.96z"/>
	</g>
</g>
<g>
	<g>
		<path d="M375.526,54.613H211.567c-11.261,0-20.42,9.16-20.42,20.42v327.799c0,11.261,9.16,20.42,20.42,20.42h163.959
			c11.261,0,20.42-9.16,20.42-20.42V75.034C395.947,63.773,386.787,54.613,375.526,54.613z M382.293,402.833
			c0,3.731-3.036,6.767-6.767,6.767H211.567c-3.731,0-6.767-3.036-6.767-6.767V75.034c0-3.731,3.036-6.767,6.767-6.767h163.959
			c3.731,0,6.767,3.036,6.767,6.767V402.833z"/>
	</g>
</g>
<g>
	<g>
		<path d="M368.64,75.093H218.453c-3.77,0-6.827,3.057-6.827,6.827v266.24c0,3.77,3.057,6.827,6.827,6.827H368.64
			c3.77,0,6.827-3.057,6.827-6.827V81.92C375.467,78.15,372.41,75.093,368.64,75.093z M361.813,341.333H225.28V88.747h136.533
			V341.333z"/>
	</g>
</g>
<g>
	<g>
		<path d="M293.547,361.813c-11.293,0-20.48,9.187-20.48,20.48s9.187,20.48,20.48,20.48c11.293,0,20.48-9.187,20.48-20.48
			S304.84,361.813,293.547,361.813z M293.547,389.12c-3.763,0-6.827-3.063-6.827-6.827s3.063-6.827,6.827-6.827
			c3.763,0,6.827,3.063,6.827,6.827S297.31,389.12,293.547,389.12z"/>
	</g>
</g>
<g>
	<g>
		<path d="M264.24,104.4c-2.666-2.666-6.987-2.666-9.653,0l-17.067,17.067c-2.666,2.666-2.666,6.987,0,9.653
			c1.333,1.333,3.081,2,4.826,2s3.494-0.667,4.826-2l17.067-17.067C266.906,111.387,266.906,107.066,264.24,104.4z"/>
	</g>
</g>
<g>
	<g>
		<path d="M291.546,104.4c-2.666-2.666-6.987-2.666-9.653,0l-37.547,37.547c-2.666,2.666-2.666,6.987,0,9.653
			c1.333,1.333,3.081,2,4.826,2s3.494-0.667,4.826-2l37.547-37.547C294.212,111.387,294.212,107.066,291.546,104.4z"/>
	</g>
</g>
<g>
</g>
<g>
</g>
<g>
</g>
<g>
</g>
<g>
</g>
<g>
</g>
<g>
</g>
<g>
</g>
<g>
</g>
<g>
</g>
<g>
</g>
<g>
</g>
<g>
</g>
<g>
</g>
<g>
</g>
</svg>
